<svg width="24" height="25" viewBox="0 0 24 25" fill="none" xmlns="http://www.w3.org/2000/svg">
<g clip-path="url(#clip0_66_495)">
<path d="M8.16699 10.3022H16.167L17.167 11.3022L18.667 20.8022L18.167 22.3022L17.167 22.8022H6.66699L5.66699 22.3022L5.16699 20.8022L6.66699 11.3022L8.16699 10.3022Z" fill="#FBC052"/>
<path d="M16.8454 24.0522H7.15536C6.71958 24.0526 6.28898 23.9578 5.89362 23.7745C5.49826 23.5912 5.14768 23.3238 4.86636 22.991C4.58438 22.6588 4.37834 22.269 4.26266 21.8489C4.14697 21.4288 4.12443 20.9885 4.19661 20.5587L5.69737 11.5595C5.81231 10.8583 6.17321 10.2209 6.71538 9.76163C7.25755 9.30233 7.94555 9.05111 8.65612 9.05299H15.3446C16.0552 9.05111 16.7432 9.30233 17.2854 9.76163C17.8275 10.2209 18.1884 10.8583 18.3034 11.5595L19.8041 20.5587C19.9496 21.4302 19.7059 22.3167 19.1344 22.991C18.5629 23.6652 17.7289 24.0522 16.8454 24.0522ZM8.65612 10.553C7.92036 10.553 7.29786 11.0802 7.17636 11.8062L5.67561 20.8055C5.63962 21.0204 5.65097 21.2407 5.70888 21.4508C5.76678 21.6609 5.86984 21.8558 6.01086 22.022C6.29586 22.3595 6.71361 22.553 7.15536 22.553H16.8454C17.2871 22.553 17.7049 22.3595 17.9899 22.022C18.1309 21.8558 18.234 21.6609 18.2919 21.4508C18.3498 21.2407 18.3612 21.0204 18.3251 20.8055L16.8244 11.8062C16.7668 11.4556 16.5863 11.1369 16.3151 10.9073C16.044 10.6776 15.6999 10.552 15.3446 10.553H8.65612Z" fill="white"/>
<path d="M19.5 18.053H18.501V16.553H19.5C20.7405 16.553 21.75 15.5435 21.75 14.303V5.30298C21.75 4.06248 20.7405 3.05298 19.5 3.05298H4.5C3.2595 3.05298 2.25 4.06248 2.25 5.30298V14.303C2.25 15.5435 3.2595 16.553 4.5 16.553H5.499V18.053H4.5C2.43225 18.053 0.75 16.3707 0.75 14.303V5.30298C0.75 3.23523 2.43225 1.55298 4.5 1.55298H19.5C21.5677 1.55298 23.25 3.23523 23.25 5.30298V14.303C23.25 16.3707 21.5677 18.053 19.5 18.053Z" fill="white"/>
<path d="M12.0002 16.0512C11.1688 16.0503 10.3612 15.7734 9.70405 15.2642C9.04687 14.755 8.57722 14.0421 8.3687 13.2372C8.34062 13.1264 8.33822 13.0105 8.36168 12.8986C8.38514 12.7866 8.43385 12.6815 8.50408 12.5913C8.57432 12.501 8.66423 12.4279 8.76697 12.3777C8.86972 12.3274 8.98258 12.3013 9.09695 12.3012H9.0992C9.45395 12.3012 9.73745 12.5562 9.8312 12.899C10.0937 13.8507 10.9667 14.5512 12.001 14.5512C13.0352 14.5512 13.9082 13.85 14.1707 12.899C14.2652 12.557 14.548 12.3012 14.9027 12.3012H14.905C15.3932 12.3012 15.7547 12.764 15.6332 13.2372C15.4245 14.0419 14.9547 14.7547 14.2976 15.2639C13.6405 15.7731 12.833 16.05 12.0017 16.0512H12.0002Z" fill="white"/>
<path d="M7.33691 6.05222C7.75113 6.05222 8.08691 5.71643 8.08691 5.30222C8.08691 4.888 7.75113 4.55222 7.33691 4.55222C6.9227 4.55222 6.58691 4.888 6.58691 5.30222C6.58691 5.71643 6.9227 6.05222 7.33691 6.05222Z" fill="white"/>
<path d="M4.51465 6.05222C4.92886 6.05222 5.26465 5.71643 5.26465 5.30222C5.26465 4.888 4.92886 4.55222 4.51465 4.55222C4.10043 4.55222 3.76465 4.888 3.76465 5.30222C3.76465 5.71643 4.10043 6.05222 4.51465 6.05222Z" fill="white"/>
<path d="M10.1582 6.05222C10.5724 6.05222 10.9082 5.71643 10.9082 5.30222C10.9082 4.888 10.5724 4.55222 10.1582 4.55222C9.74399 4.55222 9.4082 4.888 9.4082 5.30222C9.4082 5.71643 9.74399 6.05222 10.1582 6.05222Z" fill="white"/>
</g>
<defs>
<clipPath id="clip0_66_495">
<rect width="24" height="24" fill="white" transform="translate(0 0.802216)"/>
</clipPath>
</defs>
</svg>
