<svg width="24" height="25" viewBox="0 0 24 25" fill="none" xmlns="http://www.w3.org/2000/svg">
<path d="M8 11.8022H4C3.20435 11.8022 2.44129 11.4861 1.87868 10.9235C1.31607 10.3609 1 9.59787 1 8.80222V4.80222C1 4.00657 1.31607 3.2435 1.87868 2.6809C2.44129 2.11829 3.20435 1.80222 4 1.80222H8C8.79565 1.80222 9.55871 2.11829 10.1213 2.6809C10.6839 3.2435 11 4.00657 11 4.80222V8.80222C11 9.59787 10.6839 10.3609 10.1213 10.9235C9.55871 11.4861 8.79565 11.8022 8 11.8022ZM4 3.80222C3.73478 3.80222 3.48043 3.90757 3.29289 4.09511C3.10536 4.28265 3 4.537 3 4.80222V8.80222C3 9.06743 3.10536 9.32179 3.29289 9.50932C3.48043 9.69686 3.73478 9.80222 4 9.80222H8C8.26522 9.80222 8.51957 9.69686 8.70711 9.50932C8.89464 9.32179 9 9.06743 9 8.80222V4.80222C9 4.537 8.89464 4.28265 8.70711 4.09511C8.51957 3.90757 8.26522 3.80222 8 3.80222H4ZM20 11.8022H16C15.2044 11.8022 14.4413 11.4861 13.8787 10.9235C13.3161 10.3609 13 9.59787 13 8.80222V4.80222C13 4.00657 13.3161 3.2435 13.8787 2.6809C14.4413 2.11829 15.2044 1.80222 16 1.80222H20C20.7956 1.80222 21.5587 2.11829 22.1213 2.6809C22.6839 3.2435 23 4.00657 23 4.80222V8.80222C23 9.59787 22.6839 10.3609 22.1213 10.9235C21.5587 11.4861 20.7956 11.8022 20 11.8022ZM16 3.80222C15.7348 3.80222 15.4804 3.90757 15.2929 4.09511C15.1054 4.28265 15 4.537 15 4.80222V8.80222C15 9.06743 15.1054 9.32179 15.2929 9.50932C15.4804 9.69686 15.7348 9.80222 16 9.80222H20C20.2652 9.80222 20.5196 9.69686 20.7071 9.50932C20.8946 9.32179 21 9.06743 21 8.80222V4.80222C21 4.537 20.8946 4.28265 20.7071 4.09511C20.5196 3.90757 20.2652 3.80222 20 3.80222H16ZM8 23.8022H4C3.20435 23.8022 2.44129 23.4861 1.87868 22.9235C1.31607 22.3609 1 21.5979 1 20.8022V16.8022C1 16.0066 1.31607 15.2435 1.87868 14.6809C2.44129 14.1183 3.20435 13.8022 4 13.8022H8C8.79565 13.8022 9.55871 14.1183 10.1213 14.6809C10.6839 15.2435 11 16.0066 11 16.8022V20.8022C11 21.5979 10.6839 22.3609 10.1213 22.9235C9.55871 23.4861 8.79565 23.8022 8 23.8022ZM4 15.8022C3.73478 15.8022 3.48043 15.9076 3.29289 16.0951C3.10536 16.2826 3 16.537 3 16.8022V20.8022C3 21.0674 3.10536 21.3218 3.29289 21.5093C3.48043 21.6969 3.73478 21.8022 4 21.8022H8C8.26522 21.8022 8.51957 21.6969 8.70711 21.5093C8.89464 21.3218 9 21.0674 9 20.8022V16.8022C9 16.537 8.89464 16.2826 8.70711 16.0951C8.51957 15.9076 8.26522 15.8022 8 15.8022H4ZM20 23.8022H16C15.2044 23.8022 14.4413 23.4861 13.8787 22.9235C13.3161 22.3609 13 21.5979 13 20.8022V16.8022C13 16.0066 13.3161 15.2435 13.8787 14.6809C14.4413 14.1183 15.2044 13.8022 16 13.8022H20C20.7956 13.8022 21.5587 14.1183 22.1213 14.6809C22.6839 15.2435 23 16.0066 23 16.8022V20.8022C23 21.5979 22.6839 22.3609 22.1213 22.9235C21.5587 23.4861 20.7956 23.8022 20 23.8022ZM16 15.8022C15.7348 15.8022 15.4804 15.9076 15.2929 16.0951C15.1054 16.2826 15 16.537 15 16.8022V20.8022C15 21.0674 15.1054 21.3218 15.2929 21.5093C15.4804 21.6969 15.7348 21.8022 16 21.8022H20C20.2652 21.8022 20.5196 21.6969 20.7071 21.5093C20.8946 21.3218 21 21.0674 21 20.8022V16.8022C21 16.537 20.8946 16.2826 20.7071 16.0951C20.5196 15.9076 20.2652 15.8022 20 15.8022H16Z" fill="#6C6C6C"/>
</svg>
