<svg width="65" height="64" viewBox="0 0 65 64" fill="none" xmlns="http://www.w3.org/2000/svg">
    <rect x="0.5" width="64" height="64" rx="32" fill="white" fill-opacity="0.1"/>
    <g clip-path="url(#clip0_182_505)">
        <path d="M29.0465 31.7444C28.1056 31.7444 27.1651 31.3863 26.4155 30.6696C25.0186 29.3343 23.7256 26.9613 23.9855 24.6689C24.0534 24.0693 24.2082 23.278 24.8067 22.4748C25.8222 21.112 27.3575 20.3275 29.018 20.3223H29.0352C30.7044 20.3223 32.2524 21.1041 33.284 22.4699C33.8866 23.2788 34.0415 24.0696 34.109 24.6689L34.1109 24.6858C34.3302 27.0074 33.047 29.3643 31.6779 30.67C30.9279 31.3863 29.987 31.7444 29.0465 31.7444ZM29.0356 22.1973H29.0244C27.9594 22.2006 26.9697 22.7103 26.3101 23.5956C26.0454 23.9508 25.9115 24.3228 25.8485 24.88C25.6704 26.4516 26.651 28.3008 27.7115 29.3144C28.4851 30.0535 29.6094 30.0535 30.3845 29.3136C31.6141 28.141 32.3784 26.3155 32.2456 24.8714C32.1822 24.3194 32.0487 23.9496 31.7847 23.5956C31.1146 22.7084 30.1115 22.1973 29.0356 22.1973ZM35.426 40.7253C35.2096 41.35 34.6212 41.803 33.9237 41.803H24.164C23.741 41.8025 23.3354 41.6342 23.0363 41.3351C22.7371 41.036 22.5689 40.6304 22.5684 40.2074V39.4773C22.5684 38.0365 23.2404 36.7004 24.3219 35.9901C24.9985 35.5452 25.7909 35.3087 26.6007 35.3099H31.4877C31.5864 35.3099 31.6842 35.3136 31.7821 35.3204C31.7424 35.0209 31.7215 34.7191 31.7195 34.417C31.7195 34.087 31.7495 33.7645 31.7926 33.4458C31.6914 33.4405 31.5901 33.4349 31.4881 33.4349H26.6007C25.421 33.4349 24.2772 33.7765 23.2929 34.423C21.6654 35.4918 20.6934 37.3814 20.6934 39.4776V40.2078C20.6934 42.1218 22.2504 43.6784 24.164 43.6784H33.9237C35.4114 43.6784 36.6796 42.736 37.1724 41.4183C36.5625 41.2643 35.9754 41.0313 35.426 40.7253Z" fill="#EFEFEF"/>
        <path d="M38.9505 39.7734C35.9974 39.7734 33.5947 37.3708 33.5947 34.4173C33.5947 31.4641 35.9974 29.0615 38.9505 29.0615C41.904 29.0615 44.3066 31.4641 44.3066 34.4173C44.3066 37.3704 41.904 39.7734 38.9505 39.7734ZM38.9505 30.9361C37.0312 30.9361 35.4697 32.4976 35.4697 34.4169C35.4697 36.3365 37.0312 37.898 38.9505 37.898C40.8701 37.898 42.4316 36.3365 42.4316 34.4169C42.4316 32.4976 40.8701 30.9361 38.9505 30.9361Z" fill="#EFEFEF"/>
        <path d="M38.9502 37.1126C38.7016 37.1126 38.4631 37.0138 38.2873 36.838C38.1115 36.6622 38.0127 36.4237 38.0127 36.1751V35.1206C38.0127 34.872 38.1115 34.6335 38.2873 34.4577C38.4631 34.2819 38.7016 34.1831 38.9502 34.1831C39.1988 34.1831 39.4373 34.2819 39.6131 34.4577C39.7889 34.6335 39.8877 34.872 39.8877 35.1206V36.1751C39.8877 36.4237 39.7889 36.6622 39.6131 36.838C39.4373 37.0138 39.1988 37.1126 38.9502 37.1126Z" fill="#EFEFEF"/>
        <path d="M38.9504 33.6244C39.4758 33.6244 39.9018 33.1985 39.9018 32.6731C39.9018 32.1476 39.4758 31.7217 38.9504 31.7217C38.425 31.7217 37.999 32.1476 37.999 32.6731C37.999 33.1985 38.425 33.6244 38.9504 33.6244Z" fill="#EFEFEF"/>
    </g>
    <defs>
        <clipPath id="clip0_182_505">
            <rect width="24" height="24" fill="white" transform="translate(20.5 20)"/>
        </clipPath>
    </defs>
</svg>
