<svg width="24" height="25" viewBox="0 0 24 25" fill="none" xmlns="http://www.w3.org/2000/svg">
<path d="M16.5 3.30222H7.5H7L5.5 4.80222L4.5 6.80222L2.5 9.80222L1.5 11.8022V12.8022V13.8022L2 14.8022L4.5 18.8022L5.5 20.8022L6.5 22.3022H15.5H16.5L17.5 21.8022L18.5 20.8022L22.5 13.8022V11.8022L18.5 4.80222L17.5 3.80222L16.5 3.30222Z" fill="#FBC052"/>
<path d="M14.5 10.8022L13.5 9.80222L12.5 9.30222H11.5L10.5 9.80222L9.5 10.8022L8.5 11.8022V12.8022V14.3022L9.5 15.3022L11.5 16.3022L13.5 15.8022L14.5 14.8022L15.5 12.8022L15 11.8022L14.5 10.8022Z" fill="#161616"/>
<path d="M16.1249 23.294H7.87488C6.79038 23.294 5.51687 22.559 4.97538 21.62L0.850375 14.477C0.299875 13.523 0.299875 12.083 0.850375 11.1282L4.97613 3.98525C5.51763 3.04625 6.79113 2.31125 7.87563 2.31125H16.1249C17.2094 2.31125 18.4829 3.04625 19.0244 3.98525L23.1494 11.1282C23.6999 12.0822 23.6999 13.5222 23.1494 14.477L19.0236 21.62C18.4829 22.559 17.2086 23.294 16.1249 23.294ZM7.87488 3.8105C7.31612 3.8105 6.55338 4.25075 6.27437 4.7345L2.14863 11.8775C1.86963 12.3612 1.86963 13.2425 2.14863 13.7262L6.27362 20.8692C6.55337 21.3537 7.31612 21.7932 7.87412 21.7932H16.1249C16.6836 21.7932 17.4464 21.353 17.7254 20.8692L21.8511 13.7262C22.1301 13.2425 22.1301 12.3612 21.8511 11.8775L17.7261 4.7345C17.4464 4.25 16.6836 3.8105 16.1256 3.8105H7.87488ZM11.9999 17.2392C9.55262 17.2392 7.56213 15.2487 7.56213 12.8022C7.56213 10.3557 9.55262 8.36525 11.9999 8.36525C14.4471 8.36525 16.4376 10.3557 16.4376 12.8022C16.4376 15.2487 14.4471 17.2392 11.9999 17.2392ZM11.9999 9.86525C10.3799 9.86525 9.06213 11.183 9.06213 12.8022C9.06213 14.4215 10.3799 15.7392 11.9999 15.7392C13.6199 15.7392 14.9376 14.4215 14.9376 12.8022C14.9376 11.183 13.6199 9.86525 11.9999 9.86525Z" fill="white"/>
</svg>
