<svg width="24" height="24" viewBox="0 0 24 24" fill="none" xmlns="http://www.w3.org/2000/svg">
<g clip-path="url(#clip0_26_809)">
<path d="M19.249 7.83784C21.4134 7.83784 23.1679 6.08328 23.1679 3.91892C23.1679 1.75456 21.4134 0 19.249 0C17.0846 0 15.3301 1.75456 15.3301 3.91892C15.3301 6.08328 17.0846 7.83784 19.249 7.83784Z" fill="#FCD249"/>
<path d="M17.0118 5.21063C16.0436 3.53355 16.4567 1.43904 17.8968 0.241455C17.6867 0.318634 17.4836 0.413573 17.2896 0.525242C15.4153 1.60737 14.7731 4.00404 15.8553 5.87843C16.9374 7.75271 19.3341 8.39496 21.2084 7.31278C21.4021 7.20062 21.5859 7.07218 21.7578 6.92887C20.0005 7.57721 17.98 6.88771 17.0118 5.21063Z" fill="#F9B938"/>
<path d="M19.2491 6.50213C20.6757 6.50213 21.8322 5.34564 21.8322 3.91903C21.8322 2.49243 20.6757 1.33594 19.2491 1.33594C17.8225 1.33594 16.666 2.49243 16.666 3.91903C16.666 5.34564 17.8225 6.50213 19.2491 6.50213Z" fill="#F9B938"/>
<path d="M18.0571 4.60686C17.4477 3.5514 17.6684 2.24511 18.5157 1.44189C18.3207 1.4996 18.1332 1.58008 17.9571 1.68166C16.7215 2.39502 16.2982 3.97493 17.0116 5.21048C17.7249 6.44609 19.3048 6.86938 20.5404 6.15602C20.7164 6.05427 20.8799 5.93214 21.0273 5.79217C19.908 6.12442 18.6664 5.66237 18.0571 4.60686Z" fill="#E59C1C"/>
<path d="M15.4917 7.83784C17.656 7.83784 19.4106 6.08328 19.4106 3.91892C19.4106 1.75456 17.656 0 15.4917 0C13.3273 0 11.5728 1.75456 11.5728 3.91892C11.5728 6.08328 13.3273 7.83784 15.4917 7.83784Z" fill="#FCD249"/>
<path d="M13.2545 5.21063C12.2862 3.53355 12.6993 1.43904 14.1395 0.241455C13.9294 0.318634 13.7263 0.413573 13.5323 0.525242C11.658 1.60737 11.0158 4.00404 12.0979 5.87843C13.1801 7.75271 15.5767 8.39496 17.4511 7.31278C17.6447 7.20062 17.8285 7.07218 18.0005 6.92887C16.2432 7.57721 14.2228 6.88771 13.2545 5.21063Z" fill="#F9B938"/>
<path d="M15.4913 6.50213C16.9179 6.50213 18.0744 5.34564 18.0744 3.91903C18.0744 2.49243 16.9179 1.33594 15.4913 1.33594C14.0647 1.33594 12.9082 2.49243 12.9082 3.91903C12.9082 5.34564 14.0647 6.50213 15.4913 6.50213Z" fill="#F9B938"/>
<path d="M14.2998 4.60686C13.6904 3.5514 13.9111 2.24511 14.7584 1.44189C14.5634 1.4996 14.3759 1.58008 14.1998 1.68166C12.9642 2.39502 12.5409 3.97493 13.2543 5.21048C13.9676 6.44604 15.5475 6.86938 16.7831 6.15602C16.9591 6.05427 17.1225 5.93214 17.27 5.79217C16.1508 6.12442 14.9092 5.66237 14.2998 4.60686Z" fill="#E59C1C"/>
<path d="M15.8194 6.56765L9.50648 0.206498C9.23343 -0.0665541 8.78656 -0.0665541 8.51351 0.206498L2.20068 6.56765H15.8194Z" fill="#91CE91"/>
<path d="M9.50648 0.206498C9.23343 -0.0665541 8.78656 -0.0665541 8.51351 0.206498L2.20068 6.56765H4.08397L9.95166 0.655054L9.50648 0.206498Z" fill="#5EAA5E"/>
<path d="M8.51374 2.09496L4.08936 6.56767H13.9311L9.50671 2.09496C9.23361 1.82186 8.78679 1.82186 8.51374 2.09496Z" fill="#5EAA5E"/>
<path d="M9.50671 2.09493C9.23366 1.82187 8.78679 1.82187 8.51374 2.09493L4.08936 6.56764H5.34488L9.63801 2.22763L9.50671 2.09493Z" fill="#4D964D"/>
<path d="M23.9992 18.4563V21.8122C23.9992 23.0185 23.0179 23.9998 21.8116 23.9998H2.18863C0.982324 23.9998 0.000976562 23.0185 0.000976562 21.8122V8.70689C0.000976562 7.50063 0.982324 6.51929 2.18863 6.51929H21.8116C23.0179 6.51929 23.9993 7.50063 23.9993 8.70689V12.0499" fill="#DD9A5E"/>
<path d="M1.35307 21.8122V8.70689C1.35307 7.50063 2.33441 6.51929 3.54072 6.51929H2.18863C0.982324 6.51929 0.000976562 7.50063 0.000976562 8.70689V21.8122C0.000976562 23.0185 0.982324 23.9999 2.18863 23.9999H3.54072C2.33441 23.9999 1.35307 23.0185 1.35307 21.8122ZM23.9992 12.1691H18.4183C16.7185 12.1691 15.3278 13.5598 15.3278 15.2596C15.3278 16.9594 16.7185 18.3501 18.4183 18.3501H23.9992V12.1691Z" fill="#D38D54"/>
<path d="M15.4007 14.5957C15.3523 14.8137 15.3278 15.0363 15.3276 15.2596C15.3276 16.9594 16.7184 18.35 18.4182 18.35H23.9991V17.0223H18.4182C16.9462 17.0224 15.7067 15.9792 15.4007 14.5957Z" fill="#C17B48"/>
<path d="M18.5036 16.9836C19.4638 16.9836 20.2421 16.2052 20.2421 15.2451C20.2421 14.2849 19.4638 13.5066 18.5036 13.5066C17.5435 13.5066 16.7651 14.2849 16.7651 15.2451C16.7651 16.2052 17.5435 16.9836 18.5036 16.9836Z" fill="#DADADA"/>
<path d="M19.5591 16.0553C18.6317 15.8068 18.0814 14.8535 18.3298 13.9262C18.3702 13.7758 18.4292 13.6356 18.5035 13.5068C17.7355 13.5064 17.0326 14.0184 16.8243 14.7954C16.5758 15.7228 17.1262 16.676 18.0536 16.9245C18.8306 17.1327 19.6255 16.7799 20.0091 16.1146C19.8572 16.1145 19.7059 16.0946 19.5591 16.0553Z" fill="#C0C0C0"/>
<path d="M1.76955 22.6516C1.783 22.452 1.9555 22.3019 2.15524 22.3146C2.16462 22.3153 2.17413 22.3156 2.1836 22.3157C2.27964 22.3168 2.37131 22.3561 2.43843 22.4247C2.50556 22.4934 2.54265 22.586 2.54155 22.682C2.53573 23.1852 1.73664 23.1396 1.76955 22.6516ZM21.4275 23.04H21.3789C21.2828 23.04 21.1907 23.0019 21.1228 22.934C21.0549 22.866 21.0167 22.7739 21.0167 22.6779C21.0167 22.5818 21.0549 22.4897 21.1228 22.4218C21.1907 22.3539 21.2828 22.3157 21.3789 22.3157H21.4275C21.5235 22.3157 21.6156 22.3539 21.6836 22.4218C21.7515 22.4897 21.7896 22.5818 21.7896 22.6779C21.7896 22.7739 21.7515 22.866 21.6836 22.934C21.6156 23.0019 21.5235 23.04 21.4275 23.04ZM19.6776 23.04H19.629C19.5329 23.04 19.4408 23.0019 19.3729 22.934C19.305 22.866 19.2668 22.7739 19.2668 22.6779C19.2668 22.5818 19.305 22.4897 19.3729 22.4218C19.4408 22.3539 19.5329 22.3157 19.629 22.3157H19.6776C19.7737 22.3157 19.8658 22.3539 19.9337 22.4218C20.0016 22.4897 20.0398 22.5818 20.0398 22.6779C20.0398 22.7739 20.0016 22.866 19.9337 22.934C19.8658 23.0019 19.7737 23.04 19.6776 23.04ZM17.9279 23.04H17.8793C17.7832 23.04 17.6911 23.0019 17.6232 22.934C17.5552 22.866 17.5171 22.7739 17.5171 22.6779C17.5171 22.5818 17.5552 22.4897 17.6232 22.4218C17.6911 22.3539 17.7832 22.3157 17.8793 22.3157H17.9279C18.0239 22.3157 18.116 22.3539 18.184 22.4218C18.2519 22.4897 18.29 22.5818 18.29 22.6779C18.29 22.7739 18.2519 22.866 18.184 22.934C18.116 23.0019 18.0239 23.04 17.9279 23.04ZM16.178 23.04H16.1294C16.0333 23.04 15.9412 23.0019 15.8733 22.934C15.8054 22.866 15.7672 22.7739 15.7672 22.6779C15.7672 22.5818 15.8054 22.4897 15.8733 22.4218C15.9412 22.3539 16.0333 22.3157 16.1294 22.3157H16.178C16.274 22.3157 16.3662 22.3539 16.4341 22.4218C16.502 22.4897 16.5401 22.5818 16.5401 22.6779C16.5401 22.7739 16.502 22.866 16.4341 22.934C16.3662 23.0019 16.274 23.04 16.178 23.04ZM14.4282 23.04H14.3796C14.2835 23.04 14.1914 23.0019 14.1235 22.934C14.0556 22.866 14.0174 22.7739 14.0174 22.6779C14.0174 22.5818 14.0556 22.4897 14.1235 22.4218C14.1914 22.3539 14.2835 22.3157 14.3796 22.3157H14.4282C14.5243 22.3157 14.6164 22.3539 14.6843 22.4218C14.7522 22.4897 14.7904 22.5818 14.7904 22.6779C14.7904 22.7739 14.7522 22.866 14.6843 22.934C14.6164 23.0019 14.5243 23.04 14.4282 23.04ZM12.6784 23.04H12.6298C12.5337 23.04 12.4416 23.0019 12.3737 22.934C12.3058 22.866 12.2676 22.7739 12.2676 22.6779C12.2676 22.5818 12.3058 22.4897 12.3737 22.4218C12.4416 22.3539 12.5337 22.3157 12.6298 22.3157H12.6784C12.7744 22.3157 12.8665 22.3539 12.9345 22.4218C13.0024 22.4897 13.0405 22.5818 13.0405 22.6779C13.0405 22.7739 13.0024 22.866 12.9345 22.934C12.8665 23.0019 12.7744 23.04 12.6784 23.04ZM10.9285 23.04H10.8799C10.7839 23.04 10.6918 23.0019 10.6238 22.934C10.5559 22.866 10.5178 22.7739 10.5178 22.6779C10.5178 22.5818 10.5559 22.4897 10.6238 22.4218C10.6918 22.3539 10.7839 22.3157 10.8799 22.3157H10.9285C11.0246 22.3157 11.1167 22.3539 11.1846 22.4218C11.2525 22.4897 11.2907 22.5818 11.2907 22.6779C11.2907 22.7739 11.2525 22.866 11.1846 22.934C11.1167 23.0019 11.0246 23.04 10.9285 23.04ZM9.17871 23.04H9.1301C9.03405 23.04 8.94193 23.0019 8.87401 22.934C8.80609 22.866 8.76793 22.7739 8.76793 22.6779C8.76793 22.5818 8.80609 22.4897 8.87401 22.4218C8.94193 22.3539 9.03405 22.3157 9.1301 22.3157H9.17871C9.27476 22.3157 9.36688 22.3539 9.4348 22.4218C9.50271 22.4897 9.54087 22.5818 9.54087 22.6779C9.54087 22.7739 9.50271 22.866 9.4348 22.934C9.36688 23.0019 9.27476 23.04 9.17871 23.04ZM7.42888 23.04H7.38027C7.28421 23.04 7.1921 23.0019 7.12418 22.934C7.05626 22.866 7.0181 22.7739 7.0181 22.6779C7.0181 22.1949 7.79099 22.1934 7.79099 22.6779C7.79101 22.7254 7.78165 22.7725 7.76345 22.8165C7.74526 22.8604 7.71859 22.9003 7.68496 22.934C7.65133 22.9676 7.61141 22.9943 7.56747 23.0125C7.52353 23.0307 7.47644 23.04 7.42888 23.04ZM5.67909 23.04H5.63048C5.53443 23.04 5.44231 23.0019 5.37439 22.934C5.30648 22.866 5.26832 22.7739 5.26832 22.6779C5.26832 22.1949 6.04125 22.1934 6.04125 22.6779C6.04124 22.7739 6.00308 22.866 5.93517 22.9339C5.86725 23.0019 5.77514 23.04 5.67909 23.04ZM3.92921 23.04H3.8806C3.78455 23.04 3.69243 23.0019 3.62452 22.934C3.5566 22.866 3.51844 22.7739 3.51844 22.6779C3.51844 22.5818 3.5566 22.4897 3.62452 22.4218C3.69243 22.3539 3.78455 22.3157 3.8806 22.3157H3.92921C4.02527 22.3157 4.11738 22.3539 4.1853 22.4218C4.25322 22.4897 4.29138 22.5818 4.29138 22.6779C4.29138 22.7739 4.25322 22.866 4.1853 22.934C4.11738 23.0019 4.02527 23.04 3.92921 23.04ZM22.6764 22.2172C22.6274 22.2172 22.5788 22.2073 22.5337 22.188C22.4886 22.1687 22.4479 22.1405 22.414 22.105C22.3802 22.0694 22.3539 22.0274 22.3368 21.9815C22.3196 21.9355 22.312 21.8865 22.3144 21.8375C22.3148 21.8292 22.315 21.8208 22.315 21.8123V21.8064C22.315 21.7104 22.3532 21.6183 22.4211 21.5504C22.489 21.4824 22.5811 21.4443 22.6772 21.4443C22.7732 21.4443 22.8654 21.4824 22.9333 21.5504C23.0012 21.6183 23.0394 21.7104 23.0394 21.8064V21.8123C23.0394 21.8325 23.0388 21.8526 23.0379 21.8725C23.0334 21.9654 22.9933 22.053 22.9261 22.1171C22.8588 22.1813 22.7694 22.2171 22.6764 22.2172ZM1.3231 21.7752C1.22705 21.7752 1.13493 21.737 1.06701 21.6691C0.999094 21.6012 0.960938 21.5091 0.960938 21.413V21.3644C0.960938 21.2684 0.999094 21.1763 1.06701 21.1084C1.13493 21.0404 1.22705 21.0023 1.3231 21.0023C1.41915 21.0023 1.51127 21.0404 1.57919 21.1084C1.64711 21.1763 1.68526 21.2684 1.68526 21.3644V21.413C1.68528 21.4606 1.67592 21.5077 1.65772 21.5516C1.63953 21.5956 1.61285 21.6355 1.57922 21.6691C1.54558 21.7028 1.50565 21.7294 1.46171 21.7476C1.41776 21.7658 1.37066 21.7752 1.3231 21.7752ZM22.6772 20.4674C22.5811 20.4674 22.489 20.4293 22.4211 20.3614C22.3532 20.2934 22.315 20.2013 22.315 20.1053V20.0567C22.315 19.9606 22.3532 19.8685 22.4211 19.8006C22.489 19.7327 22.5811 19.6945 22.6772 19.6945C22.7732 19.6945 22.8654 19.7327 22.9333 19.8006C23.0012 19.8685 23.0394 19.9606 23.0394 20.0567V20.1053C23.0393 20.2013 23.0012 20.2934 22.9333 20.3613C22.8653 20.4293 22.7732 20.4674 22.6772 20.4674ZM1.3231 20.0254C1.22705 20.0254 1.13493 19.9872 1.06701 19.9193C0.999094 19.8514 0.960938 19.7593 0.960938 19.6632V19.6147C0.960938 19.5186 0.999094 19.4265 1.06701 19.3586C1.13493 19.2907 1.22705 19.2525 1.3231 19.2525C1.41915 19.2525 1.51127 19.2907 1.57919 19.3586C1.64711 19.4265 1.68526 19.5186 1.68526 19.6147V19.6632C1.68527 19.7108 1.67591 19.7579 1.65771 19.8018C1.63951 19.8458 1.61283 19.8857 1.5792 19.9193C1.54557 19.953 1.50564 19.9796 1.4617 19.9978C1.41776 20.016 1.37066 20.0254 1.3231 20.0254ZM1.3231 18.2755C1.22705 18.2755 1.13493 18.2374 1.06701 18.1694C0.999094 18.1015 0.960938 18.0094 0.960938 17.9134V17.8648C0.960938 17.7687 0.999094 17.6766 1.06701 17.6087C1.13493 17.5408 1.22705 17.5026 1.3231 17.5026C1.41915 17.5026 1.51127 17.5408 1.57919 17.6087C1.64711 17.6766 1.68526 17.7687 1.68526 17.8648V17.9134C1.68528 17.9609 1.67592 18.008 1.65772 18.052C1.63953 18.0959 1.61285 18.1358 1.57922 18.1695C1.54558 18.2031 1.50565 18.2298 1.46171 18.248C1.41776 18.2662 1.37066 18.2755 1.3231 18.2755ZM1.3231 16.5257C1.22705 16.5257 1.13493 16.4876 1.06701 16.4197C0.999094 16.3517 0.960938 16.2596 0.960938 16.1636V16.115C0.960931 16.0674 0.970295 16.0203 0.988493 15.9764C1.00669 15.9325 1.03337 15.8925 1.067 15.8589C1.10063 15.8253 1.14056 15.7986 1.1845 15.7804C1.22844 15.7622 1.27554 15.7528 1.3231 15.7528C1.80714 15.7528 1.80658 16.5257 1.3231 16.5257ZM1.3231 14.7759C1.22705 14.7759 1.13493 14.7378 1.06701 14.6699C0.999094 14.602 0.960938 14.5098 0.960938 14.4138V14.3652C0.960938 14.2691 0.999094 14.177 1.06701 14.1091C1.13493 14.0412 1.22705 14.003 1.3231 14.003C1.41915 14.003 1.51127 14.0412 1.57919 14.1091C1.64711 14.177 1.68526 14.2691 1.68526 14.3652V14.4138C1.68527 14.4613 1.67591 14.5084 1.65771 14.5524C1.63951 14.5963 1.61283 14.6363 1.5792 14.6699C1.54557 14.7035 1.50564 14.7302 1.4617 14.7484C1.41776 14.7666 1.37066 14.776 1.3231 14.7759ZM1.3231 13.0261C1.22705 13.0261 1.13493 12.9879 1.06701 12.92C0.999094 12.8521 0.960938 12.76 0.960938 12.6639V12.6153C0.960938 12.5192 0.999094 12.4271 1.06701 12.3592C1.13493 12.2913 1.22705 12.2531 1.3231 12.2531C1.41915 12.2531 1.51127 12.2913 1.57919 12.3592C1.64711 12.4271 1.68526 12.5192 1.68526 12.6153V12.6639C1.68528 12.7115 1.67592 12.7586 1.65772 12.8025C1.63953 12.8465 1.61285 12.8864 1.57922 12.92C1.54558 12.9537 1.50565 12.9803 1.46171 12.9985C1.41776 13.0167 1.37066 13.0261 1.3231 13.0261ZM1.3231 11.2763C1.22705 11.2763 1.13493 11.2381 1.06701 11.1702C0.999094 11.1023 0.960938 11.0102 0.960938 10.9141V10.8655C0.960938 10.7695 0.999094 10.6773 1.06701 10.6094C1.13493 10.5415 1.22705 10.5033 1.3231 10.5033C1.41915 10.5033 1.51127 10.5415 1.57919 10.6094C1.64711 10.6773 1.68526 10.7695 1.68526 10.8655V10.9141C1.68527 10.9617 1.67591 11.0088 1.65771 11.0527C1.63951 11.0967 1.61283 11.1366 1.5792 11.1702C1.54557 11.2039 1.50564 11.2305 1.4617 11.2487C1.41776 11.2669 1.37066 11.2763 1.3231 11.2763ZM22.6772 10.8157C22.5811 10.8157 22.489 10.7775 22.4211 10.7096C22.3532 10.6417 22.315 10.5496 22.315 10.4535V10.4049C22.315 10.3089 22.3532 10.2167 22.4211 10.1488C22.489 10.0809 22.5811 10.0427 22.6772 10.0427C22.7732 10.0427 22.8654 10.0809 22.9333 10.1488C23.0012 10.2167 23.0394 10.3089 23.0394 10.4049V10.4535C23.0393 10.5496 23.0012 10.6417 22.9333 10.7096C22.8653 10.7775 22.7732 10.8157 22.6772 10.8157ZM1.3231 9.52645C1.22705 9.52645 1.13493 9.4883 1.06701 9.42038C0.999094 9.35246 0.960938 9.26034 0.960938 9.16429V9.11568C0.960938 9.01963 0.999094 8.92751 1.06701 8.85959C1.13493 8.79167 1.22705 8.75352 1.3231 8.75352C1.41915 8.75352 1.51127 8.79167 1.57919 8.85959C1.64711 8.92751 1.68526 9.01963 1.68526 9.11568V9.16429C1.68528 9.21185 1.67592 9.25895 1.65772 9.3029C1.63953 9.34684 1.61285 9.38677 1.57922 9.4204C1.54558 9.45404 1.50565 9.48071 1.46171 9.49891C1.41776 9.51711 1.37066 9.52646 1.3231 9.52645ZM22.315 8.70523C22.3149 8.69559 22.3146 8.68594 22.314 8.67631C22.2858 8.1948 23.0369 8.12857 23.0393 8.70209C23.0395 8.74965 23.0304 8.79678 23.0123 8.8408C22.9943 8.88482 22.9678 8.92486 22.9344 8.95863C22.9009 8.99241 22.8611 9.01925 22.8172 9.03764C22.7733 9.05603 22.7263 9.0656 22.6787 9.0658C22.6312 9.06604 22.584 9.05689 22.54 9.0389C22.496 9.0209 22.4559 8.9944 22.4221 8.96091C22.3883 8.92742 22.3615 8.88761 22.3431 8.84374C22.3247 8.79986 22.3152 8.7528 22.315 8.70523ZM2.12126 8.20633C1.66122 8.20633 1.60393 7.49091 2.16284 7.47966C2.62864 7.46794 2.69357 8.20633 2.12126 8.20633ZM21.4182 8.20371H21.3696C21.2735 8.20371 21.1814 8.16555 21.1135 8.09763C21.0456 8.02971 21.0074 7.9376 21.0074 7.84154C21.0074 7.74549 21.0456 7.65338 21.1135 7.58546C21.1814 7.51754 21.2735 7.47938 21.3696 7.47938H21.4182C21.5142 7.47938 21.6064 7.51754 21.6743 7.58546C21.7422 7.65338 21.7804 7.74549 21.7804 7.84154C21.7804 7.9376 21.7422 8.02971 21.6743 8.09763C21.6064 8.16555 21.5142 8.20371 21.4182 8.20371ZM19.6684 8.20371H19.6198C19.5237 8.20371 19.4316 8.16555 19.3637 8.09763C19.2957 8.02971 19.2576 7.9376 19.2576 7.84154C19.2576 7.74549 19.2957 7.65338 19.3637 7.58546C19.4316 7.51754 19.5237 7.47938 19.6198 7.47938H19.6684C19.7644 7.47938 19.8565 7.51754 19.9245 7.58546C19.9924 7.65338 20.0305 7.74549 20.0305 7.84154C20.0305 7.9376 19.9924 8.02971 19.9245 8.09763C19.8565 8.16555 19.7644 8.20371 19.6684 8.20371ZM17.9185 8.20371H17.8699C17.7739 8.20371 17.6818 8.16555 17.6138 8.09763C17.5459 8.02971 17.5078 7.9376 17.5078 7.84154C17.5078 7.74549 17.5459 7.65338 17.6138 7.58546C17.6818 7.51754 17.7739 7.47938 17.8699 7.47938H17.9185C18.0146 7.47938 18.1067 7.51754 18.1746 7.58546C18.2425 7.65338 18.2807 7.74549 18.2807 7.84154C18.2807 7.9376 18.2425 8.02971 18.1746 8.09763C18.1067 8.16555 18.0146 8.20371 17.9185 8.20371ZM16.1687 8.20371H16.1201C16.024 8.20371 15.9319 8.16555 15.864 8.09763C15.7961 8.02971 15.7579 7.9376 15.7579 7.84154C15.7579 7.74549 15.7961 7.65338 15.864 7.58546C15.9319 7.51754 16.024 7.47938 16.1201 7.47938H16.1687C16.2648 7.47938 16.3569 7.51754 16.4248 7.58546C16.4927 7.65338 16.5309 7.74549 16.5309 7.84154C16.5309 7.9376 16.4927 8.02971 16.4248 8.09763C16.3569 8.16555 16.2648 8.20371 16.1687 8.20371ZM14.4189 8.20371H14.3703C14.2743 8.20371 14.1821 8.16555 14.1142 8.09763C14.0463 8.02971 14.0081 7.9376 14.0081 7.84154C14.0081 7.74549 14.0463 7.65338 14.1142 7.58546C14.1821 7.51754 14.2743 7.47938 14.3703 7.47938H14.4189C14.515 7.47938 14.6071 7.51754 14.675 7.58546C14.7429 7.65338 14.7811 7.74549 14.7811 7.84154C14.7811 7.9376 14.7429 8.02971 14.675 8.09763C14.6071 8.16555 14.515 8.20371 14.4189 8.20371ZM12.6691 8.20371H12.6205C12.5244 8.20371 12.4323 8.16555 12.3644 8.09763C12.2965 8.02971 12.2583 7.9376 12.2583 7.84154C12.2583 7.74549 12.2965 7.65338 12.3644 7.58546C12.4323 7.51754 12.5244 7.47938 12.6205 7.47938H12.6691C12.7651 7.47938 12.8573 7.51754 12.9252 7.58546C12.9931 7.65338 13.0313 7.74549 13.0313 7.84154C13.0313 7.9376 12.9931 8.02971 12.9252 8.09763C12.8573 8.16555 12.7651 8.20371 12.6691 8.20371ZM10.9193 8.20371H10.8707C10.7746 8.20371 10.6825 8.16555 10.6146 8.09763C10.5467 8.02971 10.5085 7.9376 10.5085 7.84154C10.5085 7.74549 10.5467 7.65338 10.6146 7.58546C10.6825 7.51754 10.7746 7.47938 10.8707 7.47938H10.9193C11.0154 7.47938 11.1075 7.51754 11.1754 7.58546C11.2433 7.65338 11.2815 7.74549 11.2815 7.84154C11.2815 7.9376 11.2433 8.02971 11.1754 8.09763C11.1075 8.16555 11.0154 8.20371 10.9193 8.20371ZM9.16943 8.20371H9.12082C9.02476 8.20371 8.93265 8.16555 8.86473 8.09763C8.79681 8.02971 8.75865 7.9376 8.75865 7.84154C8.75865 7.35858 9.53159 7.35708 9.53159 7.84154C9.5316 7.88911 9.52223 7.9362 9.50403 7.98015C9.48584 8.02409 9.45916 8.06401 9.42553 8.09765C9.3919 8.13128 9.35197 8.15795 9.30803 8.17615C9.26408 8.19435 9.21699 8.20371 9.16943 8.20371ZM7.41959 8.20371H7.37098C7.27493 8.20371 7.18282 8.16555 7.1149 8.09763C7.04698 8.02971 7.00882 7.9376 7.00882 7.84154C7.00882 7.74549 7.04698 7.65338 7.1149 7.58546C7.18282 7.51754 7.27493 7.47938 7.37098 7.47938H7.41959C7.51565 7.47938 7.60776 7.51754 7.67568 7.58546C7.7436 7.65338 7.78176 7.74549 7.78176 7.84154C7.78176 7.9376 7.7436 8.02971 7.67568 8.09763C7.60776 8.16555 7.51565 8.20371 7.41959 8.20371ZM5.66981 8.20371H5.6212C5.52515 8.20371 5.43303 8.16555 5.36511 8.09763C5.29719 8.02971 5.25904 7.9376 5.25904 7.84154C5.25904 7.74549 5.29719 7.65338 5.36511 7.58546C5.43303 7.51754 5.52515 7.47938 5.6212 7.47938H5.66981C5.76586 7.47938 5.85798 7.51754 5.9259 7.58546C5.99382 7.65338 6.03197 7.74549 6.03197 7.84154C6.03197 7.9376 5.99382 8.02971 5.9259 8.09763C5.85798 8.16555 5.76586 8.20371 5.66981 8.20371ZM3.91993 8.20371H3.87132C3.77527 8.20371 3.68315 8.16555 3.61523 8.09763C3.54732 8.02971 3.50916 7.9376 3.50916 7.84154C3.50916 7.74549 3.54732 7.65338 3.61523 7.58546C3.68315 7.51754 3.77527 7.47938 3.87132 7.47938H3.91993C4.01598 7.47938 4.1081 7.51754 4.17602 7.58546C4.24394 7.65338 4.2821 7.74549 4.2821 7.84154C4.2821 7.9376 4.24394 8.02971 4.17602 8.09763C4.1081 8.16555 4.01598 8.20371 3.91993 8.20371Z" fill="#EAB883"/>
</g>
<defs>
<clipPath id="clip0_26_809">
<rect width="24" height="24" fill="white"/>
</clipPath>
</defs>
</svg>
