<svg width="24" height="24" viewBox="0 0 24 24" fill="none" xmlns="http://www.w3.org/2000/svg">
<path d="M8.40176 19.2766C5.38769 19.2766 2.94434 18.4621 2.94434 17.4575V15.6383H13.8592V17.4575C13.8592 18.4621 11.4158 19.2766 8.40176 19.2766Z" fill="#ECAB2C"/>
<path d="M8.40176 19.2766C5.38769 19.2766 2.94434 18.4621 2.94434 17.4575V15.6383H13.8592V17.4575C13.8592 18.4621 11.4158 19.2766 8.40176 19.2766Z" fill="#ECAB2C"/>
<path d="M13.8591 15.6384V17.4576C13.8591 17.7998 13.5755 18.12 13.0819 18.3937C12.0756 17.7385 11.3129 16.7703 10.9116 15.6384H13.8591Z" fill="#D78E0C"/>
<path d="M12.415 17.0026V18.6901C12.1691 18.7783 11.9188 18.8537 11.665 18.916V17.0026C11.665 16.9031 11.7045 16.8077 11.7749 16.7374C11.8452 16.6671 11.9406 16.6276 12.04 16.6276C12.1395 16.6276 12.2349 16.6671 12.3052 16.7374C12.3755 16.8077 12.415 16.9031 12.415 17.0026Z" fill="#D78E0C"/>
<path d="M5.13867 17.0026V18.916C4.88493 18.8537 4.63459 18.7783 4.38867 18.6901V17.0026C4.38867 16.9031 4.42818 16.8077 4.49851 16.7374C4.56883 16.6671 4.66422 16.6276 4.76367 16.6276C4.86313 16.6276 4.95851 16.6671 5.02884 16.7374C5.09916 16.8077 5.13867 16.9031 5.13867 17.0026ZM6.95789 17.2233V19.2123C6.69961 19.1888 6.44961 19.1591 6.20789 19.1232V17.2233C6.20789 17.1239 6.2474 17.0285 6.31773 16.9582C6.38805 16.8879 6.48343 16.8483 6.58289 16.8483C6.68235 16.8483 6.77773 16.8879 6.84806 16.9582C6.91838 17.0285 6.95789 17.1239 6.95789 17.2233ZM8.77664 17.4577V19.2723C8.65289 19.2751 8.52789 19.2765 8.40164 19.2765C8.27539 19.2765 8.15039 19.2751 8.02664 19.2723V17.4577C8.02664 17.3583 8.06615 17.2629 8.13648 17.1926C8.2068 17.1222 8.30218 17.0827 8.40164 17.0827C8.5011 17.0827 8.59648 17.1222 8.66681 17.1926C8.73713 17.2629 8.77664 17.3583 8.77664 17.4577ZM10.5959 17.2702V19.1232C10.3545 19.1588 10.1045 19.1885 9.84586 19.2123V17.2702C9.84586 17.1708 9.88537 17.0754 9.95569 17.0051C10.026 16.9347 10.1214 16.8952 10.2209 16.8952C10.3203 16.8952 10.4157 16.9347 10.486 17.0051C10.5564 17.0754 10.5959 17.1708 10.5959 17.2702Z" fill="#ECAB2C"/>
<path d="M5.13867 17.0026V18.916C4.88493 18.8537 4.63459 18.7783 4.38867 18.6901V17.0026C4.38867 16.9031 4.42818 16.8077 4.49851 16.7374C4.56883 16.6671 4.66422 16.6276 4.76367 16.6276C4.86313 16.6276 4.95851 16.6671 5.02884 16.7374C5.09916 16.8077 5.13867 16.9031 5.13867 17.0026ZM6.95789 17.2233V19.2123C6.69961 19.1888 6.44961 19.1591 6.20789 19.1232V17.2233C6.20789 17.1239 6.2474 17.0285 6.31773 16.9582C6.38805 16.8879 6.48343 16.8483 6.58289 16.8483C6.68235 16.8483 6.77773 16.8879 6.84806 16.9582C6.91838 17.0285 6.95789 17.1239 6.95789 17.2233ZM8.77664 17.4577V19.2723C8.65289 19.2751 8.52789 19.2765 8.40164 19.2765C8.27539 19.2765 8.15039 19.2751 8.02664 19.2723V17.4577C8.02664 17.3583 8.06615 17.2629 8.13648 17.1926C8.2068 17.1222 8.30218 17.0827 8.40164 17.0827C8.5011 17.0827 8.59648 17.1222 8.66681 17.1926C8.73713 17.2629 8.77664 17.3583 8.77664 17.4577ZM10.5959 17.2702V19.1232C10.3545 19.1588 10.1045 19.1885 9.84586 19.2123V17.2702C9.84586 17.1708 9.88537 17.0754 9.95569 17.0051C10.026 16.9347 10.1214 16.8952 10.2209 16.8952C10.3203 16.8952 10.4157 16.9347 10.486 17.0051C10.5564 17.0754 10.5959 17.1708 10.5959 17.2702Z" fill="#D78E0C"/>
<path d="M8.4018 17.4574C11.4159 17.4574 13.8593 16.643 13.8593 15.6383C13.8593 14.6336 11.4159 13.8191 8.4018 13.8191C5.38773 13.8191 2.94434 14.6336 2.94434 15.6383C2.94434 16.643 5.38773 17.4574 8.4018 17.4574Z" fill="#FFC864"/>
<path d="M13.8592 15.6385C13.8592 16.2324 13.0051 16.7597 11.6842 17.0921C11.006 16.1906 10.6257 15.1002 10.5962 13.9725C12.5176 14.2538 13.8592 14.8936 13.8592 15.6385Z" fill="#E8B65B"/>
<path d="M13.8592 15.6385C13.8592 16.2324 13.0051 16.7597 11.6842 17.0921C11.006 16.1906 10.6257 15.1002 10.5962 13.9725C12.5176 14.2538 13.8592 14.8936 13.8592 15.6385Z" fill="#E8B65B"/>
<path d="M6.58926 16.0981C3.5752 16.0981 1.13184 15.2836 1.13184 14.279V12.4598H12.0467V14.279C12.0467 15.2836 9.60337 16.0981 6.58926 16.0981Z" fill="#ECAB2C"/>
<path d="M6.58926 16.0981C3.5752 16.0981 1.13184 15.2836 1.13184 14.279V12.4598H12.0467V14.279C12.0467 15.2836 9.60337 16.0981 6.58926 16.0981Z" fill="#ECAB2C"/>
<path d="M12.0469 12.4598V14.2791C12.0469 14.7127 11.5922 15.1106 10.8333 15.4228C10.5391 14.4601 10.5154 13.4351 10.7648 12.4598H12.0469Z" fill="#D78E0C"/>
<path d="M10.6025 13.824V15.5115C10.3566 15.5997 10.1063 15.6751 9.85254 15.7375V13.824C9.85254 13.7245 9.89205 13.6291 9.96237 13.5588C10.0327 13.4885 10.1281 13.449 10.2275 13.449C10.327 13.449 10.4224 13.4885 10.4927 13.5588C10.563 13.6291 10.6025 13.7245 10.6025 13.824Z" fill="#D78E0C"/>
<path d="M3.32617 13.824V15.7375C3.07242 15.6752 2.82208 15.5998 2.57617 15.5115V13.824C2.57617 13.7245 2.61568 13.6291 2.68601 13.5588C2.75633 13.4885 2.85172 13.449 2.95117 13.449C3.05063 13.449 3.14601 13.4885 3.21634 13.5588C3.28666 13.6291 3.32617 13.7245 3.32617 13.824ZM5.14534 14.0448V16.0337C4.88706 16.0102 4.63706 15.9805 4.39534 15.9446V14.0448C4.39534 13.9453 4.43485 13.8499 4.50518 13.7796C4.5755 13.7093 4.67089 13.6698 4.77034 13.6698C4.8698 13.6698 4.96518 13.7093 5.03551 13.7796C5.10584 13.8499 5.14534 13.9453 5.14534 14.0448ZM6.96409 14.2791V16.0937C6.84041 16.0965 6.71541 16.0979 6.58909 16.0979C6.46278 16.0979 6.33778 16.0965 6.21409 16.0937V14.2791C6.21409 14.1797 6.2536 14.0843 6.32393 14.014C6.39425 13.9436 6.48964 13.9041 6.58909 13.9041C6.68855 13.9041 6.78393 13.9436 6.85426 14.014C6.92458 14.0843 6.96409 14.1797 6.96409 14.2791ZM8.78331 14.0916V15.9446C8.54194 15.9802 8.29194 16.0099 8.03331 16.0337V14.0916C8.03331 13.9922 8.07282 13.8968 8.14315 13.8265C8.21347 13.7561 8.30886 13.7166 8.40831 13.7166C8.50777 13.7166 8.60315 13.7561 8.67348 13.8265C8.7438 13.8968 8.78331 13.9922 8.78331 14.0916Z" fill="#ECAB2C"/>
<path d="M3.32617 13.824V15.7375C3.07242 15.6752 2.82208 15.5998 2.57617 15.5115V13.824C2.57617 13.7245 2.61568 13.6291 2.68601 13.5588C2.75633 13.4885 2.85172 13.449 2.95117 13.449C3.05063 13.449 3.14601 13.4885 3.21634 13.5588C3.28666 13.6291 3.32617 13.7245 3.32617 13.824ZM5.14534 14.0448V16.0337C4.88706 16.0102 4.63706 15.9805 4.39534 15.9446V14.0448C4.39534 13.9453 4.43485 13.8499 4.50518 13.7796C4.5755 13.7093 4.67089 13.6698 4.77034 13.6698C4.8698 13.6698 4.96518 13.7093 5.03551 13.7796C5.10584 13.8499 5.14534 13.9453 5.14534 14.0448ZM6.96409 14.2791V16.0937C6.84041 16.0965 6.71541 16.0979 6.58909 16.0979C6.46278 16.0979 6.33778 16.0965 6.21409 16.0937V14.2791C6.21409 14.1797 6.2536 14.0843 6.32393 14.014C6.39425 13.9436 6.48964 13.9041 6.58909 13.9041C6.68855 13.9041 6.78393 13.9436 6.85426 14.014C6.92458 14.0843 6.96409 14.1797 6.96409 14.2791ZM8.78331 14.0916V15.9446C8.54194 15.9802 8.29194 16.0099 8.03331 16.0337V14.0916C8.03331 13.9922 8.07282 13.8968 8.14315 13.8265C8.21347 13.7561 8.30886 13.7166 8.40831 13.7166C8.50777 13.7166 8.60315 13.7561 8.67348 13.8265C8.7438 13.8968 8.78331 13.9922 8.78331 14.0916Z" fill="#D78E0C"/>
<path d="M6.5893 14.279C9.60338 14.279 12.0468 13.4645 12.0468 12.4598C12.0468 11.4551 9.60338 10.6406 6.5893 10.6406C3.57523 10.6406 1.13184 11.4551 1.13184 12.4598C1.13184 13.4645 3.57523 14.279 6.5893 14.279Z" fill="#FFC864"/>
<path d="M12.0469 12.4598C12.0469 12.9366 11.4962 13.3711 10.5952 13.695C10.604 13.2781 10.661 12.8637 10.7649 12.4598H12.0469Z" fill="#FFC864"/>
<path d="M12.0469 12.4598C12.0469 12.9366 11.4962 13.3711 10.5952 13.695C10.604 13.2781 10.661 12.8637 10.7649 12.4598H12.0469Z" fill="#E8B65B"/>
<path d="M8.4015 13.3505C5.38744 13.3505 2.94385 12.536 2.94385 11.5313V9.71216H13.859V11.5313C13.859 12.536 11.4156 13.3505 8.4015 13.3505Z" fill="#ECAB2C"/>
<path d="M8.4015 13.3505C5.38744 13.3505 2.94385 12.536 2.94385 11.5313V9.71216H13.859V11.5313C13.859 12.536 11.4156 13.3505 8.4015 13.3505Z" fill="#ECAB2C"/>
<path d="M13.8591 9.71204V11.5313C13.8591 12.2714 12.533 12.9084 10.6299 13.1925C10.7844 11.8452 11.4361 10.6041 12.4575 9.71204H13.8591Z" fill="#D78E0C"/>
<path d="M12.4146 11.0763V12.7638C12.1686 12.852 11.9183 12.9274 11.6646 12.9898V11.0763C11.6646 10.9768 11.7041 10.8815 11.7744 10.8111C11.8447 10.7408 11.9401 10.7013 12.0396 10.7013C12.139 10.7013 12.2344 10.7408 12.3047 10.8111C12.375 10.8815 12.4146 10.9768 12.4146 11.0763Z" fill="#D78E0C"/>
<path d="M5.13818 11.0763V12.9898C4.88444 12.9275 4.6341 12.8521 4.38818 12.7638V11.0763C4.38818 10.9768 4.42769 10.8815 4.49802 10.8111C4.56834 10.7408 4.66373 10.7013 4.76318 10.7013C4.86264 10.7013 4.95802 10.7408 5.02835 10.8111C5.09868 10.8815 5.13818 10.9768 5.13818 11.0763ZM6.9574 11.2969V13.2858C6.69912 13.2624 6.44912 13.2327 6.2074 13.1967V11.2969C6.2074 11.1974 6.24691 11.102 6.31724 11.0317C6.38756 10.9614 6.48295 10.9219 6.5824 10.9219C6.68186 10.9219 6.77724 10.9614 6.84757 11.0317C6.91789 11.102 6.9574 11.1974 6.9574 11.2969ZM8.77615 11.5313V13.3458C8.6524 13.3486 8.5274 13.35 8.40115 13.35C8.2749 13.35 8.1499 13.3486 8.02615 13.3458V11.5313C8.02615 11.4318 8.06566 11.3364 8.13599 11.2661C8.20631 11.1958 8.3017 11.1563 8.40115 11.1563C8.50061 11.1563 8.59599 11.1958 8.66632 11.2661C8.73664 11.3364 8.77615 11.4318 8.77615 11.5313ZM10.5954 11.3438V13.1967C10.354 13.2324 10.104 13.262 9.84537 13.2858V11.3438C9.84537 11.2443 9.88488 11.1489 9.95521 11.0786C10.0255 11.0083 10.1209 10.9688 10.2204 10.9688C10.3198 10.9688 10.4152 11.0083 10.4855 11.0786C10.5559 11.1489 10.5954 11.2443 10.5954 11.3438Z" fill="#ECAB2C"/>
<path d="M5.13818 11.0763V12.9898C4.88444 12.9275 4.6341 12.8521 4.38818 12.7638V11.0763C4.38818 10.9768 4.42769 10.8815 4.49802 10.8111C4.56834 10.7408 4.66373 10.7013 4.76318 10.7013C4.86264 10.7013 4.95802 10.7408 5.02835 10.8111C5.09868 10.8815 5.13818 10.9768 5.13818 11.0763ZM6.9574 11.2969V13.2858C6.69912 13.2624 6.44912 13.2327 6.2074 13.1967V11.2969C6.2074 11.1974 6.24691 11.102 6.31724 11.0317C6.38756 10.9614 6.48295 10.9219 6.5824 10.9219C6.68186 10.9219 6.77724 10.9614 6.84757 11.0317C6.91789 11.102 6.9574 11.1974 6.9574 11.2969ZM8.77615 11.5313V13.3458C8.6524 13.3486 8.5274 13.35 8.40115 13.35C8.2749 13.35 8.1499 13.3486 8.02615 13.3458V11.5313C8.02615 11.4318 8.06566 11.3364 8.13599 11.2661C8.20631 11.1958 8.3017 11.1563 8.40115 11.1563C8.50061 11.1563 8.59599 11.1958 8.66632 11.2661C8.73664 11.3364 8.77615 11.4318 8.77615 11.5313ZM10.5954 11.3438V13.1967C10.354 13.2324 10.104 13.262 9.84537 13.2858V11.3438C9.84537 11.2443 9.88488 11.1489 9.95521 11.0786C10.0255 11.0083 10.1209 10.9688 10.2204 10.9688C10.3198 10.9688 10.4152 11.0083 10.4855 11.0786C10.5559 11.1489 10.5954 11.2443 10.5954 11.3438Z" fill="#D78E0C"/>
<path d="M8.40132 11.5313C11.4154 11.5313 13.8588 10.7168 13.8588 9.71212C13.8588 8.70741 11.4154 7.89294 8.40132 7.89294C5.38724 7.89294 2.94385 8.70741 2.94385 9.71212C2.94385 10.7168 5.38724 11.5313 8.40132 11.5313Z" fill="#FFC864"/>
<path d="M13.859 9.71202C13.859 10.372 12.8038 10.95 11.2251 11.2692C11.7296 10.3173 12.5034 9.53503 13.4498 9.02014C13.7137 9.23295 13.859 9.46686 13.859 9.71202Z" fill="#E8B65B"/>
<path d="M13.859 9.71202C13.859 10.372 12.8038 10.95 11.2251 11.2692C11.7296 10.3173 12.5034 9.53503 13.4498 9.02014C13.7137 9.23295 13.859 9.46686 13.859 9.71202Z" fill="#E8B65B"/>
<path d="M6.58247 10.1954C3.56836 10.1954 1.125 9.38093 1.125 8.37625V6.55713H12.0399V8.37625C12.0399 9.38093 9.59653 10.1954 6.58247 10.1954" fill="#ECAB2C"/>
<path d="M6.58247 10.1954C3.56836 10.1954 1.125 9.38093 1.125 8.37625V6.55713H12.0399V8.37625C12.0399 9.38093 9.59653 10.1954 6.58247 10.1954V10.1954Z" fill="#ECAB2C"/>
<path d="M10.5957 7.92126V9.60876C10.3498 9.69699 10.0994 9.77242 9.8457 9.83475V7.92126C9.8457 7.82181 9.88521 7.72643 9.95554 7.6561C10.0259 7.58577 10.1212 7.54626 10.2207 7.54626C10.3202 7.54626 10.4155 7.58577 10.4859 7.6561C10.5562 7.72643 10.5957 7.82181 10.5957 7.92126Z" fill="#D78E0C"/>
<path d="M3.31934 7.92126V9.83475C3.06558 9.7725 2.81524 9.69707 2.56934 9.60876V7.92126C2.56934 7.82181 2.60884 7.72643 2.67917 7.6561C2.7495 7.58577 2.84488 7.54626 2.94434 7.54626C3.04379 7.54626 3.13917 7.58577 3.2095 7.6561C3.27983 7.72643 3.31934 7.82181 3.31934 7.92126ZM5.13851 8.14223V10.1311C4.88023 10.1077 4.63023 10.078 4.38851 10.0421V8.14223C4.38851 8.04278 4.42802 7.9474 4.49834 7.87707C4.56867 7.80674 4.66405 7.76723 4.76351 7.76723C4.86296 7.76723 4.95835 7.80674 5.02867 7.87707C5.099 7.9474 5.13851 8.04278 5.13851 8.14223ZM6.95726 8.37661V10.1912C6.83357 10.1939 6.70857 10.1953 6.58226 10.1954C6.45595 10.1954 6.33095 10.194 6.20726 10.1912V8.37661C6.20726 8.27715 6.24677 8.18177 6.31709 8.11144C6.38742 8.04112 6.4828 8.00161 6.58226 8.00161C6.68171 8.00161 6.7771 8.04112 6.84742 8.11144C6.91775 8.18177 6.95726 8.27715 6.95726 8.37661ZM8.77652 8.18911V10.0421C8.53512 10.0777 8.28512 10.1074 8.02652 10.1311V8.18911C8.02652 8.08965 8.06603 7.99427 8.13636 7.92394C8.20669 7.85362 8.30207 7.81411 8.40152 7.81411C8.50098 7.81411 8.59636 7.85362 8.66669 7.92394C8.73701 7.99427 8.77652 8.08965 8.77652 8.18911Z" fill="#ECAB2C"/>
<path d="M3.31934 7.92126V9.83475C3.06558 9.7725 2.81524 9.69707 2.56934 9.60876V7.92126C2.56934 7.82181 2.60884 7.72643 2.67917 7.6561C2.7495 7.58577 2.84488 7.54626 2.94434 7.54626C3.04379 7.54626 3.13917 7.58577 3.2095 7.6561C3.27983 7.72643 3.31934 7.82181 3.31934 7.92126ZM5.13851 8.14223V10.1311C4.88023 10.1077 4.63023 10.078 4.38851 10.0421V8.14223C4.38851 8.04278 4.42802 7.9474 4.49834 7.87707C4.56867 7.80674 4.66405 7.76723 4.76351 7.76723C4.86296 7.76723 4.95835 7.80674 5.02867 7.87707C5.099 7.9474 5.13851 8.04278 5.13851 8.14223ZM6.95726 8.37661V10.1912C6.83357 10.1939 6.70857 10.1953 6.58226 10.1954C6.45595 10.1954 6.33095 10.194 6.20726 10.1912V8.37661C6.20726 8.27715 6.24677 8.18177 6.31709 8.11144C6.38742 8.04112 6.4828 8.00161 6.58226 8.00161C6.68171 8.00161 6.7771 8.04112 6.84742 8.11144C6.91775 8.18177 6.95726 8.27715 6.95726 8.37661ZM8.77652 8.18911V10.0421C8.53512 10.0777 8.28512 10.1074 8.02652 10.1311V8.18911C8.02652 8.08965 8.06603 7.99427 8.13636 7.92394C8.20669 7.85362 8.30207 7.81411 8.40152 7.81411C8.50098 7.81411 8.59636 7.85362 8.66669 7.92394C8.73701 7.99427 8.77652 8.08965 8.77652 8.18911Z" fill="#D78E0C"/>
<path d="M6.58247 8.37626C9.59655 8.37626 12.0399 7.56179 12.0399 6.55709C12.0399 5.55239 9.59655 4.73792 6.58247 4.73792C3.56839 4.73792 1.125 5.55239 1.125 6.55709C1.125 7.56179 3.56839 8.37626 6.58247 8.37626Z" fill="#FFC864"/>
<path d="M17.0424 19.2766C20.0565 19.2766 22.4999 16.8332 22.4999 13.8192C22.4999 10.8051 20.0565 8.36169 17.0424 8.36169C14.0284 8.36169 11.585 10.8051 11.585 13.8192C11.585 16.8332 14.0284 19.2766 17.0424 19.2766Z" fill="#ECAB2C"/>
<path d="M17.0426 17.4575C19.052 17.4575 20.6809 15.8286 20.6809 13.8192C20.6809 11.8098 19.052 10.1809 17.0426 10.1809C15.0332 10.1809 13.4043 11.8098 13.4043 13.8192C13.4043 15.8286 15.0332 17.4575 17.0426 17.4575Z" fill="#FFC864"/>
<path d="M18.5204 14.6662V13.0024L17.0796 12.1705L15.6387 13.0024V14.6662L17.0796 15.4981L18.5204 14.6662Z" fill="#ECAB2C"/>
</svg>
