<svg width="24" height="24" viewBox="0 0 24 24" fill="none" xmlns="http://www.w3.org/2000/svg">
<g clip-path="url(#clip0_26_848)">
<path fill-rule="evenodd" clip-rule="evenodd" d="M11.9999 0.239502C18.6327 0.239502 23.9974 4.87964 23.9974 10.6067V13.4911C23.1474 27.1886 0.852436 27.2025 0.00244141 13.4632V10.6067C0.00244141 4.87964 5.38113 0.239502 11.9999 0.239502Z" fill="#855A19"/>
<path fill-rule="evenodd" clip-rule="evenodd" d="M1.08887 14.9263C1.49298 16.8492 2.38475 18.4238 3.59708 19.6361V18.0058C2.56591 17.1279 1.70197 16.0828 1.08887 14.9263ZM4.50279 20.4443C4.78146 20.6672 5.08801 20.8762 5.39456 21.0713V19.2599C5.08801 19.0787 4.78146 18.8976 4.50279 18.6885V20.4443ZM6.30034 21.573C7.63805 22.2418 9.12899 22.6598 10.6479 22.8131V20.9041C9.08721 20.7508 7.62411 20.3467 6.30034 19.7336V21.573ZM11.5536 22.8689C11.8462 22.8828 12.1527 22.8828 12.4454 22.8689V20.9599C12.306 20.9739 12.1527 20.9739 11.9995 20.9739C11.8462 20.9739 11.6929 20.9739 11.5536 20.9599V22.8689ZM13.3511 22.8131C14.87 22.6598 16.3609 22.2418 17.6987 21.573V19.7336C16.3888 20.3467 14.9118 20.7508 13.3511 20.9041V22.8131ZM18.6044 21.0713C18.9109 20.8763 19.2175 20.6672 19.5101 20.4443V18.6886C19.2175 18.8976 18.9109 19.0787 18.6044 19.2599V21.0713ZM20.4019 19.65C21.6141 18.4238 22.5199 16.8492 22.9101 14.9263C22.297 16.0828 21.433 17.1279 20.4019 18.0058V19.65Z" fill="#F7BE68"/>
<path fill-rule="evenodd" clip-rule="evenodd" d="M11.9997 1.13135C18.1308 1.13135 23.1054 5.36738 23.1054 10.6067C23.1054 15.8321 18.1308 20.0821 11.9997 20.0821C5.86863 20.0821 0.894043 15.8321 0.894043 10.6067C0.894043 5.36744 5.86857 1.13135 11.9997 1.13135ZM11.9997 2.02318C17.6431 2.02318 22.2136 5.86904 22.2136 10.6067C22.2136 15.3444 17.6431 19.1903 11.9997 19.1903C6.35629 19.1903 1.78581 15.3444 1.78581 10.6067C1.78581 5.86904 6.35629 2.02318 11.9997 2.02318Z" fill="#F7BE68"/>
<path fill-rule="evenodd" clip-rule="evenodd" d="M11.9996 2.91504C17.1414 2.91504 21.3217 6.35685 21.3217 10.6068C21.3217 14.8429 17.1414 18.2847 11.9996 18.2847C6.85777 18.2847 2.69141 14.8429 2.69141 10.6068C2.69141 6.35685 6.85777 2.91504 11.9996 2.91504ZM8.52993 12.7249C8.59292 12.6624 8.67807 12.6273 8.76682 12.6273H16.9742C17.1274 12.6273 17.1971 12.8085 17.0995 12.9199L15.4692 14.5363C15.4135 14.606 15.3299 14.6339 15.2323 14.6339H7.02499C6.87172 14.6339 6.80205 14.4527 6.89961 14.3552L8.52993 12.7249ZM8.52993 6.67735C8.58565 6.60769 8.68321 6.5798 8.76682 6.5798H16.9742C17.1274 6.5798 17.1971 6.76096 17.0995 6.85846L15.4692 8.48878C15.4062 8.5513 15.3211 8.58636 15.2323 8.58634H7.02499C6.87172 8.58634 6.80205 8.40517 6.89961 8.29373L8.52993 6.67735ZM15.4692 9.67322C15.4062 9.61071 15.3211 9.57565 15.2323 9.57567H7.02499C6.87172 9.57567 6.80205 9.75684 6.89961 9.86828L8.52993 11.4847C8.58565 11.5543 8.66926 11.5962 8.76682 11.5962H16.9742C17.1274 11.5962 17.1971 11.415 17.0995 11.3035L15.4692 9.67322Z" fill="#F7BE68"/>
</g>
<defs>
<clipPath id="clip0_26_848">
<rect width="24" height="24" fill="white"/>
</clipPath>
</defs>
</svg>
