<svg width="166" height="35" viewBox="0 0 166 35" fill="none" xmlns="http://www.w3.org/2000/svg">
<path d="M26.3607 23.0158L25.8424 29.0406C25.8273 29.2167 25.6568 29.3364 25.486 29.2907L16.834 26.9791C16.6635 26.9336 16.5753 26.7453 16.6495 26.5851L19.1092 21.2774C19.166 21.1548 19.3013 21.0892 19.4327 21.1204L26.1433 22.715C26.2803 22.7475 26.3728 22.8755 26.3607 23.0158Z" fill="#FBC052"/>
<path fill-rule="evenodd" clip-rule="evenodd" d="M19.0445 21.2475C19.1156 21.0943 19.2846 21.0122 19.4489 21.0513L26.1595 22.6459C26.3307 22.6866 26.4464 22.8465 26.4313 23.0219L25.913 29.0467C25.8941 29.2668 25.6809 29.4164 25.4674 29.3594L16.8154 27.0478C16.6023 26.9908 16.4921 26.7554 16.5849 26.5553L19.0445 21.2475ZM19.4161 21.1895C19.3175 21.1661 19.2161 21.2153 19.1735 21.3073L16.7138 26.615C16.6581 26.7351 16.7242 26.8763 16.8521 26.9105L25.5041 29.2221C25.6322 29.2563 25.7601 29.1666 25.7715 29.0345L26.2897 23.0097C26.2988 22.9045 26.2294 22.8085 26.1267 22.7841L19.4161 21.1895Z" fill="#FBC052"/>
<path d="M17.0435 20.8222L16.335 26.4257C16.3133 26.5969 16.1453 26.7095 15.9787 26.6643L8.24117 24.566C8.0697 24.5195 7.98248 24.3288 8.05943 24.1687L10.4406 19.2132C10.4985 19.0927 10.6327 19.0288 10.7628 19.0599L16.8276 20.5102C16.9686 20.5439 17.0616 20.6784 17.0435 20.8222Z" fill="#FBC052"/>
<path fill-rule="evenodd" clip-rule="evenodd" d="M10.3773 19.1825C10.4498 19.0318 10.6175 18.952 10.7801 18.9909L16.8449 20.4411C17.0212 20.4833 17.1374 20.6514 17.1147 20.8311L16.4062 26.4346C16.3792 26.6487 16.1691 26.7893 15.9609 26.7329L8.22334 24.6346C8.00901 24.5764 7.89997 24.3381 7.99616 24.1379L10.3773 19.1825ZM10.7471 19.129C10.6495 19.1057 10.5489 19.1536 10.5054 19.244L8.12422 24.1995C8.06651 24.3196 8.13193 24.4626 8.26053 24.4974L15.9981 26.5958C16.123 26.6296 16.249 26.5452 16.2653 26.4168L16.9737 20.8133C16.9874 20.7055 16.9176 20.6046 16.8119 20.5793L10.7471 19.129Z" fill="#FBC052"/>
<path d="M8.5174 18.8368L7.81267 24.1543C7.79007 24.3249 7.62223 24.4364 7.45622 24.3911L0.280814 22.4342C0.110915 22.3878 0.0236429 22.1997 0.0979954 22.0401L2.27393 17.3682C2.33055 17.2466 2.46447 17.1812 2.59518 17.2112L8.29937 18.5225C8.44222 18.5554 8.53666 18.6915 8.5174 18.8368Z" fill="#FBC052"/>
<path fill-rule="evenodd" clip-rule="evenodd" d="M2.20932 17.3381C2.2801 17.1861 2.4475 17.1043 2.61088 17.1419L8.31507 18.4532C8.49364 18.4942 8.61168 18.6644 8.58761 18.846L7.88288 24.1635C7.85462 24.3767 7.64482 24.5161 7.43731 24.4595L0.261907 22.5026C0.0495319 22.4447 -0.0595575 22.2095 0.0333829 22.0099L2.20932 17.3381ZM2.57905 17.2803C2.48102 17.2578 2.38058 17.3069 2.33811 17.3981L0.162175 22.0699C0.106411 22.1897 0.171865 22.3308 0.29929 22.3655L7.47469 24.3224C7.5992 24.3564 7.72508 24.2728 7.74203 24.1448L8.44676 18.8273C8.4612 18.7184 8.39038 18.6163 8.28324 18.5917L2.57905 17.2803Z" fill="#FBC052"/>
<path d="M21.5217 15.5654L20.8775 21.1054C20.8579 21.274 20.6958 21.388 20.5305 21.3492L12.0925 19.3716C11.9156 19.3301 11.8225 19.1355 11.9013 18.9718L14.3488 13.8834C14.4064 13.7637 14.5392 13.6999 14.6686 13.7297L21.3032 15.2556C21.4443 15.2881 21.5385 15.4215 21.5217 15.5654Z" fill="#FBC052"/>
<path fill-rule="evenodd" clip-rule="evenodd" d="M14.2846 13.8526C14.3566 13.703 14.5225 13.6232 14.6843 13.6604L21.3189 15.1864C21.4953 15.227 21.613 15.3937 21.5921 15.5736L20.9479 21.1136C20.9234 21.3244 20.7207 21.4668 20.514 21.4184L12.0761 19.4407C11.8549 19.3889 11.7386 19.1457 11.8371 18.941L14.2846 13.8526ZM14.6525 13.7989C14.5554 13.7766 14.4558 13.8245 14.4127 13.9142L11.9651 19.0025C11.906 19.1254 11.9758 19.2713 12.1085 19.3024L20.5465 21.2801C20.6704 21.3091 20.7921 21.2237 20.8068 21.0972L21.451 15.5572C21.4635 15.4493 21.3929 15.3492 21.287 15.3249L14.6525 13.7989Z" fill="#FBC052"/>
<path d="M12.4252 13.5064L11.7176 18.9102C11.6958 19.0762 11.5359 19.1876 11.3726 19.1503L3.9223 17.4511C3.74562 17.4108 3.6513 17.2177 3.72816 17.0536L6.10892 11.9703C6.16608 11.8483 6.30112 11.7831 6.43221 11.8144L12.2094 13.1931C12.351 13.2269 12.4441 13.3621 12.4252 13.5064Z" fill="#FBC052"/>
<path fill-rule="evenodd" clip-rule="evenodd" d="M6.04438 11.9402C6.11583 11.7876 6.28462 11.7062 6.44849 11.7453L12.2257 13.124C12.4026 13.1662 12.5191 13.3353 12.4954 13.5156L11.7878 18.9194C11.7606 19.127 11.5607 19.2661 11.3566 19.2196L3.9063 17.5204C3.68545 17.47 3.56754 17.2286 3.66362 17.0234L6.04438 11.9402ZM6.41551 11.8835C6.31719 11.8601 6.21591 11.9089 6.17304 12.0004L3.79228 17.0837C3.73464 17.2068 3.80538 17.3516 3.93789 17.3819L3.92209 17.4511L3.93789 17.3819L11.3882 19.0811C11.5107 19.109 11.6306 19.0255 11.6469 18.9009L12.3546 13.4972C12.3687 13.3889 12.2989 13.2875 12.1927 13.2622L6.41551 11.8835Z" fill="#FBC052"/>
<path d="M16.1905 13.7205L16.9026 7.83008C16.9204 7.68293 16.822 7.54682 16.6768 7.51746L10.474 6.26371C10.3462 6.23787 10.2171 6.30239 10.1611 6.42019L7.63806 11.7251C7.56 11.8892 7.65396 12.0834 7.83111 12.1241L15.8449 13.9633C16.0094 14.0011 16.1703 13.888 16.1905 13.7205Z" fill="#FBC052"/>
<path fill-rule="evenodd" clip-rule="evenodd" d="M10.4597 6.33334C10.3639 6.31396 10.2671 6.36235 10.2251 6.4507L7.702 11.7556C7.64346 11.8787 7.71393 12.0244 7.84679 12.0549L15.8606 13.8941C15.9839 13.9224 16.1046 13.8376 16.1198 13.7119L16.8318 7.82155C16.8452 7.71119 16.7714 7.60911 16.6625 7.58709L10.4597 6.33334ZM10.0968 6.38968C10.1668 6.24243 10.3281 6.16178 10.4879 6.19408L16.6906 7.44783C16.8722 7.48453 16.9951 7.65466 16.9729 7.8386L16.2609 13.729C16.2355 13.9384 16.0344 14.0797 15.8288 14.0326L7.81501 12.1933C7.59358 12.1425 7.47612 11.8997 7.5737 11.6946L10.0968 6.38968Z" fill="#FBC052"/>
<path d="M26.585 22.7719L25.8418 29.3477L39.2888 26.5621L36.7334 20.7035L26.585 22.7719Z" fill="#FFD68A"/>
<path fill-rule="evenodd" clip-rule="evenodd" d="M36.7761 20.6223L39.3894 26.6138L25.7607 29.4371L26.5207 22.7125L36.7761 20.6223ZM26.6503 22.8311L25.9239 29.2582L39.1892 26.5102L36.6918 20.7845L26.6503 22.8311Z" fill="#FFD68A"/>
<path d="M20.8223 21.3951L26.5258 22.7313L36.7576 20.6404L32.551 19.329L20.8223 21.3951Z" fill="#FFAE18"/>
<path fill-rule="evenodd" clip-rule="evenodd" d="M32.5553 19.256L36.7783 20.5726L36.7714 20.71L26.5244 22.804L20.8057 21.4642L20.8095 21.3251L32.5553 19.256ZM21.1754 21.4049L26.5264 22.6586L36.4725 20.626L32.546 19.4019L21.1754 21.4049Z" fill="#FFAE18"/>
<path d="M21.6066 15.3545L20.8203 21.3229L32.5963 19.25L30.0498 13.8812L21.6066 15.3545Z" fill="#FFD68A"/>
<path fill-rule="evenodd" clip-rule="evenodd" d="M30.0909 13.802L32.7005 19.3039L20.7373 21.4097L21.543 15.2935L30.0909 13.802ZM21.6703 15.4156L20.9035 21.2362L32.4922 19.1963L30.0088 13.9605L21.6703 15.4156Z" fill="#FFD68A"/>
<path d="M16.1211 13.9786L21.5355 15.2831L29.7555 13.7821L26.0208 12.4955L16.1211 13.9786Z" fill="#FFAE18"/>
<path fill-rule="evenodd" clip-rule="evenodd" d="M26.0275 12.4226L30.0351 13.8032L21.5335 15.3557L16.1045 14.0477L16.1106 13.9083L26.0275 12.4226ZM16.492 13.9949L21.5376 15.2105L29.476 13.7609L26.0141 12.5683L16.492 13.9949Z" fill="#FFAE18"/>
<path d="M16.9602 7.52775L16.2275 13.8535L25.9843 12.424L24.0722 6.95593L16.9602 7.52775Z" fill="#FFD68A"/>
<path fill-rule="evenodd" clip-rule="evenodd" d="M24.1213 6.88074L26.0799 12.4818L16.1465 13.9372L16.8965 7.46163L24.1213 6.88074ZM17.0242 7.59389L16.3089 13.7698L25.8889 12.3662L24.0234 7.03115L17.0242 7.59389Z" fill="#FFD68A"/>
<path d="M33.1682 21.5065L26.1692 22.6296L26.3112 22.8427L26.3823 23.1269L25.9561 28.5258L26.8796 23.0558L33.1682 21.5065Z" fill="#FFDFA4"/>
<path d="M10.1162 6.22327L16.9066 7.492L24.0722 6.92018L16.9959 5.43701L10.1162 6.22327Z" fill="#FFAE18"/>
<path fill-rule="evenodd" clip-rule="evenodd" d="M16.9996 5.36511L24.0872 6.85063L24.0782 6.99097L16.9032 7.56354L10.1035 6.29308L10.1085 6.15267L16.9996 5.36511ZM10.594 6.24019L16.9107 7.42042L23.5755 6.88856L16.993 5.50888L10.594 6.24019Z" fill="#FFAE18"/>
<path d="M28.4901 14.078L21.2666 15.1706L21.4797 15.2416L21.5507 15.5258L20.9824 20.8537L22.048 15.4548L28.4901 14.078Z" fill="#FFDFA4"/>
<path d="M23.9239 6.9458L16.5783 7.42745L16.9335 7.56953L17.0046 7.85368L16.3652 12.8974L17.5018 7.64057L23.9239 6.9458Z" fill="#FFDFA4"/>
<path d="M107.646 9.23242H114.73V12.502H111.895V15.5999H114.549V18.708H111.895V22.3005H115.013V25.57H107.646V9.23242Z" fill="white"/>
<path d="M96.5059 9.23242H99.513C101.518 9.23242 102.873 9.30979 103.58 9.46452C104.293 9.61925 104.871 10.0162 105.315 10.6553C105.766 11.2877 105.992 12.3001 105.992 13.6927C105.992 14.9642 105.833 15.8186 105.517 16.2559C105.201 16.6931 104.579 16.9555 103.65 17.043C104.491 17.2515 105.056 17.5307 105.346 17.8805C105.635 18.2304 105.813 18.5533 105.881 18.8493C105.955 19.1386 105.992 19.9425 105.992 21.2611V25.57H102.046V20.141C102.046 19.2664 101.975 18.7248 101.834 18.5163C101.699 18.3077 101.34 18.2035 100.754 18.2035V25.57H96.5059V9.23242ZM100.754 12.0277V15.6605C101.232 15.6605 101.565 15.5966 101.753 15.4688C101.948 15.3342 102.046 14.907 102.046 14.1872V13.2891C102.046 12.7711 101.952 12.4313 101.763 12.2699C101.582 12.1084 101.245 12.0277 100.754 12.0277Z" fill="white"/>
<path d="M94.9118 18.7988C94.9118 20.4403 94.8714 21.6041 94.7907 22.2903C94.7167 22.9698 94.4745 23.5921 94.0641 24.1572C93.6605 24.7223 93.1122 25.1562 92.4193 25.4589C91.7263 25.7617 90.9191 25.913 89.9974 25.913C89.1228 25.913 88.3357 25.7718 87.6361 25.4892C86.9431 25.1999 86.3848 24.7694 85.9609 24.1976C85.5371 23.6257 85.2848 23.0034 85.2041 22.3307C85.1234 21.6579 85.083 20.4806 85.083 18.7988V16.0035C85.083 14.362 85.12 13.2016 85.194 12.5221C85.2747 11.8359 85.5169 11.2102 85.9206 10.6451C86.3309 10.08 86.8826 9.64612 87.5755 9.34338C88.2684 9.04065 89.0757 8.88928 89.9974 8.88928C90.872 8.88928 91.6557 9.03392 92.3486 9.3232C93.0483 9.60575 93.61 10.0329 94.0339 10.6048C94.4577 11.1766 94.71 11.7989 94.7907 12.4716C94.8714 13.1444 94.9118 14.3217 94.9118 16.0035V18.7988ZM90.6634 13.4303C90.6634 12.6701 90.6197 12.1857 90.5322 11.9772C90.4515 11.7619 90.2799 11.6543 90.0176 11.6543C89.7956 11.6543 89.624 11.7417 89.5029 11.9166C89.3886 12.0848 89.3314 12.5894 89.3314 13.4303V21.0592C89.3314 22.0078 89.3684 22.5931 89.4424 22.8151C89.5231 23.0371 89.7048 23.1481 89.9873 23.1481C90.2766 23.1481 90.4616 23.0203 90.5423 22.7646C90.623 22.509 90.6634 21.9001 90.6634 20.9381V13.4303Z" fill="white"/>
<path d="M73.7803 9.23242H76.959C79.0109 9.23242 80.3967 9.32661 81.1165 9.51497C81.8431 9.70334 82.3947 10.0128 82.7715 10.4434C83.1482 10.8739 83.3837 11.3549 83.4779 11.8864C83.572 12.4111 83.6191 13.4472 83.6191 14.9945V20.7161C83.6191 22.1827 83.5485 23.1649 83.4072 23.6628C83.2727 24.1539 83.0339 24.5407 82.6908 24.8232C82.3477 25.0991 81.9238 25.2942 81.4193 25.4085C80.9147 25.5162 80.1545 25.57 79.1387 25.57H73.7803V9.23242ZM78.0286 12.0277V22.7747C78.6408 22.7747 79.0176 22.6536 79.1589 22.4115C79.3001 22.1625 79.3708 21.4932 79.3708 20.4033V14.056C79.3708 13.316 79.3472 12.8417 79.3001 12.6331C79.253 12.4246 79.1454 12.2732 78.9772 12.179C78.809 12.0781 78.4928 12.0277 78.0286 12.0277Z" fill="white"/>
<path d="M70.1576 9.23242V22.3005H72.7409V25.57H65.9092V9.23242H70.1576Z" fill="white"/>
<path d="M64.2044 9.23242V25.57H59.9561V9.23242H64.2044Z" fill="white"/>
<path d="M58.3008 15.2467H54.0524V13.7633C54.0524 12.8282 54.012 12.2429 53.9313 12.0074C53.8506 11.772 53.6589 11.6543 53.3561 11.6543C53.0938 11.6543 52.9155 11.7552 52.8213 11.957C52.7271 12.1588 52.68 12.6768 52.68 13.511V21.3518C52.68 22.0851 52.7271 22.5695 52.8213 22.805C52.9155 23.0337 53.1038 23.1481 53.3864 23.1481C53.6959 23.1481 53.9044 23.0169 54.012 22.7545C54.1264 22.4921 54.1836 21.9809 54.1836 21.2207V19.2832H53.3258V16.8007H58.3008V25.5699H55.6266L55.2331 24.3994C54.9438 24.9039 54.5771 25.284 54.1331 25.5397C53.6959 25.7886 53.1778 25.913 52.5791 25.913C51.866 25.913 51.1966 25.7415 50.571 25.3984C49.952 25.0486 49.4811 24.618 49.1582 24.1067C48.8353 23.5954 48.6335 23.0606 48.5527 22.5022C48.472 21.9371 48.4316 21.0928 48.4316 19.9694V15.1155C48.4316 13.5548 48.5157 12.4212 48.6839 11.7148C48.8521 11.0084 49.3331 10.3626 50.127 9.7773C50.9275 9.18529 51.9602 8.88928 53.2249 8.88928C54.4695 8.88928 55.5022 9.14492 56.3229 9.65621C57.1437 10.1675 57.6785 10.7763 57.9274 11.4827C58.1763 12.1824 58.3008 13.2016 58.3008 14.5403V15.2467Z" fill="white"/>
</svg>
