<svg width="1512" height="1003" viewBox="0 0 1512 1003" fill="none" xmlns="http://www.w3.org/2000/svg">
<g opacity="0.03">
<mask id="path-1-inside-1_1_433" fill="white">
<path d="M0 -21H64V43H0V-21Z"/>
</mask>
<path d="M0 -21V-22H-1V-21H0ZM0 -20H64V-22H0V-20ZM1 43V-21H-1V43H1Z" fill="white" mask="url(#path-1-inside-1_1_433)"/>
<mask id="path-3-inside-2_1_433" fill="white">
<path d="M64 -21H128V43H64V-21Z"/>
</mask>
<path d="M64 -21V-22H63V-21H64ZM64 -20H128V-22H64V-20ZM65 43V-21H63V43H65Z" fill="white" mask="url(#path-3-inside-2_1_433)"/>
<mask id="path-5-inside-3_1_433" fill="white">
<path d="M128 -21H192V43H128V-21Z"/>
</mask>
<path d="M128 -21V-22H127V-21H128ZM128 -20H192V-22H128V-20ZM129 43V-21H127V43H129Z" fill="white" mask="url(#path-5-inside-3_1_433)"/>
<mask id="path-7-inside-4_1_433" fill="white">
<path d="M192 -21H256V43H192V-21Z"/>
</mask>
<path d="M192 -21V-22H191V-21H192ZM192 -20H256V-22H192V-20ZM193 43V-21H191V43H193Z" fill="white" mask="url(#path-7-inside-4_1_433)"/>
<mask id="path-9-inside-5_1_433" fill="white">
<path d="M256 -21H320V43H256V-21Z"/>
</mask>
<path d="M256 -21V-22H255V-21H256ZM256 -20H320V-22H256V-20ZM257 43V-21H255V43H257Z" fill="white" mask="url(#path-9-inside-5_1_433)"/>
<mask id="path-11-inside-6_1_433" fill="white">
<path d="M320 -21H384V43H320V-21Z"/>
</mask>
<path d="M320 -21V-22H319V-21H320ZM320 -20H384V-22H320V-20ZM321 43V-21H319V43H321Z" fill="white" mask="url(#path-11-inside-6_1_433)"/>
<mask id="path-13-inside-7_1_433" fill="white">
<path d="M384 -21H448V43H384V-21Z"/>
</mask>
<path d="M384 -21V-22H383V-21H384ZM384 -20H448V-22H384V-20ZM385 43V-21H383V43H385Z" fill="white" mask="url(#path-13-inside-7_1_433)"/>
<mask id="path-15-inside-8_1_433" fill="white">
<path d="M448 -21H512V43H448V-21Z"/>
</mask>
<path d="M448 -21V-22H447V-21H448ZM448 -20H512V-22H448V-20ZM449 43V-21H447V43H449Z" fill="white" mask="url(#path-15-inside-8_1_433)"/>
<mask id="path-17-inside-9_1_433" fill="white">
<path d="M512 -21H576V43H512V-21Z"/>
</mask>
<path d="M512 -21V-22H511V-21H512ZM512 -20H576V-22H512V-20ZM513 43V-21H511V43H513Z" fill="white" mask="url(#path-17-inside-9_1_433)"/>
<mask id="path-19-inside-10_1_433" fill="white">
<path d="M576 -21H640V43H576V-21Z"/>
</mask>
<path d="M576 -21V-22H575V-21H576ZM576 -20H640V-22H576V-20ZM577 43V-21H575V43H577Z" fill="white" mask="url(#path-19-inside-10_1_433)"/>
<mask id="path-21-inside-11_1_433" fill="white">
<path d="M640 -21H704V43H640V-21Z"/>
</mask>
<path d="M640 -21V-22H639V-21H640ZM640 -20H704V-22H640V-20ZM641 43V-21H639V43H641Z" fill="white" mask="url(#path-21-inside-11_1_433)"/>
<mask id="path-23-inside-12_1_433" fill="white">
<path d="M704 -21H768V43H704V-21Z"/>
</mask>
<path d="M704 -21V-22H703V-21H704ZM704 -20H768V-22H704V-20ZM705 43V-21H703V43H705Z" fill="white" mask="url(#path-23-inside-12_1_433)"/>
<mask id="path-25-inside-13_1_433" fill="white">
<path d="M768 -21H832V43H768V-21Z"/>
</mask>
<path d="M768 -21V-22H767V-21H768ZM768 -20H832V-22H768V-20ZM769 43V-21H767V43H769Z" fill="white" mask="url(#path-25-inside-13_1_433)"/>
<mask id="path-27-inside-14_1_433" fill="white">
<path d="M832 -21H896V43H832V-21Z"/>
</mask>
<path d="M832 -21V-22H831V-21H832ZM832 -20H896V-22H832V-20ZM833 43V-21H831V43H833Z" fill="white" mask="url(#path-27-inside-14_1_433)"/>
<mask id="path-29-inside-15_1_433" fill="white">
<path d="M896 -21H960V43H896V-21Z"/>
</mask>
<path d="M896 -21V-22H895V-21H896ZM896 -20H960V-22H896V-20ZM897 43V-21H895V43H897Z" fill="white" mask="url(#path-29-inside-15_1_433)"/>
<mask id="path-31-inside-16_1_433" fill="white">
<path d="M960 -21H1024V43H960V-21Z"/>
</mask>
<path d="M960 -21V-22H959V-21H960ZM960 -20H1024V-22H960V-20ZM961 43V-21H959V43H961Z" fill="white" mask="url(#path-31-inside-16_1_433)"/>
<mask id="path-33-inside-17_1_433" fill="white">
<path d="M1024 -21H1088V43H1024V-21Z"/>
</mask>
<path d="M1024 -21V-22H1023V-21H1024ZM1024 -20H1088V-22H1024V-20ZM1025 43V-21H1023V43H1025Z" fill="white" mask="url(#path-33-inside-17_1_433)"/>
<mask id="path-35-inside-18_1_433" fill="white">
<path d="M1088 -21H1152V43H1088V-21Z"/>
</mask>
<path d="M1088 -21V-22H1087V-21H1088ZM1088 -20H1152V-22H1088V-20ZM1089 43V-21H1087V43H1089Z" fill="white" mask="url(#path-35-inside-18_1_433)"/>
<mask id="path-37-inside-19_1_433" fill="white">
<path d="M1152 -21H1216V43H1152V-21Z"/>
</mask>
<path d="M1152 -21V-22H1151V-21H1152ZM1152 -20H1216V-22H1152V-20ZM1153 43V-21H1151V43H1153Z" fill="white" mask="url(#path-37-inside-19_1_433)"/>
<mask id="path-39-inside-20_1_433" fill="white">
<path d="M1216 -21H1280V43H1216V-21Z"/>
</mask>
<path d="M1216 -21V-22H1215V-21H1216ZM1216 -20H1280V-22H1216V-20ZM1217 43V-21H1215V43H1217Z" fill="white" mask="url(#path-39-inside-20_1_433)"/>
<mask id="path-41-inside-21_1_433" fill="white">
<path d="M1280 -21H1344V43H1280V-21Z"/>
</mask>
<path d="M1280 -21V-22H1279V-21H1280ZM1280 -20H1344V-22H1280V-20ZM1281 43V-21H1279V43H1281Z" fill="white" mask="url(#path-41-inside-21_1_433)"/>
<mask id="path-43-inside-22_1_433" fill="white">
<path d="M1344 -21H1408V43H1344V-21Z"/>
</mask>
<path d="M1344 -21V-22H1343V-21H1344ZM1344 -20H1408V-22H1344V-20ZM1345 43V-21H1343V43H1345Z" fill="white" mask="url(#path-43-inside-22_1_433)"/>
<mask id="path-45-inside-23_1_433" fill="white">
<path d="M1408 -21H1472V43H1408V-21Z"/>
</mask>
<path d="M1408 -21V-22H1407V-21H1408ZM1408 -20H1472V-22H1408V-20ZM1409 43V-21H1407V43H1409Z" fill="white" mask="url(#path-45-inside-23_1_433)"/>
<mask id="path-47-inside-24_1_433" fill="white">
<path d="M1472 -21H1536V43H1472V-21Z"/>
</mask>
<path d="M1472 -21V-22H1471V-21H1472ZM1472 -20H1536V-22H1472V-20ZM1473 43V-21H1471V43H1473Z" fill="white" mask="url(#path-47-inside-24_1_433)"/>
<mask id="path-49-inside-25_1_433" fill="white">
<path d="M0 43H64V107H0V43Z"/>
</mask>
<path d="M0 43V42H-1V43H0ZM0 44H64V42H0V44ZM1 107V43H-1V107H1Z" fill="white" mask="url(#path-49-inside-25_1_433)"/>
<mask id="path-51-inside-26_1_433" fill="white">
<path d="M64 43H128V107H64V43Z"/>
</mask>
<path d="M64 43V42H63V43H64ZM64 44H128V42H64V44ZM65 107V43H63V107H65Z" fill="white" mask="url(#path-51-inside-26_1_433)"/>
<mask id="path-53-inside-27_1_433" fill="white">
<path d="M128 43H192V107H128V43Z"/>
</mask>
<path d="M128 43V42H127V43H128ZM128 44H192V42H128V44ZM129 107V43H127V107H129Z" fill="white" mask="url(#path-53-inside-27_1_433)"/>
<mask id="path-55-inside-28_1_433" fill="white">
<path d="M192 43H256V107H192V43Z"/>
</mask>
<path d="M192 43V42H191V43H192ZM192 44H256V42H192V44ZM193 107V43H191V107H193Z" fill="white" mask="url(#path-55-inside-28_1_433)"/>
<mask id="path-57-inside-29_1_433" fill="white">
<path d="M256 43H320V107H256V43Z"/>
</mask>
<path d="M256 43V42H255V43H256ZM256 44H320V42H256V44ZM257 107V43H255V107H257Z" fill="white" mask="url(#path-57-inside-29_1_433)"/>
<mask id="path-59-inside-30_1_433" fill="white">
<path d="M320 43H384V107H320V43Z"/>
</mask>
<path d="M320 43V42H319V43H320ZM320 44H384V42H320V44ZM321 107V43H319V107H321Z" fill="white" mask="url(#path-59-inside-30_1_433)"/>
<mask id="path-61-inside-31_1_433" fill="white">
<path d="M384 43H448V107H384V43Z"/>
</mask>
<path d="M384 43V42H383V43H384ZM384 44H448V42H384V44ZM385 107V43H383V107H385Z" fill="white" mask="url(#path-61-inside-31_1_433)"/>
<mask id="path-63-inside-32_1_433" fill="white">
<path d="M448 43H512V107H448V43Z"/>
</mask>
<path d="M448 43V42H447V43H448ZM448 44H512V42H448V44ZM449 107V43H447V107H449Z" fill="white" mask="url(#path-63-inside-32_1_433)"/>
<mask id="path-65-inside-33_1_433" fill="white">
<path d="M512 43H576V107H512V43Z"/>
</mask>
<path d="M512 43V42H511V43H512ZM512 44H576V42H512V44ZM513 107V43H511V107H513Z" fill="white" mask="url(#path-65-inside-33_1_433)"/>
<mask id="path-67-inside-34_1_433" fill="white">
<path d="M576 43H640V107H576V43Z"/>
</mask>
<path d="M576 43V42H575V43H576ZM576 44H640V42H576V44ZM577 107V43H575V107H577Z" fill="white" mask="url(#path-67-inside-34_1_433)"/>
<mask id="path-69-inside-35_1_433" fill="white">
<path d="M640 43H704V107H640V43Z"/>
</mask>
<path d="M640 43V42H639V43H640ZM640 44H704V42H640V44ZM641 107V43H639V107H641Z" fill="white" mask="url(#path-69-inside-35_1_433)"/>
<mask id="path-71-inside-36_1_433" fill="white">
<path d="M704 43H768V107H704V43Z"/>
</mask>
<path d="M704 43V42H703V43H704ZM704 44H768V42H704V44ZM705 107V43H703V107H705Z" fill="white" mask="url(#path-71-inside-36_1_433)"/>
<mask id="path-73-inside-37_1_433" fill="white">
<path d="M768 43H832V107H768V43Z"/>
</mask>
<path d="M768 43V42H767V43H768ZM768 44H832V42H768V44ZM769 107V43H767V107H769Z" fill="white" mask="url(#path-73-inside-37_1_433)"/>
<mask id="path-75-inside-38_1_433" fill="white">
<path d="M832 43H896V107H832V43Z"/>
</mask>
<path d="M832 43V42H831V43H832ZM832 44H896V42H832V44ZM833 107V43H831V107H833Z" fill="white" mask="url(#path-75-inside-38_1_433)"/>
<mask id="path-77-inside-39_1_433" fill="white">
<path d="M896 43H960V107H896V43Z"/>
</mask>
<path d="M896 43V42H895V43H896ZM896 44H960V42H896V44ZM897 107V43H895V107H897Z" fill="white" mask="url(#path-77-inside-39_1_433)"/>
<mask id="path-79-inside-40_1_433" fill="white">
<path d="M960 43H1024V107H960V43Z"/>
</mask>
<path d="M960 43V42H959V43H960ZM960 44H1024V42H960V44ZM961 107V43H959V107H961Z" fill="white" mask="url(#path-79-inside-40_1_433)"/>
<mask id="path-81-inside-41_1_433" fill="white">
<path d="M1024 43H1088V107H1024V43Z"/>
</mask>
<path d="M1024 43V42H1023V43H1024ZM1024 44H1088V42H1024V44ZM1025 107V43H1023V107H1025Z" fill="white" mask="url(#path-81-inside-41_1_433)"/>
<mask id="path-83-inside-42_1_433" fill="white">
<path d="M1088 43H1152V107H1088V43Z"/>
</mask>
<path d="M1088 43V42H1087V43H1088ZM1088 44H1152V42H1088V44ZM1089 107V43H1087V107H1089Z" fill="white" mask="url(#path-83-inside-42_1_433)"/>
<mask id="path-85-inside-43_1_433" fill="white">
<path d="M1152 43H1216V107H1152V43Z"/>
</mask>
<path d="M1152 43V42H1151V43H1152ZM1152 44H1216V42H1152V44ZM1153 107V43H1151V107H1153Z" fill="white" mask="url(#path-85-inside-43_1_433)"/>
<mask id="path-87-inside-44_1_433" fill="white">
<path d="M1216 43H1280V107H1216V43Z"/>
</mask>
<path d="M1216 43V42H1215V43H1216ZM1216 44H1280V42H1216V44ZM1217 107V43H1215V107H1217Z" fill="white" mask="url(#path-87-inside-44_1_433)"/>
<mask id="path-89-inside-45_1_433" fill="white">
<path d="M1280 43H1344V107H1280V43Z"/>
</mask>
<path d="M1280 43V42H1279V43H1280ZM1280 44H1344V42H1280V44ZM1281 107V43H1279V107H1281Z" fill="white" mask="url(#path-89-inside-45_1_433)"/>
<mask id="path-91-inside-46_1_433" fill="white">
<path d="M1344 43H1408V107H1344V43Z"/>
</mask>
<path d="M1344 43V42H1343V43H1344ZM1344 44H1408V42H1344V44ZM1345 107V43H1343V107H1345Z" fill="white" mask="url(#path-91-inside-46_1_433)"/>
<mask id="path-93-inside-47_1_433" fill="white">
<path d="M1408 43H1472V107H1408V43Z"/>
</mask>
<path d="M1408 43V42H1407V43H1408ZM1408 44H1472V42H1408V44ZM1409 107V43H1407V107H1409Z" fill="white" mask="url(#path-93-inside-47_1_433)"/>
<mask id="path-95-inside-48_1_433" fill="white">
<path d="M1472 43H1536V107H1472V43Z"/>
</mask>
<path d="M1472 43V42H1471V43H1472ZM1472 44H1536V42H1472V44ZM1473 107V43H1471V107H1473Z" fill="white" mask="url(#path-95-inside-48_1_433)"/>
<mask id="path-97-inside-49_1_433" fill="white">
<path d="M0 107H64V171H0V107Z"/>
</mask>
<path d="M0 107V106H-1V107H0ZM0 108H64V106H0V108ZM1 171V107H-1V171H1Z" fill="white" mask="url(#path-97-inside-49_1_433)"/>
<mask id="path-99-inside-50_1_433" fill="white">
<path d="M64 107H128V171H64V107Z"/>
</mask>
<path d="M64 107V106H63V107H64ZM64 108H128V106H64V108ZM65 171V107H63V171H65Z" fill="white" mask="url(#path-99-inside-50_1_433)"/>
<mask id="path-101-inside-51_1_433" fill="white">
<path d="M128 107H192V171H128V107Z"/>
</mask>
<path d="M128 107V106H127V107H128ZM128 108H192V106H128V108ZM129 171V107H127V171H129Z" fill="white" mask="url(#path-101-inside-51_1_433)"/>
<mask id="path-103-inside-52_1_433" fill="white">
<path d="M192 107H256V171H192V107Z"/>
</mask>
<path d="M192 107V106H191V107H192ZM192 108H256V106H192V108ZM193 171V107H191V171H193Z" fill="white" mask="url(#path-103-inside-52_1_433)"/>
<mask id="path-105-inside-53_1_433" fill="white">
<path d="M256 107H320V171H256V107Z"/>
</mask>
<path d="M256 107V106H255V107H256ZM256 108H320V106H256V108ZM257 171V107H255V171H257Z" fill="white" mask="url(#path-105-inside-53_1_433)"/>
<mask id="path-107-inside-54_1_433" fill="white">
<path d="M320 107H384V171H320V107Z"/>
</mask>
<path d="M320 107V106H319V107H320ZM320 108H384V106H320V108ZM321 171V107H319V171H321Z" fill="white" mask="url(#path-107-inside-54_1_433)"/>
<mask id="path-109-inside-55_1_433" fill="white">
<path d="M384 107H448V171H384V107Z"/>
</mask>
<path d="M384 107V106H383V107H384ZM384 108H448V106H384V108ZM385 171V107H383V171H385Z" fill="white" mask="url(#path-109-inside-55_1_433)"/>
<mask id="path-111-inside-56_1_433" fill="white">
<path d="M448 107H512V171H448V107Z"/>
</mask>
<path d="M448 107V106H447V107H448ZM448 108H512V106H448V108ZM449 171V107H447V171H449Z" fill="white" mask="url(#path-111-inside-56_1_433)"/>
<mask id="path-113-inside-57_1_433" fill="white">
<path d="M512 107H576V171H512V107Z"/>
</mask>
<path d="M512 107V106H511V107H512ZM512 108H576V106H512V108ZM513 171V107H511V171H513Z" fill="white" mask="url(#path-113-inside-57_1_433)"/>
<mask id="path-115-inside-58_1_433" fill="white">
<path d="M576 107H640V171H576V107Z"/>
</mask>
<path d="M576 107V106H575V107H576ZM576 108H640V106H576V108ZM577 171V107H575V171H577Z" fill="white" mask="url(#path-115-inside-58_1_433)"/>
<mask id="path-117-inside-59_1_433" fill="white">
<path d="M640 107H704V171H640V107Z"/>
</mask>
<path d="M640 107V106H639V107H640ZM640 108H704V106H640V108ZM641 171V107H639V171H641Z" fill="white" mask="url(#path-117-inside-59_1_433)"/>
<mask id="path-119-inside-60_1_433" fill="white">
<path d="M704 107H768V171H704V107Z"/>
</mask>
<path d="M704 107V106H703V107H704ZM704 108H768V106H704V108ZM705 171V107H703V171H705Z" fill="white" mask="url(#path-119-inside-60_1_433)"/>
<mask id="path-121-inside-61_1_433" fill="white">
<path d="M768 107H832V171H768V107Z"/>
</mask>
<path d="M768 107V106H767V107H768ZM768 108H832V106H768V108ZM769 171V107H767V171H769Z" fill="white" mask="url(#path-121-inside-61_1_433)"/>
<mask id="path-123-inside-62_1_433" fill="white">
<path d="M832 107H896V171H832V107Z"/>
</mask>
<path d="M832 107V106H831V107H832ZM832 108H896V106H832V108ZM833 171V107H831V171H833Z" fill="white" mask="url(#path-123-inside-62_1_433)"/>
<mask id="path-125-inside-63_1_433" fill="white">
<path d="M896 107H960V171H896V107Z"/>
</mask>
<path d="M896 107V106H895V107H896ZM896 108H960V106H896V108ZM897 171V107H895V171H897Z" fill="white" mask="url(#path-125-inside-63_1_433)"/>
<mask id="path-127-inside-64_1_433" fill="white">
<path d="M960 107H1024V171H960V107Z"/>
</mask>
<path d="M960 107V106H959V107H960ZM960 108H1024V106H960V108ZM961 171V107H959V171H961Z" fill="white" mask="url(#path-127-inside-64_1_433)"/>
<mask id="path-129-inside-65_1_433" fill="white">
<path d="M1024 107H1088V171H1024V107Z"/>
</mask>
<path d="M1024 107V106H1023V107H1024ZM1024 108H1088V106H1024V108ZM1025 171V107H1023V171H1025Z" fill="white" mask="url(#path-129-inside-65_1_433)"/>
<mask id="path-131-inside-66_1_433" fill="white">
<path d="M1088 107H1152V171H1088V107Z"/>
</mask>
<path d="M1088 107V106H1087V107H1088ZM1088 108H1152V106H1088V108ZM1089 171V107H1087V171H1089Z" fill="white" mask="url(#path-131-inside-66_1_433)"/>
<mask id="path-133-inside-67_1_433" fill="white">
<path d="M1152 107H1216V171H1152V107Z"/>
</mask>
<path d="M1152 107V106H1151V107H1152ZM1152 108H1216V106H1152V108ZM1153 171V107H1151V171H1153Z" fill="white" mask="url(#path-133-inside-67_1_433)"/>
<mask id="path-135-inside-68_1_433" fill="white">
<path d="M1216 107H1280V171H1216V107Z"/>
</mask>
<path d="M1216 107V106H1215V107H1216ZM1216 108H1280V106H1216V108ZM1217 171V107H1215V171H1217Z" fill="white" mask="url(#path-135-inside-68_1_433)"/>
<mask id="path-137-inside-69_1_433" fill="white">
<path d="M1280 107H1344V171H1280V107Z"/>
</mask>
<path d="M1280 107V106H1279V107H1280ZM1280 108H1344V106H1280V108ZM1281 171V107H1279V171H1281Z" fill="white" mask="url(#path-137-inside-69_1_433)"/>
<mask id="path-139-inside-70_1_433" fill="white">
<path d="M1344 107H1408V171H1344V107Z"/>
</mask>
<path d="M1344 107V106H1343V107H1344ZM1344 108H1408V106H1344V108ZM1345 171V107H1343V171H1345Z" fill="white" mask="url(#path-139-inside-70_1_433)"/>
<mask id="path-141-inside-71_1_433" fill="white">
<path d="M1408 107H1472V171H1408V107Z"/>
</mask>
<path d="M1408 107V106H1407V107H1408ZM1408 108H1472V106H1408V108ZM1409 171V107H1407V171H1409Z" fill="white" mask="url(#path-141-inside-71_1_433)"/>
<mask id="path-143-inside-72_1_433" fill="white">
<path d="M1472 107H1536V171H1472V107Z"/>
</mask>
<path d="M1472 107V106H1471V107H1472ZM1472 108H1536V106H1472V108ZM1473 171V107H1471V171H1473Z" fill="white" mask="url(#path-143-inside-72_1_433)"/>
<mask id="path-145-inside-73_1_433" fill="white">
<path d="M0 171H64V235H0V171Z"/>
</mask>
<path d="M0 171V170H-1V171H0ZM0 172H64V170H0V172ZM1 235V171H-1V235H1Z" fill="white" mask="url(#path-145-inside-73_1_433)"/>
<mask id="path-147-inside-74_1_433" fill="white">
<path d="M64 171H128V235H64V171Z"/>
</mask>
<path d="M64 171V170H63V171H64ZM64 172H128V170H64V172ZM65 235V171H63V235H65Z" fill="white" mask="url(#path-147-inside-74_1_433)"/>
<mask id="path-149-inside-75_1_433" fill="white">
<path d="M128 171H192V235H128V171Z"/>
</mask>
<path d="M128 171V170H127V171H128ZM128 172H192V170H128V172ZM129 235V171H127V235H129Z" fill="white" mask="url(#path-149-inside-75_1_433)"/>
<mask id="path-151-inside-76_1_433" fill="white">
<path d="M192 171H256V235H192V171Z"/>
</mask>
<path d="M192 171V170H191V171H192ZM192 172H256V170H192V172ZM193 235V171H191V235H193Z" fill="white" mask="url(#path-151-inside-76_1_433)"/>
<mask id="path-153-inside-77_1_433" fill="white">
<path d="M256 171H320V235H256V171Z"/>
</mask>
<path d="M256 171V170H255V171H256ZM256 172H320V170H256V172ZM257 235V171H255V235H257Z" fill="white" mask="url(#path-153-inside-77_1_433)"/>
<mask id="path-155-inside-78_1_433" fill="white">
<path d="M320 171H384V235H320V171Z"/>
</mask>
<path d="M320 171V170H319V171H320ZM320 172H384V170H320V172ZM321 235V171H319V235H321Z" fill="white" mask="url(#path-155-inside-78_1_433)"/>
<mask id="path-157-inside-79_1_433" fill="white">
<path d="M384 171H448V235H384V171Z"/>
</mask>
<path d="M384 171V170H383V171H384ZM384 172H448V170H384V172ZM385 235V171H383V235H385Z" fill="white" mask="url(#path-157-inside-79_1_433)"/>
<mask id="path-159-inside-80_1_433" fill="white">
<path d="M448 171H512V235H448V171Z"/>
</mask>
<path d="M448 171V170H447V171H448ZM448 172H512V170H448V172ZM449 235V171H447V235H449Z" fill="white" mask="url(#path-159-inside-80_1_433)"/>
<mask id="path-161-inside-81_1_433" fill="white">
<path d="M512 171H576V235H512V171Z"/>
</mask>
<path d="M512 171V170H511V171H512ZM512 172H576V170H512V172ZM513 235V171H511V235H513Z" fill="white" mask="url(#path-161-inside-81_1_433)"/>
<mask id="path-163-inside-82_1_433" fill="white">
<path d="M576 171H640V235H576V171Z"/>
</mask>
<path d="M576 171V170H575V171H576ZM576 172H640V170H576V172ZM577 235V171H575V235H577Z" fill="white" mask="url(#path-163-inside-82_1_433)"/>
<mask id="path-165-inside-83_1_433" fill="white">
<path d="M640 171H704V235H640V171Z"/>
</mask>
<path d="M640 171V170H639V171H640ZM640 172H704V170H640V172ZM641 235V171H639V235H641Z" fill="white" mask="url(#path-165-inside-83_1_433)"/>
<mask id="path-167-inside-84_1_433" fill="white">
<path d="M704 171H768V235H704V171Z"/>
</mask>
<path d="M704 171V170H703V171H704ZM704 172H768V170H704V172ZM705 235V171H703V235H705Z" fill="white" mask="url(#path-167-inside-84_1_433)"/>
<mask id="path-169-inside-85_1_433" fill="white">
<path d="M768 171H832V235H768V171Z"/>
</mask>
<path d="M768 171V170H767V171H768ZM768 172H832V170H768V172ZM769 235V171H767V235H769Z" fill="white" mask="url(#path-169-inside-85_1_433)"/>
<mask id="path-171-inside-86_1_433" fill="white">
<path d="M832 171H896V235H832V171Z"/>
</mask>
<path d="M832 171V170H831V171H832ZM832 172H896V170H832V172ZM833 235V171H831V235H833Z" fill="white" mask="url(#path-171-inside-86_1_433)"/>
<mask id="path-173-inside-87_1_433" fill="white">
<path d="M896 171H960V235H896V171Z"/>
</mask>
<path d="M896 171V170H895V171H896ZM896 172H960V170H896V172ZM897 235V171H895V235H897Z" fill="white" mask="url(#path-173-inside-87_1_433)"/>
<mask id="path-175-inside-88_1_433" fill="white">
<path d="M960 171H1024V235H960V171Z"/>
</mask>
<path d="M960 171V170H959V171H960ZM960 172H1024V170H960V172ZM961 235V171H959V235H961Z" fill="white" mask="url(#path-175-inside-88_1_433)"/>
<mask id="path-177-inside-89_1_433" fill="white">
<path d="M1024 171H1088V235H1024V171Z"/>
</mask>
<path d="M1024 171V170H1023V171H1024ZM1024 172H1088V170H1024V172ZM1025 235V171H1023V235H1025Z" fill="white" mask="url(#path-177-inside-89_1_433)"/>
<mask id="path-179-inside-90_1_433" fill="white">
<path d="M1088 171H1152V235H1088V171Z"/>
</mask>
<path d="M1088 171V170H1087V171H1088ZM1088 172H1152V170H1088V172ZM1089 235V171H1087V235H1089Z" fill="white" mask="url(#path-179-inside-90_1_433)"/>
<mask id="path-181-inside-91_1_433" fill="white">
<path d="M1152 171H1216V235H1152V171Z"/>
</mask>
<path d="M1152 171V170H1151V171H1152ZM1152 172H1216V170H1152V172ZM1153 235V171H1151V235H1153Z" fill="white" mask="url(#path-181-inside-91_1_433)"/>
<mask id="path-183-inside-92_1_433" fill="white">
<path d="M1216 171H1280V235H1216V171Z"/>
</mask>
<path d="M1216 171V170H1215V171H1216ZM1216 172H1280V170H1216V172ZM1217 235V171H1215V235H1217Z" fill="white" mask="url(#path-183-inside-92_1_433)"/>
<mask id="path-185-inside-93_1_433" fill="white">
<path d="M1280 171H1344V235H1280V171Z"/>
</mask>
<path d="M1280 171V170H1279V171H1280ZM1280 172H1344V170H1280V172ZM1281 235V171H1279V235H1281Z" fill="white" mask="url(#path-185-inside-93_1_433)"/>
<mask id="path-187-inside-94_1_433" fill="white">
<path d="M1344 171H1408V235H1344V171Z"/>
</mask>
<path d="M1344 171V170H1343V171H1344ZM1344 172H1408V170H1344V172ZM1345 235V171H1343V235H1345Z" fill="white" mask="url(#path-187-inside-94_1_433)"/>
<mask id="path-189-inside-95_1_433" fill="white">
<path d="M1408 171H1472V235H1408V171Z"/>
</mask>
<path d="M1408 171V170H1407V171H1408ZM1408 172H1472V170H1408V172ZM1409 235V171H1407V235H1409Z" fill="white" mask="url(#path-189-inside-95_1_433)"/>
<mask id="path-191-inside-96_1_433" fill="white">
<path d="M1472 171H1536V235H1472V171Z"/>
</mask>
<path d="M1472 171V170H1471V171H1472ZM1472 172H1536V170H1472V172ZM1473 235V171H1471V235H1473Z" fill="white" mask="url(#path-191-inside-96_1_433)"/>
<mask id="path-193-inside-97_1_433" fill="white">
<path d="M0 235H64V299H0V235Z"/>
</mask>
<path d="M0 235V234H-1V235H0ZM0 236H64V234H0V236ZM1 299V235H-1V299H1Z" fill="white" mask="url(#path-193-inside-97_1_433)"/>
<mask id="path-195-inside-98_1_433" fill="white">
<path d="M64 235H128V299H64V235Z"/>
</mask>
<path d="M64 235V234H63V235H64ZM64 236H128V234H64V236ZM65 299V235H63V299H65Z" fill="white" mask="url(#path-195-inside-98_1_433)"/>
<mask id="path-197-inside-99_1_433" fill="white">
<path d="M128 235H192V299H128V235Z"/>
</mask>
<path d="M128 235V234H127V235H128ZM128 236H192V234H128V236ZM129 299V235H127V299H129Z" fill="white" mask="url(#path-197-inside-99_1_433)"/>
<mask id="path-199-inside-100_1_433" fill="white">
<path d="M192 235H256V299H192V235Z"/>
</mask>
<path d="M192 235V234H191V235H192ZM192 236H256V234H192V236ZM193 299V235H191V299H193Z" fill="white" mask="url(#path-199-inside-100_1_433)"/>
<mask id="path-201-inside-101_1_433" fill="white">
<path d="M256 235H320V299H256V235Z"/>
</mask>
<path d="M256 235V234H255V235H256ZM256 236H320V234H256V236ZM257 299V235H255V299H257Z" fill="white" mask="url(#path-201-inside-101_1_433)"/>
<mask id="path-203-inside-102_1_433" fill="white">
<path d="M320 235H384V299H320V235Z"/>
</mask>
<path d="M320 235V234H319V235H320ZM320 236H384V234H320V236ZM321 299V235H319V299H321Z" fill="white" mask="url(#path-203-inside-102_1_433)"/>
<mask id="path-205-inside-103_1_433" fill="white">
<path d="M384 235H448V299H384V235Z"/>
</mask>
<path d="M384 235V234H383V235H384ZM384 236H448V234H384V236ZM385 299V235H383V299H385Z" fill="white" mask="url(#path-205-inside-103_1_433)"/>
<mask id="path-207-inside-104_1_433" fill="white">
<path d="M448 235H512V299H448V235Z"/>
</mask>
<path d="M448 235V234H447V235H448ZM448 236H512V234H448V236ZM449 299V235H447V299H449Z" fill="white" mask="url(#path-207-inside-104_1_433)"/>
<mask id="path-209-inside-105_1_433" fill="white">
<path d="M512 235H576V299H512V235Z"/>
</mask>
<path d="M512 235V234H511V235H512ZM512 236H576V234H512V236ZM513 299V235H511V299H513Z" fill="white" mask="url(#path-209-inside-105_1_433)"/>
<mask id="path-211-inside-106_1_433" fill="white">
<path d="M576 235H640V299H576V235Z"/>
</mask>
<path d="M576 235V234H575V235H576ZM576 236H640V234H576V236ZM577 299V235H575V299H577Z" fill="white" mask="url(#path-211-inside-106_1_433)"/>
<mask id="path-213-inside-107_1_433" fill="white">
<path d="M640 235H704V299H640V235Z"/>
</mask>
<path d="M640 235V234H639V235H640ZM640 236H704V234H640V236ZM641 299V235H639V299H641Z" fill="white" mask="url(#path-213-inside-107_1_433)"/>
<mask id="path-215-inside-108_1_433" fill="white">
<path d="M704 235H768V299H704V235Z"/>
</mask>
<path d="M704 235V234H703V235H704ZM704 236H768V234H704V236ZM705 299V235H703V299H705Z" fill="white" mask="url(#path-215-inside-108_1_433)"/>
<mask id="path-217-inside-109_1_433" fill="white">
<path d="M768 235H832V299H768V235Z"/>
</mask>
<path d="M768 235V234H767V235H768ZM768 236H832V234H768V236ZM769 299V235H767V299H769Z" fill="white" mask="url(#path-217-inside-109_1_433)"/>
<mask id="path-219-inside-110_1_433" fill="white">
<path d="M832 235H896V299H832V235Z"/>
</mask>
<path d="M832 235V234H831V235H832ZM832 236H896V234H832V236ZM833 299V235H831V299H833Z" fill="white" mask="url(#path-219-inside-110_1_433)"/>
<mask id="path-221-inside-111_1_433" fill="white">
<path d="M896 235H960V299H896V235Z"/>
</mask>
<path d="M896 235V234H895V235H896ZM896 236H960V234H896V236ZM897 299V235H895V299H897Z" fill="white" mask="url(#path-221-inside-111_1_433)"/>
<mask id="path-223-inside-112_1_433" fill="white">
<path d="M960 235H1024V299H960V235Z"/>
</mask>
<path d="M960 235V234H959V235H960ZM960 236H1024V234H960V236ZM961 299V235H959V299H961Z" fill="white" mask="url(#path-223-inside-112_1_433)"/>
<mask id="path-225-inside-113_1_433" fill="white">
<path d="M1024 235H1088V299H1024V235Z"/>
</mask>
<path d="M1024 235V234H1023V235H1024ZM1024 236H1088V234H1024V236ZM1025 299V235H1023V299H1025Z" fill="white" mask="url(#path-225-inside-113_1_433)"/>
<mask id="path-227-inside-114_1_433" fill="white">
<path d="M1088 235H1152V299H1088V235Z"/>
</mask>
<path d="M1088 235V234H1087V235H1088ZM1088 236H1152V234H1088V236ZM1089 299V235H1087V299H1089Z" fill="white" mask="url(#path-227-inside-114_1_433)"/>
<mask id="path-229-inside-115_1_433" fill="white">
<path d="M1152 235H1216V299H1152V235Z"/>
</mask>
<path d="M1152 235V234H1151V235H1152ZM1152 236H1216V234H1152V236ZM1153 299V235H1151V299H1153Z" fill="white" mask="url(#path-229-inside-115_1_433)"/>
<mask id="path-231-inside-116_1_433" fill="white">
<path d="M1216 235H1280V299H1216V235Z"/>
</mask>
<path d="M1216 235V234H1215V235H1216ZM1216 236H1280V234H1216V236ZM1217 299V235H1215V299H1217Z" fill="white" mask="url(#path-231-inside-116_1_433)"/>
<mask id="path-233-inside-117_1_433" fill="white">
<path d="M1280 235H1344V299H1280V235Z"/>
</mask>
<path d="M1280 235V234H1279V235H1280ZM1280 236H1344V234H1280V236ZM1281 299V235H1279V299H1281Z" fill="white" mask="url(#path-233-inside-117_1_433)"/>
<mask id="path-235-inside-118_1_433" fill="white">
<path d="M1344 235H1408V299H1344V235Z"/>
</mask>
<path d="M1344 235V234H1343V235H1344ZM1344 236H1408V234H1344V236ZM1345 299V235H1343V299H1345Z" fill="white" mask="url(#path-235-inside-118_1_433)"/>
<mask id="path-237-inside-119_1_433" fill="white">
<path d="M1408 235H1472V299H1408V235Z"/>
</mask>
<path d="M1408 235V234H1407V235H1408ZM1408 236H1472V234H1408V236ZM1409 299V235H1407V299H1409Z" fill="white" mask="url(#path-237-inside-119_1_433)"/>
<mask id="path-239-inside-120_1_433" fill="white">
<path d="M1472 235H1536V299H1472V235Z"/>
</mask>
<path d="M1472 235V234H1471V235H1472ZM1472 236H1536V234H1472V236ZM1473 299V235H1471V299H1473Z" fill="white" mask="url(#path-239-inside-120_1_433)"/>
<mask id="path-241-inside-121_1_433" fill="white">
<path d="M0 299H64V363H0V299Z"/>
</mask>
<path d="M0 299V298H-1V299H0ZM0 300H64V298H0V300ZM1 363V299H-1V363H1Z" fill="white" mask="url(#path-241-inside-121_1_433)"/>
<mask id="path-243-inside-122_1_433" fill="white">
<path d="M64 299H128V363H64V299Z"/>
</mask>
<path d="M64 299V298H63V299H64ZM64 300H128V298H64V300ZM65 363V299H63V363H65Z" fill="white" mask="url(#path-243-inside-122_1_433)"/>
<mask id="path-245-inside-123_1_433" fill="white">
<path d="M128 299H192V363H128V299Z"/>
</mask>
<path d="M128 299V298H127V299H128ZM128 300H192V298H128V300ZM129 363V299H127V363H129Z" fill="white" mask="url(#path-245-inside-123_1_433)"/>
<mask id="path-247-inside-124_1_433" fill="white">
<path d="M192 299H256V363H192V299Z"/>
</mask>
<path d="M192 299V298H191V299H192ZM192 300H256V298H192V300ZM193 363V299H191V363H193Z" fill="white" mask="url(#path-247-inside-124_1_433)"/>
<mask id="path-249-inside-125_1_433" fill="white">
<path d="M256 299H320V363H256V299Z"/>
</mask>
<path d="M256 299V298H255V299H256ZM256 300H320V298H256V300ZM257 363V299H255V363H257Z" fill="white" mask="url(#path-249-inside-125_1_433)"/>
<mask id="path-251-inside-126_1_433" fill="white">
<path d="M320 299H384V363H320V299Z"/>
</mask>
<path d="M320 299V298H319V299H320ZM320 300H384V298H320V300ZM321 363V299H319V363H321Z" fill="white" mask="url(#path-251-inside-126_1_433)"/>
<mask id="path-253-inside-127_1_433" fill="white">
<path d="M384 299H448V363H384V299Z"/>
</mask>
<path d="M384 299V298H383V299H384ZM384 300H448V298H384V300ZM385 363V299H383V363H385Z" fill="white" mask="url(#path-253-inside-127_1_433)"/>
<mask id="path-255-inside-128_1_433" fill="white">
<path d="M448 299H512V363H448V299Z"/>
</mask>
<path d="M448 299V298H447V299H448ZM448 300H512V298H448V300ZM449 363V299H447V363H449Z" fill="white" mask="url(#path-255-inside-128_1_433)"/>
<mask id="path-257-inside-129_1_433" fill="white">
<path d="M512 299H576V363H512V299Z"/>
</mask>
<path d="M512 299V298H511V299H512ZM512 300H576V298H512V300ZM513 363V299H511V363H513Z" fill="white" mask="url(#path-257-inside-129_1_433)"/>
<mask id="path-259-inside-130_1_433" fill="white">
<path d="M576 299H640V363H576V299Z"/>
</mask>
<path d="M576 299V298H575V299H576ZM576 300H640V298H576V300ZM577 363V299H575V363H577Z" fill="white" mask="url(#path-259-inside-130_1_433)"/>
<mask id="path-261-inside-131_1_433" fill="white">
<path d="M640 299H704V363H640V299Z"/>
</mask>
<path d="M640 299V298H639V299H640ZM640 300H704V298H640V300ZM641 363V299H639V363H641Z" fill="white" mask="url(#path-261-inside-131_1_433)"/>
<mask id="path-263-inside-132_1_433" fill="white">
<path d="M704 299H768V363H704V299Z"/>
</mask>
<path d="M704 299V298H703V299H704ZM704 300H768V298H704V300ZM705 363V299H703V363H705Z" fill="white" mask="url(#path-263-inside-132_1_433)"/>
<mask id="path-265-inside-133_1_433" fill="white">
<path d="M768 299H832V363H768V299Z"/>
</mask>
<path d="M768 299V298H767V299H768ZM768 300H832V298H768V300ZM769 363V299H767V363H769Z" fill="white" mask="url(#path-265-inside-133_1_433)"/>
<mask id="path-267-inside-134_1_433" fill="white">
<path d="M832 299H896V363H832V299Z"/>
</mask>
<path d="M832 299V298H831V299H832ZM832 300H896V298H832V300ZM833 363V299H831V363H833Z" fill="white" mask="url(#path-267-inside-134_1_433)"/>
<mask id="path-269-inside-135_1_433" fill="white">
<path d="M896 299H960V363H896V299Z"/>
</mask>
<path d="M896 299V298H895V299H896ZM896 300H960V298H896V300ZM897 363V299H895V363H897Z" fill="white" mask="url(#path-269-inside-135_1_433)"/>
<mask id="path-271-inside-136_1_433" fill="white">
<path d="M960 299H1024V363H960V299Z"/>
</mask>
<path d="M960 299V298H959V299H960ZM960 300H1024V298H960V300ZM961 363V299H959V363H961Z" fill="white" mask="url(#path-271-inside-136_1_433)"/>
<mask id="path-273-inside-137_1_433" fill="white">
<path d="M1024 299H1088V363H1024V299Z"/>
</mask>
<path d="M1024 299V298H1023V299H1024ZM1024 300H1088V298H1024V300ZM1025 363V299H1023V363H1025Z" fill="white" mask="url(#path-273-inside-137_1_433)"/>
<mask id="path-275-inside-138_1_433" fill="white">
<path d="M1088 299H1152V363H1088V299Z"/>
</mask>
<path d="M1088 299V298H1087V299H1088ZM1088 300H1152V298H1088V300ZM1089 363V299H1087V363H1089Z" fill="white" mask="url(#path-275-inside-138_1_433)"/>
<mask id="path-277-inside-139_1_433" fill="white">
<path d="M1152 299H1216V363H1152V299Z"/>
</mask>
<path d="M1152 299V298H1151V299H1152ZM1152 300H1216V298H1152V300ZM1153 363V299H1151V363H1153Z" fill="white" mask="url(#path-277-inside-139_1_433)"/>
<mask id="path-279-inside-140_1_433" fill="white">
<path d="M1216 299H1280V363H1216V299Z"/>
</mask>
<path d="M1216 299V298H1215V299H1216ZM1216 300H1280V298H1216V300ZM1217 363V299H1215V363H1217Z" fill="white" mask="url(#path-279-inside-140_1_433)"/>
<mask id="path-281-inside-141_1_433" fill="white">
<path d="M1280 299H1344V363H1280V299Z"/>
</mask>
<path d="M1280 299V298H1279V299H1280ZM1280 300H1344V298H1280V300ZM1281 363V299H1279V363H1281Z" fill="white" mask="url(#path-281-inside-141_1_433)"/>
<mask id="path-283-inside-142_1_433" fill="white">
<path d="M1344 299H1408V363H1344V299Z"/>
</mask>
<path d="M1344 299V298H1343V299H1344ZM1344 300H1408V298H1344V300ZM1345 363V299H1343V363H1345Z" fill="white" mask="url(#path-283-inside-142_1_433)"/>
<mask id="path-285-inside-143_1_433" fill="white">
<path d="M1408 299H1472V363H1408V299Z"/>
</mask>
<path d="M1408 299V298H1407V299H1408ZM1408 300H1472V298H1408V300ZM1409 363V299H1407V363H1409Z" fill="white" mask="url(#path-285-inside-143_1_433)"/>
<mask id="path-287-inside-144_1_433" fill="white">
<path d="M1472 299H1536V363H1472V299Z"/>
</mask>
<path d="M1472 299V298H1471V299H1472ZM1472 300H1536V298H1472V300ZM1473 363V299H1471V363H1473Z" fill="white" mask="url(#path-287-inside-144_1_433)"/>
<mask id="path-289-inside-145_1_433" fill="white">
<path d="M0 363H64V427H0V363Z"/>
</mask>
<path d="M0 363V362H-1V363H0ZM0 364H64V362H0V364ZM1 427V363H-1V427H1Z" fill="white" mask="url(#path-289-inside-145_1_433)"/>
<mask id="path-291-inside-146_1_433" fill="white">
<path d="M64 363H128V427H64V363Z"/>
</mask>
<path d="M64 363V362H63V363H64ZM64 364H128V362H64V364ZM65 427V363H63V427H65Z" fill="white" mask="url(#path-291-inside-146_1_433)"/>
<mask id="path-293-inside-147_1_433" fill="white">
<path d="M128 363H192V427H128V363Z"/>
</mask>
<path d="M128 363V362H127V363H128ZM128 364H192V362H128V364ZM129 427V363H127V427H129Z" fill="white" mask="url(#path-293-inside-147_1_433)"/>
<mask id="path-295-inside-148_1_433" fill="white">
<path d="M192 363H256V427H192V363Z"/>
</mask>
<path d="M192 363V362H191V363H192ZM192 364H256V362H192V364ZM193 427V363H191V427H193Z" fill="white" mask="url(#path-295-inside-148_1_433)"/>
<mask id="path-297-inside-149_1_433" fill="white">
<path d="M256 363H320V427H256V363Z"/>
</mask>
<path d="M256 363V362H255V363H256ZM256 364H320V362H256V364ZM257 427V363H255V427H257Z" fill="white" mask="url(#path-297-inside-149_1_433)"/>
<mask id="path-299-inside-150_1_433" fill="white">
<path d="M320 363H384V427H320V363Z"/>
</mask>
<path d="M320 363V362H319V363H320ZM320 364H384V362H320V364ZM321 427V363H319V427H321Z" fill="white" mask="url(#path-299-inside-150_1_433)"/>
<mask id="path-301-inside-151_1_433" fill="white">
<path d="M384 363H448V427H384V363Z"/>
</mask>
<path d="M384 363V362H383V363H384ZM384 364H448V362H384V364ZM385 427V363H383V427H385Z" fill="white" mask="url(#path-301-inside-151_1_433)"/>
<mask id="path-303-inside-152_1_433" fill="white">
<path d="M448 363H512V427H448V363Z"/>
</mask>
<path d="M448 363V362H447V363H448ZM448 364H512V362H448V364ZM449 427V363H447V427H449Z" fill="white" mask="url(#path-303-inside-152_1_433)"/>
<mask id="path-305-inside-153_1_433" fill="white">
<path d="M512 363H576V427H512V363Z"/>
</mask>
<path d="M512 363V362H511V363H512ZM512 364H576V362H512V364ZM513 427V363H511V427H513Z" fill="white" mask="url(#path-305-inside-153_1_433)"/>
<mask id="path-307-inside-154_1_433" fill="white">
<path d="M576 363H640V427H576V363Z"/>
</mask>
<path d="M576 363V362H575V363H576ZM576 364H640V362H576V364ZM577 427V363H575V427H577Z" fill="white" mask="url(#path-307-inside-154_1_433)"/>
<mask id="path-309-inside-155_1_433" fill="white">
<path d="M640 363H704V427H640V363Z"/>
</mask>
<path d="M640 363V362H639V363H640ZM640 364H704V362H640V364ZM641 427V363H639V427H641Z" fill="white" mask="url(#path-309-inside-155_1_433)"/>
<mask id="path-311-inside-156_1_433" fill="white">
<path d="M704 363H768V427H704V363Z"/>
</mask>
<path d="M704 363V362H703V363H704ZM704 364H768V362H704V364ZM705 427V363H703V427H705Z" fill="white" mask="url(#path-311-inside-156_1_433)"/>
<mask id="path-313-inside-157_1_433" fill="white">
<path d="M768 363H832V427H768V363Z"/>
</mask>
<path d="M768 363V362H767V363H768ZM768 364H832V362H768V364ZM769 427V363H767V427H769Z" fill="white" mask="url(#path-313-inside-157_1_433)"/>
<mask id="path-315-inside-158_1_433" fill="white">
<path d="M832 363H896V427H832V363Z"/>
</mask>
<path d="M832 363V362H831V363H832ZM832 364H896V362H832V364ZM833 427V363H831V427H833Z" fill="white" mask="url(#path-315-inside-158_1_433)"/>
<mask id="path-317-inside-159_1_433" fill="white">
<path d="M896 363H960V427H896V363Z"/>
</mask>
<path d="M896 363V362H895V363H896ZM896 364H960V362H896V364ZM897 427V363H895V427H897Z" fill="white" mask="url(#path-317-inside-159_1_433)"/>
<mask id="path-319-inside-160_1_433" fill="white">
<path d="M960 363H1024V427H960V363Z"/>
</mask>
<path d="M960 363V362H959V363H960ZM960 364H1024V362H960V364ZM961 427V363H959V427H961Z" fill="white" mask="url(#path-319-inside-160_1_433)"/>
<mask id="path-321-inside-161_1_433" fill="white">
<path d="M1024 363H1088V427H1024V363Z"/>
</mask>
<path d="M1024 363V362H1023V363H1024ZM1024 364H1088V362H1024V364ZM1025 427V363H1023V427H1025Z" fill="white" mask="url(#path-321-inside-161_1_433)"/>
<mask id="path-323-inside-162_1_433" fill="white">
<path d="M1088 363H1152V427H1088V363Z"/>
</mask>
<path d="M1088 363V362H1087V363H1088ZM1088 364H1152V362H1088V364ZM1089 427V363H1087V427H1089Z" fill="white" mask="url(#path-323-inside-162_1_433)"/>
<mask id="path-325-inside-163_1_433" fill="white">
<path d="M1152 363H1216V427H1152V363Z"/>
</mask>
<path d="M1152 363V362H1151V363H1152ZM1152 364H1216V362H1152V364ZM1153 427V363H1151V427H1153Z" fill="white" mask="url(#path-325-inside-163_1_433)"/>
<mask id="path-327-inside-164_1_433" fill="white">
<path d="M1216 363H1280V427H1216V363Z"/>
</mask>
<path d="M1216 363V362H1215V363H1216ZM1216 364H1280V362H1216V364ZM1217 427V363H1215V427H1217Z" fill="white" mask="url(#path-327-inside-164_1_433)"/>
<mask id="path-329-inside-165_1_433" fill="white">
<path d="M1280 363H1344V427H1280V363Z"/>
</mask>
<path d="M1280 363V362H1279V363H1280ZM1280 364H1344V362H1280V364ZM1281 427V363H1279V427H1281Z" fill="white" mask="url(#path-329-inside-165_1_433)"/>
<mask id="path-331-inside-166_1_433" fill="white">
<path d="M1344 363H1408V427H1344V363Z"/>
</mask>
<path d="M1344 363V362H1343V363H1344ZM1344 364H1408V362H1344V364ZM1345 427V363H1343V427H1345Z" fill="white" mask="url(#path-331-inside-166_1_433)"/>
<mask id="path-333-inside-167_1_433" fill="white">
<path d="M1408 363H1472V427H1408V363Z"/>
</mask>
<path d="M1408 363V362H1407V363H1408ZM1408 364H1472V362H1408V364ZM1409 427V363H1407V427H1409Z" fill="white" mask="url(#path-333-inside-167_1_433)"/>
<mask id="path-335-inside-168_1_433" fill="white">
<path d="M1472 363H1536V427H1472V363Z"/>
</mask>
<path d="M1472 363V362H1471V363H1472ZM1472 364H1536V362H1472V364ZM1473 427V363H1471V427H1473Z" fill="white" mask="url(#path-335-inside-168_1_433)"/>
<mask id="path-337-inside-169_1_433" fill="white">
<path d="M0 427H64V491H0V427Z"/>
</mask>
<path d="M0 427V426H-1V427H0ZM0 428H64V426H0V428ZM1 491V427H-1V491H1Z" fill="white" mask="url(#path-337-inside-169_1_433)"/>
<mask id="path-339-inside-170_1_433" fill="white">
<path d="M64 427H128V491H64V427Z"/>
</mask>
<path d="M64 427V426H63V427H64ZM64 428H128V426H64V428ZM65 491V427H63V491H65Z" fill="white" mask="url(#path-339-inside-170_1_433)"/>
<mask id="path-341-inside-171_1_433" fill="white">
<path d="M128 427H192V491H128V427Z"/>
</mask>
<path d="M128 427V426H127V427H128ZM128 428H192V426H128V428ZM129 491V427H127V491H129Z" fill="white" mask="url(#path-341-inside-171_1_433)"/>
<mask id="path-343-inside-172_1_433" fill="white">
<path d="M192 427H256V491H192V427Z"/>
</mask>
<path d="M192 427V426H191V427H192ZM192 428H256V426H192V428ZM193 491V427H191V491H193Z" fill="white" mask="url(#path-343-inside-172_1_433)"/>
<mask id="path-345-inside-173_1_433" fill="white">
<path d="M256 427H320V491H256V427Z"/>
</mask>
<path d="M256 427V426H255V427H256ZM256 428H320V426H256V428ZM257 491V427H255V491H257Z" fill="white" mask="url(#path-345-inside-173_1_433)"/>
<mask id="path-347-inside-174_1_433" fill="white">
<path d="M320 427H384V491H320V427Z"/>
</mask>
<path d="M320 427V426H319V427H320ZM320 428H384V426H320V428ZM321 491V427H319V491H321Z" fill="white" mask="url(#path-347-inside-174_1_433)"/>
<mask id="path-349-inside-175_1_433" fill="white">
<path d="M384 427H448V491H384V427Z"/>
</mask>
<path d="M384 427V426H383V427H384ZM384 428H448V426H384V428ZM385 491V427H383V491H385Z" fill="white" mask="url(#path-349-inside-175_1_433)"/>
<mask id="path-351-inside-176_1_433" fill="white">
<path d="M448 427H512V491H448V427Z"/>
</mask>
<path d="M448 427V426H447V427H448ZM448 428H512V426H448V428ZM449 491V427H447V491H449Z" fill="white" mask="url(#path-351-inside-176_1_433)"/>
<mask id="path-353-inside-177_1_433" fill="white">
<path d="M512 427H576V491H512V427Z"/>
</mask>
<path d="M512 427V426H511V427H512ZM512 428H576V426H512V428ZM513 491V427H511V491H513Z" fill="white" mask="url(#path-353-inside-177_1_433)"/>
<mask id="path-355-inside-178_1_433" fill="white">
<path d="M576 427H640V491H576V427Z"/>
</mask>
<path d="M576 427V426H575V427H576ZM576 428H640V426H576V428ZM577 491V427H575V491H577Z" fill="white" mask="url(#path-355-inside-178_1_433)"/>
<mask id="path-357-inside-179_1_433" fill="white">
<path d="M640 427H704V491H640V427Z"/>
</mask>
<path d="M640 427V426H639V427H640ZM640 428H704V426H640V428ZM641 491V427H639V491H641Z" fill="white" mask="url(#path-357-inside-179_1_433)"/>
<mask id="path-359-inside-180_1_433" fill="white">
<path d="M704 427H768V491H704V427Z"/>
</mask>
<path d="M704 427V426H703V427H704ZM704 428H768V426H704V428ZM705 491V427H703V491H705Z" fill="white" mask="url(#path-359-inside-180_1_433)"/>
<mask id="path-361-inside-181_1_433" fill="white">
<path d="M768 427H832V491H768V427Z"/>
</mask>
<path d="M768 427V426H767V427H768ZM768 428H832V426H768V428ZM769 491V427H767V491H769Z" fill="white" mask="url(#path-361-inside-181_1_433)"/>
<mask id="path-363-inside-182_1_433" fill="white">
<path d="M832 427H896V491H832V427Z"/>
</mask>
<path d="M832 427V426H831V427H832ZM832 428H896V426H832V428ZM833 491V427H831V491H833Z" fill="white" mask="url(#path-363-inside-182_1_433)"/>
<mask id="path-365-inside-183_1_433" fill="white">
<path d="M896 427H960V491H896V427Z"/>
</mask>
<path d="M896 427V426H895V427H896ZM896 428H960V426H896V428ZM897 491V427H895V491H897Z" fill="white" mask="url(#path-365-inside-183_1_433)"/>
<mask id="path-367-inside-184_1_433" fill="white">
<path d="M960 427H1024V491H960V427Z"/>
</mask>
<path d="M960 427V426H959V427H960ZM960 428H1024V426H960V428ZM961 491V427H959V491H961Z" fill="white" mask="url(#path-367-inside-184_1_433)"/>
<mask id="path-369-inside-185_1_433" fill="white">
<path d="M1024 427H1088V491H1024V427Z"/>
</mask>
<path d="M1024 427V426H1023V427H1024ZM1024 428H1088V426H1024V428ZM1025 491V427H1023V491H1025Z" fill="white" mask="url(#path-369-inside-185_1_433)"/>
<mask id="path-371-inside-186_1_433" fill="white">
<path d="M1088 427H1152V491H1088V427Z"/>
</mask>
<path d="M1088 427V426H1087V427H1088ZM1088 428H1152V426H1088V428ZM1089 491V427H1087V491H1089Z" fill="white" mask="url(#path-371-inside-186_1_433)"/>
<mask id="path-373-inside-187_1_433" fill="white">
<path d="M1152 427H1216V491H1152V427Z"/>
</mask>
<path d="M1152 427V426H1151V427H1152ZM1152 428H1216V426H1152V428ZM1153 491V427H1151V491H1153Z" fill="white" mask="url(#path-373-inside-187_1_433)"/>
<mask id="path-375-inside-188_1_433" fill="white">
<path d="M1216 427H1280V491H1216V427Z"/>
</mask>
<path d="M1216 427V426H1215V427H1216ZM1216 428H1280V426H1216V428ZM1217 491V427H1215V491H1217Z" fill="white" mask="url(#path-375-inside-188_1_433)"/>
<mask id="path-377-inside-189_1_433" fill="white">
<path d="M1280 427H1344V491H1280V427Z"/>
</mask>
<path d="M1280 427V426H1279V427H1280ZM1280 428H1344V426H1280V428ZM1281 491V427H1279V491H1281Z" fill="white" mask="url(#path-377-inside-189_1_433)"/>
<mask id="path-379-inside-190_1_433" fill="white">
<path d="M1344 427H1408V491H1344V427Z"/>
</mask>
<path d="M1344 427V426H1343V427H1344ZM1344 428H1408V426H1344V428ZM1345 491V427H1343V491H1345Z" fill="white" mask="url(#path-379-inside-190_1_433)"/>
<mask id="path-381-inside-191_1_433" fill="white">
<path d="M1408 427H1472V491H1408V427Z"/>
</mask>
<path d="M1408 427V426H1407V427H1408ZM1408 428H1472V426H1408V428ZM1409 491V427H1407V491H1409Z" fill="white" mask="url(#path-381-inside-191_1_433)"/>
<mask id="path-383-inside-192_1_433" fill="white">
<path d="M1472 427H1536V491H1472V427Z"/>
</mask>
<path d="M1472 427V426H1471V427H1472ZM1472 428H1536V426H1472V428ZM1473 491V427H1471V491H1473Z" fill="white" mask="url(#path-383-inside-192_1_433)"/>
<mask id="path-385-inside-193_1_433" fill="white">
<path d="M0 491H64V555H0V491Z"/>
</mask>
<path d="M0 491V490H-1V491H0ZM0 492H64V490H0V492ZM1 555V491H-1V555H1Z" fill="white" mask="url(#path-385-inside-193_1_433)"/>
<mask id="path-387-inside-194_1_433" fill="white">
<path d="M64 491H128V555H64V491Z"/>
</mask>
<path d="M64 491V490H63V491H64ZM64 492H128V490H64V492ZM65 555V491H63V555H65Z" fill="white" mask="url(#path-387-inside-194_1_433)"/>
<mask id="path-389-inside-195_1_433" fill="white">
<path d="M128 491H192V555H128V491Z"/>
</mask>
<path d="M128 491V490H127V491H128ZM128 492H192V490H128V492ZM129 555V491H127V555H129Z" fill="white" mask="url(#path-389-inside-195_1_433)"/>
<mask id="path-391-inside-196_1_433" fill="white">
<path d="M192 491H256V555H192V491Z"/>
</mask>
<path d="M192 491V490H191V491H192ZM192 492H256V490H192V492ZM193 555V491H191V555H193Z" fill="white" mask="url(#path-391-inside-196_1_433)"/>
<mask id="path-393-inside-197_1_433" fill="white">
<path d="M256 491H320V555H256V491Z"/>
</mask>
<path d="M256 491V490H255V491H256ZM256 492H320V490H256V492ZM257 555V491H255V555H257Z" fill="white" mask="url(#path-393-inside-197_1_433)"/>
<mask id="path-395-inside-198_1_433" fill="white">
<path d="M320 491H384V555H320V491Z"/>
</mask>
<path d="M320 491V490H319V491H320ZM320 492H384V490H320V492ZM321 555V491H319V555H321Z" fill="white" mask="url(#path-395-inside-198_1_433)"/>
<mask id="path-397-inside-199_1_433" fill="white">
<path d="M384 491H448V555H384V491Z"/>
</mask>
<path d="M384 491V490H383V491H384ZM384 492H448V490H384V492ZM385 555V491H383V555H385Z" fill="white" mask="url(#path-397-inside-199_1_433)"/>
<mask id="path-399-inside-200_1_433" fill="white">
<path d="M448 491H512V555H448V491Z"/>
</mask>
<path d="M448 491V490H447V491H448ZM448 492H512V490H448V492ZM449 555V491H447V555H449Z" fill="white" mask="url(#path-399-inside-200_1_433)"/>
<mask id="path-401-inside-201_1_433" fill="white">
<path d="M512 491H576V555H512V491Z"/>
</mask>
<path d="M512 491V490H511V491H512ZM512 492H576V490H512V492ZM513 555V491H511V555H513Z" fill="white" mask="url(#path-401-inside-201_1_433)"/>
<mask id="path-403-inside-202_1_433" fill="white">
<path d="M576 491H640V555H576V491Z"/>
</mask>
<path d="M576 491V490H575V491H576ZM576 492H640V490H576V492ZM577 555V491H575V555H577Z" fill="white" mask="url(#path-403-inside-202_1_433)"/>
<mask id="path-405-inside-203_1_433" fill="white">
<path d="M640 491H704V555H640V491Z"/>
</mask>
<path d="M640 491V490H639V491H640ZM640 492H704V490H640V492ZM641 555V491H639V555H641Z" fill="white" mask="url(#path-405-inside-203_1_433)"/>
<mask id="path-407-inside-204_1_433" fill="white">
<path d="M704 491H768V555H704V491Z"/>
</mask>
<path d="M704 491V490H703V491H704ZM704 492H768V490H704V492ZM705 555V491H703V555H705Z" fill="white" mask="url(#path-407-inside-204_1_433)"/>
<mask id="path-409-inside-205_1_433" fill="white">
<path d="M768 491H832V555H768V491Z"/>
</mask>
<path d="M768 491V490H767V491H768ZM768 492H832V490H768V492ZM769 555V491H767V555H769Z" fill="white" mask="url(#path-409-inside-205_1_433)"/>
<mask id="path-411-inside-206_1_433" fill="white">
<path d="M832 491H896V555H832V491Z"/>
</mask>
<path d="M832 491V490H831V491H832ZM832 492H896V490H832V492ZM833 555V491H831V555H833Z" fill="white" mask="url(#path-411-inside-206_1_433)"/>
<mask id="path-413-inside-207_1_433" fill="white">
<path d="M896 491H960V555H896V491Z"/>
</mask>
<path d="M896 491V490H895V491H896ZM896 492H960V490H896V492ZM897 555V491H895V555H897Z" fill="white" mask="url(#path-413-inside-207_1_433)"/>
<mask id="path-415-inside-208_1_433" fill="white">
<path d="M960 491H1024V555H960V491Z"/>
</mask>
<path d="M960 491V490H959V491H960ZM960 492H1024V490H960V492ZM961 555V491H959V555H961Z" fill="white" mask="url(#path-415-inside-208_1_433)"/>
<mask id="path-417-inside-209_1_433" fill="white">
<path d="M1024 491H1088V555H1024V491Z"/>
</mask>
<path d="M1024 491V490H1023V491H1024ZM1024 492H1088V490H1024V492ZM1025 555V491H1023V555H1025Z" fill="white" mask="url(#path-417-inside-209_1_433)"/>
<mask id="path-419-inside-210_1_433" fill="white">
<path d="M1088 491H1152V555H1088V491Z"/>
</mask>
<path d="M1088 491V490H1087V491H1088ZM1088 492H1152V490H1088V492ZM1089 555V491H1087V555H1089Z" fill="white" mask="url(#path-419-inside-210_1_433)"/>
<mask id="path-421-inside-211_1_433" fill="white">
<path d="M1152 491H1216V555H1152V491Z"/>
</mask>
<path d="M1152 491V490H1151V491H1152ZM1152 492H1216V490H1152V492ZM1153 555V491H1151V555H1153Z" fill="white" mask="url(#path-421-inside-211_1_433)"/>
<mask id="path-423-inside-212_1_433" fill="white">
<path d="M1216 491H1280V555H1216V491Z"/>
</mask>
<path d="M1216 491V490H1215V491H1216ZM1216 492H1280V490H1216V492ZM1217 555V491H1215V555H1217Z" fill="white" mask="url(#path-423-inside-212_1_433)"/>
<mask id="path-425-inside-213_1_433" fill="white">
<path d="M1280 491H1344V555H1280V491Z"/>
</mask>
<path d="M1280 491V490H1279V491H1280ZM1280 492H1344V490H1280V492ZM1281 555V491H1279V555H1281Z" fill="white" mask="url(#path-425-inside-213_1_433)"/>
<mask id="path-427-inside-214_1_433" fill="white">
<path d="M1344 491H1408V555H1344V491Z"/>
</mask>
<path d="M1344 491V490H1343V491H1344ZM1344 492H1408V490H1344V492ZM1345 555V491H1343V555H1345Z" fill="white" mask="url(#path-427-inside-214_1_433)"/>
<mask id="path-429-inside-215_1_433" fill="white">
<path d="M1408 491H1472V555H1408V491Z"/>
</mask>
<path d="M1408 491V490H1407V491H1408ZM1408 492H1472V490H1408V492ZM1409 555V491H1407V555H1409Z" fill="white" mask="url(#path-429-inside-215_1_433)"/>
<mask id="path-431-inside-216_1_433" fill="white">
<path d="M1472 491H1536V555H1472V491Z"/>
</mask>
<path d="M1472 491V490H1471V491H1472ZM1472 492H1536V490H1472V492ZM1473 555V491H1471V555H1473Z" fill="white" mask="url(#path-431-inside-216_1_433)"/>
<mask id="path-433-inside-217_1_433" fill="white">
<path d="M0 555H64V619H0V555Z"/>
</mask>
<path d="M0 555V554H-1V555H0ZM0 556H64V554H0V556ZM1 619V555H-1V619H1Z" fill="white" mask="url(#path-433-inside-217_1_433)"/>
<mask id="path-435-inside-218_1_433" fill="white">
<path d="M64 555H128V619H64V555Z"/>
</mask>
<path d="M64 555V554H63V555H64ZM64 556H128V554H64V556ZM65 619V555H63V619H65Z" fill="white" mask="url(#path-435-inside-218_1_433)"/>
<mask id="path-437-inside-219_1_433" fill="white">
<path d="M128 555H192V619H128V555Z"/>
</mask>
<path d="M128 555V554H127V555H128ZM128 556H192V554H128V556ZM129 619V555H127V619H129Z" fill="white" mask="url(#path-437-inside-219_1_433)"/>
<mask id="path-439-inside-220_1_433" fill="white">
<path d="M192 555H256V619H192V555Z"/>
</mask>
<path d="M192 555V554H191V555H192ZM192 556H256V554H192V556ZM193 619V555H191V619H193Z" fill="white" mask="url(#path-439-inside-220_1_433)"/>
<mask id="path-441-inside-221_1_433" fill="white">
<path d="M256 555H320V619H256V555Z"/>
</mask>
<path d="M256 555V554H255V555H256ZM256 556H320V554H256V556ZM257 619V555H255V619H257Z" fill="white" mask="url(#path-441-inside-221_1_433)"/>
<mask id="path-443-inside-222_1_433" fill="white">
<path d="M320 555H384V619H320V555Z"/>
</mask>
<path d="M320 555V554H319V555H320ZM320 556H384V554H320V556ZM321 619V555H319V619H321Z" fill="white" mask="url(#path-443-inside-222_1_433)"/>
<mask id="path-445-inside-223_1_433" fill="white">
<path d="M384 555H448V619H384V555Z"/>
</mask>
<path d="M384 555V554H383V555H384ZM384 556H448V554H384V556ZM385 619V555H383V619H385Z" fill="white" mask="url(#path-445-inside-223_1_433)"/>
<mask id="path-447-inside-224_1_433" fill="white">
<path d="M448 555H512V619H448V555Z"/>
</mask>
<path d="M448 555V554H447V555H448ZM448 556H512V554H448V556ZM449 619V555H447V619H449Z" fill="white" mask="url(#path-447-inside-224_1_433)"/>
<mask id="path-449-inside-225_1_433" fill="white">
<path d="M512 555H576V619H512V555Z"/>
</mask>
<path d="M512 555V554H511V555H512ZM512 556H576V554H512V556ZM513 619V555H511V619H513Z" fill="white" mask="url(#path-449-inside-225_1_433)"/>
<mask id="path-451-inside-226_1_433" fill="white">
<path d="M576 555H640V619H576V555Z"/>
</mask>
<path d="M576 555V554H575V555H576ZM576 556H640V554H576V556ZM577 619V555H575V619H577Z" fill="white" mask="url(#path-451-inside-226_1_433)"/>
<mask id="path-453-inside-227_1_433" fill="white">
<path d="M640 555H704V619H640V555Z"/>
</mask>
<path d="M640 555V554H639V555H640ZM640 556H704V554H640V556ZM641 619V555H639V619H641Z" fill="white" mask="url(#path-453-inside-227_1_433)"/>
<mask id="path-455-inside-228_1_433" fill="white">
<path d="M704 555H768V619H704V555Z"/>
</mask>
<path d="M704 555V554H703V555H704ZM704 556H768V554H704V556ZM705 619V555H703V619H705Z" fill="white" mask="url(#path-455-inside-228_1_433)"/>
<mask id="path-457-inside-229_1_433" fill="white">
<path d="M768 555H832V619H768V555Z"/>
</mask>
<path d="M768 555V554H767V555H768ZM768 556H832V554H768V556ZM769 619V555H767V619H769Z" fill="white" mask="url(#path-457-inside-229_1_433)"/>
<mask id="path-459-inside-230_1_433" fill="white">
<path d="M832 555H896V619H832V555Z"/>
</mask>
<path d="M832 555V554H831V555H832ZM832 556H896V554H832V556ZM833 619V555H831V619H833Z" fill="white" mask="url(#path-459-inside-230_1_433)"/>
<mask id="path-461-inside-231_1_433" fill="white">
<path d="M896 555H960V619H896V555Z"/>
</mask>
<path d="M896 555V554H895V555H896ZM896 556H960V554H896V556ZM897 619V555H895V619H897Z" fill="white" mask="url(#path-461-inside-231_1_433)"/>
<mask id="path-463-inside-232_1_433" fill="white">
<path d="M960 555H1024V619H960V555Z"/>
</mask>
<path d="M960 555V554H959V555H960ZM960 556H1024V554H960V556ZM961 619V555H959V619H961Z" fill="white" mask="url(#path-463-inside-232_1_433)"/>
<mask id="path-465-inside-233_1_433" fill="white">
<path d="M1024 555H1088V619H1024V555Z"/>
</mask>
<path d="M1024 555V554H1023V555H1024ZM1024 556H1088V554H1024V556ZM1025 619V555H1023V619H1025Z" fill="white" mask="url(#path-465-inside-233_1_433)"/>
<mask id="path-467-inside-234_1_433" fill="white">
<path d="M1088 555H1152V619H1088V555Z"/>
</mask>
<path d="M1088 555V554H1087V555H1088ZM1088 556H1152V554H1088V556ZM1089 619V555H1087V619H1089Z" fill="white" mask="url(#path-467-inside-234_1_433)"/>
<mask id="path-469-inside-235_1_433" fill="white">
<path d="M1152 555H1216V619H1152V555Z"/>
</mask>
<path d="M1152 555V554H1151V555H1152ZM1152 556H1216V554H1152V556ZM1153 619V555H1151V619H1153Z" fill="white" mask="url(#path-469-inside-235_1_433)"/>
<mask id="path-471-inside-236_1_433" fill="white">
<path d="M1216 555H1280V619H1216V555Z"/>
</mask>
<path d="M1216 555V554H1215V555H1216ZM1216 556H1280V554H1216V556ZM1217 619V555H1215V619H1217Z" fill="white" mask="url(#path-471-inside-236_1_433)"/>
<mask id="path-473-inside-237_1_433" fill="white">
<path d="M1280 555H1344V619H1280V555Z"/>
</mask>
<path d="M1280 555V554H1279V555H1280ZM1280 556H1344V554H1280V556ZM1281 619V555H1279V619H1281Z" fill="white" mask="url(#path-473-inside-237_1_433)"/>
<mask id="path-475-inside-238_1_433" fill="white">
<path d="M1344 555H1408V619H1344V555Z"/>
</mask>
<path d="M1344 555V554H1343V555H1344ZM1344 556H1408V554H1344V556ZM1345 619V555H1343V619H1345Z" fill="white" mask="url(#path-475-inside-238_1_433)"/>
<mask id="path-477-inside-239_1_433" fill="white">
<path d="M1408 555H1472V619H1408V555Z"/>
</mask>
<path d="M1408 555V554H1407V555H1408ZM1408 556H1472V554H1408V556ZM1409 619V555H1407V619H1409Z" fill="white" mask="url(#path-477-inside-239_1_433)"/>
<mask id="path-479-inside-240_1_433" fill="white">
<path d="M1472 555H1536V619H1472V555Z"/>
</mask>
<path d="M1472 555V554H1471V555H1472ZM1472 556H1536V554H1472V556ZM1473 619V555H1471V619H1473Z" fill="white" mask="url(#path-479-inside-240_1_433)"/>
<mask id="path-481-inside-241_1_433" fill="white">
<path d="M0 619H64V683H0V619Z"/>
</mask>
<path d="M0 619V618H-1V619H0ZM0 620H64V618H0V620ZM1 683V619H-1V683H1Z" fill="white" mask="url(#path-481-inside-241_1_433)"/>
<mask id="path-483-inside-242_1_433" fill="white">
<path d="M64 619H128V683H64V619Z"/>
</mask>
<path d="M64 619V618H63V619H64ZM64 620H128V618H64V620ZM65 683V619H63V683H65Z" fill="white" mask="url(#path-483-inside-242_1_433)"/>
<mask id="path-485-inside-243_1_433" fill="white">
<path d="M128 619H192V683H128V619Z"/>
</mask>
<path d="M128 619V618H127V619H128ZM128 620H192V618H128V620ZM129 683V619H127V683H129Z" fill="white" mask="url(#path-485-inside-243_1_433)"/>
<mask id="path-487-inside-244_1_433" fill="white">
<path d="M192 619H256V683H192V619Z"/>
</mask>
<path d="M192 619V618H191V619H192ZM192 620H256V618H192V620ZM193 683V619H191V683H193Z" fill="white" mask="url(#path-487-inside-244_1_433)"/>
<mask id="path-489-inside-245_1_433" fill="white">
<path d="M256 619H320V683H256V619Z"/>
</mask>
<path d="M256 619V618H255V619H256ZM256 620H320V618H256V620ZM257 683V619H255V683H257Z" fill="white" mask="url(#path-489-inside-245_1_433)"/>
<mask id="path-491-inside-246_1_433" fill="white">
<path d="M320 619H384V683H320V619Z"/>
</mask>
<path d="M320 619V618H319V619H320ZM320 620H384V618H320V620ZM321 683V619H319V683H321Z" fill="white" mask="url(#path-491-inside-246_1_433)"/>
<mask id="path-493-inside-247_1_433" fill="white">
<path d="M384 619H448V683H384V619Z"/>
</mask>
<path d="M384 619V618H383V619H384ZM384 620H448V618H384V620ZM385 683V619H383V683H385Z" fill="white" mask="url(#path-493-inside-247_1_433)"/>
<mask id="path-495-inside-248_1_433" fill="white">
<path d="M448 619H512V683H448V619Z"/>
</mask>
<path d="M448 619V618H447V619H448ZM448 620H512V618H448V620ZM449 683V619H447V683H449Z" fill="white" mask="url(#path-495-inside-248_1_433)"/>
<mask id="path-497-inside-249_1_433" fill="white">
<path d="M512 619H576V683H512V619Z"/>
</mask>
<path d="M512 619V618H511V619H512ZM512 620H576V618H512V620ZM513 683V619H511V683H513Z" fill="white" mask="url(#path-497-inside-249_1_433)"/>
<mask id="path-499-inside-250_1_433" fill="white">
<path d="M576 619H640V683H576V619Z"/>
</mask>
<path d="M576 619V618H575V619H576ZM576 620H640V618H576V620ZM577 683V619H575V683H577Z" fill="white" mask="url(#path-499-inside-250_1_433)"/>
<mask id="path-501-inside-251_1_433" fill="white">
<path d="M640 619H704V683H640V619Z"/>
</mask>
<path d="M640 619V618H639V619H640ZM640 620H704V618H640V620ZM641 683V619H639V683H641Z" fill="white" mask="url(#path-501-inside-251_1_433)"/>
<mask id="path-503-inside-252_1_433" fill="white">
<path d="M704 619H768V683H704V619Z"/>
</mask>
<path d="M704 619V618H703V619H704ZM704 620H768V618H704V620ZM705 683V619H703V683H705Z" fill="white" mask="url(#path-503-inside-252_1_433)"/>
<mask id="path-505-inside-253_1_433" fill="white">
<path d="M768 619H832V683H768V619Z"/>
</mask>
<path d="M768 619V618H767V619H768ZM768 620H832V618H768V620ZM769 683V619H767V683H769Z" fill="white" mask="url(#path-505-inside-253_1_433)"/>
<mask id="path-507-inside-254_1_433" fill="white">
<path d="M832 619H896V683H832V619Z"/>
</mask>
<path d="M832 619V618H831V619H832ZM832 620H896V618H832V620ZM833 683V619H831V683H833Z" fill="white" mask="url(#path-507-inside-254_1_433)"/>
<mask id="path-509-inside-255_1_433" fill="white">
<path d="M896 619H960V683H896V619Z"/>
</mask>
<path d="M896 619V618H895V619H896ZM896 620H960V618H896V620ZM897 683V619H895V683H897Z" fill="white" mask="url(#path-509-inside-255_1_433)"/>
<mask id="path-511-inside-256_1_433" fill="white">
<path d="M960 619H1024V683H960V619Z"/>
</mask>
<path d="M960 619V618H959V619H960ZM960 620H1024V618H960V620ZM961 683V619H959V683H961Z" fill="white" mask="url(#path-511-inside-256_1_433)"/>
<mask id="path-513-inside-257_1_433" fill="white">
<path d="M1024 619H1088V683H1024V619Z"/>
</mask>
<path d="M1024 619V618H1023V619H1024ZM1024 620H1088V618H1024V620ZM1025 683V619H1023V683H1025Z" fill="white" mask="url(#path-513-inside-257_1_433)"/>
<mask id="path-515-inside-258_1_433" fill="white">
<path d="M1088 619H1152V683H1088V619Z"/>
</mask>
<path d="M1088 619V618H1087V619H1088ZM1088 620H1152V618H1088V620ZM1089 683V619H1087V683H1089Z" fill="white" mask="url(#path-515-inside-258_1_433)"/>
<mask id="path-517-inside-259_1_433" fill="white">
<path d="M1152 619H1216V683H1152V619Z"/>
</mask>
<path d="M1152 619V618H1151V619H1152ZM1152 620H1216V618H1152V620ZM1153 683V619H1151V683H1153Z" fill="white" mask="url(#path-517-inside-259_1_433)"/>
<mask id="path-519-inside-260_1_433" fill="white">
<path d="M1216 619H1280V683H1216V619Z"/>
</mask>
<path d="M1216 619V618H1215V619H1216ZM1216 620H1280V618H1216V620ZM1217 683V619H1215V683H1217Z" fill="white" mask="url(#path-519-inside-260_1_433)"/>
<mask id="path-521-inside-261_1_433" fill="white">
<path d="M1280 619H1344V683H1280V619Z"/>
</mask>
<path d="M1280 619V618H1279V619H1280ZM1280 620H1344V618H1280V620ZM1281 683V619H1279V683H1281Z" fill="white" mask="url(#path-521-inside-261_1_433)"/>
<mask id="path-523-inside-262_1_433" fill="white">
<path d="M1344 619H1408V683H1344V619Z"/>
</mask>
<path d="M1344 619V618H1343V619H1344ZM1344 620H1408V618H1344V620ZM1345 683V619H1343V683H1345Z" fill="white" mask="url(#path-523-inside-262_1_433)"/>
<mask id="path-525-inside-263_1_433" fill="white">
<path d="M1408 619H1472V683H1408V619Z"/>
</mask>
<path d="M1408 619V618H1407V619H1408ZM1408 620H1472V618H1408V620ZM1409 683V619H1407V683H1409Z" fill="white" mask="url(#path-525-inside-263_1_433)"/>
<mask id="path-527-inside-264_1_433" fill="white">
<path d="M1472 619H1536V683H1472V619Z"/>
</mask>
<path d="M1472 619V618H1471V619H1472ZM1472 620H1536V618H1472V620ZM1473 683V619H1471V683H1473Z" fill="white" mask="url(#path-527-inside-264_1_433)"/>
<mask id="path-529-inside-265_1_433" fill="white">
<path d="M0 683H64V747H0V683Z"/>
</mask>
<path d="M0 683V682H-1V683H0ZM0 684H64V682H0V684ZM1 747V683H-1V747H1Z" fill="white" mask="url(#path-529-inside-265_1_433)"/>
<mask id="path-531-inside-266_1_433" fill="white">
<path d="M64 683H128V747H64V683Z"/>
</mask>
<path d="M64 683V682H63V683H64ZM64 684H128V682H64V684ZM65 747V683H63V747H65Z" fill="white" mask="url(#path-531-inside-266_1_433)"/>
<mask id="path-533-inside-267_1_433" fill="white">
<path d="M128 683H192V747H128V683Z"/>
</mask>
<path d="M128 683V682H127V683H128ZM128 684H192V682H128V684ZM129 747V683H127V747H129Z" fill="white" mask="url(#path-533-inside-267_1_433)"/>
<mask id="path-535-inside-268_1_433" fill="white">
<path d="M192 683H256V747H192V683Z"/>
</mask>
<path d="M192 683V682H191V683H192ZM192 684H256V682H192V684ZM193 747V683H191V747H193Z" fill="white" mask="url(#path-535-inside-268_1_433)"/>
<mask id="path-537-inside-269_1_433" fill="white">
<path d="M256 683H320V747H256V683Z"/>
</mask>
<path d="M256 683V682H255V683H256ZM256 684H320V682H256V684ZM257 747V683H255V747H257Z" fill="white" mask="url(#path-537-inside-269_1_433)"/>
<mask id="path-539-inside-270_1_433" fill="white">
<path d="M320 683H384V747H320V683Z"/>
</mask>
<path d="M320 683V682H319V683H320ZM320 684H384V682H320V684ZM321 747V683H319V747H321Z" fill="white" mask="url(#path-539-inside-270_1_433)"/>
<mask id="path-541-inside-271_1_433" fill="white">
<path d="M384 683H448V747H384V683Z"/>
</mask>
<path d="M384 683V682H383V683H384ZM384 684H448V682H384V684ZM385 747V683H383V747H385Z" fill="white" mask="url(#path-541-inside-271_1_433)"/>
<mask id="path-543-inside-272_1_433" fill="white">
<path d="M448 683H512V747H448V683Z"/>
</mask>
<path d="M448 683V682H447V683H448ZM448 684H512V682H448V684ZM449 747V683H447V747H449Z" fill="white" mask="url(#path-543-inside-272_1_433)"/>
<mask id="path-545-inside-273_1_433" fill="white">
<path d="M512 683H576V747H512V683Z"/>
</mask>
<path d="M512 683V682H511V683H512ZM512 684H576V682H512V684ZM513 747V683H511V747H513Z" fill="white" mask="url(#path-545-inside-273_1_433)"/>
<mask id="path-547-inside-274_1_433" fill="white">
<path d="M576 683H640V747H576V683Z"/>
</mask>
<path d="M576 683V682H575V683H576ZM576 684H640V682H576V684ZM577 747V683H575V747H577Z" fill="white" mask="url(#path-547-inside-274_1_433)"/>
<mask id="path-549-inside-275_1_433" fill="white">
<path d="M640 683H704V747H640V683Z"/>
</mask>
<path d="M640 683V682H639V683H640ZM640 684H704V682H640V684ZM641 747V683H639V747H641Z" fill="white" mask="url(#path-549-inside-275_1_433)"/>
<mask id="path-551-inside-276_1_433" fill="white">
<path d="M704 683H768V747H704V683Z"/>
</mask>
<path d="M704 683V682H703V683H704ZM704 684H768V682H704V684ZM705 747V683H703V747H705Z" fill="white" mask="url(#path-551-inside-276_1_433)"/>
<mask id="path-553-inside-277_1_433" fill="white">
<path d="M768 683H832V747H768V683Z"/>
</mask>
<path d="M768 683V682H767V683H768ZM768 684H832V682H768V684ZM769 747V683H767V747H769Z" fill="white" mask="url(#path-553-inside-277_1_433)"/>
<mask id="path-555-inside-278_1_433" fill="white">
<path d="M832 683H896V747H832V683Z"/>
</mask>
<path d="M832 683V682H831V683H832ZM832 684H896V682H832V684ZM833 747V683H831V747H833Z" fill="white" mask="url(#path-555-inside-278_1_433)"/>
<mask id="path-557-inside-279_1_433" fill="white">
<path d="M896 683H960V747H896V683Z"/>
</mask>
<path d="M896 683V682H895V683H896ZM896 684H960V682H896V684ZM897 747V683H895V747H897Z" fill="white" mask="url(#path-557-inside-279_1_433)"/>
<mask id="path-559-inside-280_1_433" fill="white">
<path d="M960 683H1024V747H960V683Z"/>
</mask>
<path d="M960 683V682H959V683H960ZM960 684H1024V682H960V684ZM961 747V683H959V747H961Z" fill="white" mask="url(#path-559-inside-280_1_433)"/>
<mask id="path-561-inside-281_1_433" fill="white">
<path d="M1024 683H1088V747H1024V683Z"/>
</mask>
<path d="M1024 683V682H1023V683H1024ZM1024 684H1088V682H1024V684ZM1025 747V683H1023V747H1025Z" fill="white" mask="url(#path-561-inside-281_1_433)"/>
<mask id="path-563-inside-282_1_433" fill="white">
<path d="M1088 683H1152V747H1088V683Z"/>
</mask>
<path d="M1088 683V682H1087V683H1088ZM1088 684H1152V682H1088V684ZM1089 747V683H1087V747H1089Z" fill="white" mask="url(#path-563-inside-282_1_433)"/>
<mask id="path-565-inside-283_1_433" fill="white">
<path d="M1152 683H1216V747H1152V683Z"/>
</mask>
<path d="M1152 683V682H1151V683H1152ZM1152 684H1216V682H1152V684ZM1153 747V683H1151V747H1153Z" fill="white" mask="url(#path-565-inside-283_1_433)"/>
<mask id="path-567-inside-284_1_433" fill="white">
<path d="M1216 683H1280V747H1216V683Z"/>
</mask>
<path d="M1216 683V682H1215V683H1216ZM1216 684H1280V682H1216V684ZM1217 747V683H1215V747H1217Z" fill="white" mask="url(#path-567-inside-284_1_433)"/>
<mask id="path-569-inside-285_1_433" fill="white">
<path d="M1280 683H1344V747H1280V683Z"/>
</mask>
<path d="M1280 683V682H1279V683H1280ZM1280 684H1344V682H1280V684ZM1281 747V683H1279V747H1281Z" fill="white" mask="url(#path-569-inside-285_1_433)"/>
<mask id="path-571-inside-286_1_433" fill="white">
<path d="M1344 683H1408V747H1344V683Z"/>
</mask>
<path d="M1344 683V682H1343V683H1344ZM1344 684H1408V682H1344V684ZM1345 747V683H1343V747H1345Z" fill="white" mask="url(#path-571-inside-286_1_433)"/>
<mask id="path-573-inside-287_1_433" fill="white">
<path d="M1408 683H1472V747H1408V683Z"/>
</mask>
<path d="M1408 683V682H1407V683H1408ZM1408 684H1472V682H1408V684ZM1409 747V683H1407V747H1409Z" fill="white" mask="url(#path-573-inside-287_1_433)"/>
<mask id="path-575-inside-288_1_433" fill="white">
<path d="M1472 683H1536V747H1472V683Z"/>
</mask>
<path d="M1472 683V682H1471V683H1472ZM1472 684H1536V682H1472V684ZM1473 747V683H1471V747H1473Z" fill="white" mask="url(#path-575-inside-288_1_433)"/>
<mask id="path-577-inside-289_1_433" fill="white">
<path d="M0 747H64V811H0V747Z"/>
</mask>
<path d="M0 747V746H-1V747H0ZM0 748H64V746H0V748ZM1 811V747H-1V811H1Z" fill="white" mask="url(#path-577-inside-289_1_433)"/>
<mask id="path-579-inside-290_1_433" fill="white">
<path d="M64 747H128V811H64V747Z"/>
</mask>
<path d="M64 747V746H63V747H64ZM64 748H128V746H64V748ZM65 811V747H63V811H65Z" fill="white" mask="url(#path-579-inside-290_1_433)"/>
<mask id="path-581-inside-291_1_433" fill="white">
<path d="M128 747H192V811H128V747Z"/>
</mask>
<path d="M128 747V746H127V747H128ZM128 748H192V746H128V748ZM129 811V747H127V811H129Z" fill="white" mask="url(#path-581-inside-291_1_433)"/>
<mask id="path-583-inside-292_1_433" fill="white">
<path d="M192 747H256V811H192V747Z"/>
</mask>
<path d="M192 747V746H191V747H192ZM192 748H256V746H192V748ZM193 811V747H191V811H193Z" fill="white" mask="url(#path-583-inside-292_1_433)"/>
<mask id="path-585-inside-293_1_433" fill="white">
<path d="M256 747H320V811H256V747Z"/>
</mask>
<path d="M256 747V746H255V747H256ZM256 748H320V746H256V748ZM257 811V747H255V811H257Z" fill="white" mask="url(#path-585-inside-293_1_433)"/>
<mask id="path-587-inside-294_1_433" fill="white">
<path d="M320 747H384V811H320V747Z"/>
</mask>
<path d="M320 747V746H319V747H320ZM320 748H384V746H320V748ZM321 811V747H319V811H321Z" fill="white" mask="url(#path-587-inside-294_1_433)"/>
<mask id="path-589-inside-295_1_433" fill="white">
<path d="M384 747H448V811H384V747Z"/>
</mask>
<path d="M384 747V746H383V747H384ZM384 748H448V746H384V748ZM385 811V747H383V811H385Z" fill="white" mask="url(#path-589-inside-295_1_433)"/>
<mask id="path-591-inside-296_1_433" fill="white">
<path d="M448 747H512V811H448V747Z"/>
</mask>
<path d="M448 747V746H447V747H448ZM448 748H512V746H448V748ZM449 811V747H447V811H449Z" fill="white" mask="url(#path-591-inside-296_1_433)"/>
<mask id="path-593-inside-297_1_433" fill="white">
<path d="M512 747H576V811H512V747Z"/>
</mask>
<path d="M512 747V746H511V747H512ZM512 748H576V746H512V748ZM513 811V747H511V811H513Z" fill="white" mask="url(#path-593-inside-297_1_433)"/>
<mask id="path-595-inside-298_1_433" fill="white">
<path d="M576 747H640V811H576V747Z"/>
</mask>
<path d="M576 747V746H575V747H576ZM576 748H640V746H576V748ZM577 811V747H575V811H577Z" fill="white" mask="url(#path-595-inside-298_1_433)"/>
<mask id="path-597-inside-299_1_433" fill="white">
<path d="M640 747H704V811H640V747Z"/>
</mask>
<path d="M640 747V746H639V747H640ZM640 748H704V746H640V748ZM641 811V747H639V811H641Z" fill="white" mask="url(#path-597-inside-299_1_433)"/>
<mask id="path-599-inside-300_1_433" fill="white">
<path d="M704 747H768V811H704V747Z"/>
</mask>
<path d="M704 747V746H703V747H704ZM704 748H768V746H704V748ZM705 811V747H703V811H705Z" fill="white" mask="url(#path-599-inside-300_1_433)"/>
<mask id="path-601-inside-301_1_433" fill="white">
<path d="M768 747H832V811H768V747Z"/>
</mask>
<path d="M768 747V746H767V747H768ZM768 748H832V746H768V748ZM769 811V747H767V811H769Z" fill="white" mask="url(#path-601-inside-301_1_433)"/>
<mask id="path-603-inside-302_1_433" fill="white">
<path d="M832 747H896V811H832V747Z"/>
</mask>
<path d="M832 747V746H831V747H832ZM832 748H896V746H832V748ZM833 811V747H831V811H833Z" fill="white" mask="url(#path-603-inside-302_1_433)"/>
<mask id="path-605-inside-303_1_433" fill="white">
<path d="M896 747H960V811H896V747Z"/>
</mask>
<path d="M896 747V746H895V747H896ZM896 748H960V746H896V748ZM897 811V747H895V811H897Z" fill="white" mask="url(#path-605-inside-303_1_433)"/>
<mask id="path-607-inside-304_1_433" fill="white">
<path d="M960 747H1024V811H960V747Z"/>
</mask>
<path d="M960 747V746H959V747H960ZM960 748H1024V746H960V748ZM961 811V747H959V811H961Z" fill="white" mask="url(#path-607-inside-304_1_433)"/>
<mask id="path-609-inside-305_1_433" fill="white">
<path d="M1024 747H1088V811H1024V747Z"/>
</mask>
<path d="M1024 747V746H1023V747H1024ZM1024 748H1088V746H1024V748ZM1025 811V747H1023V811H1025Z" fill="white" mask="url(#path-609-inside-305_1_433)"/>
<mask id="path-611-inside-306_1_433" fill="white">
<path d="M1088 747H1152V811H1088V747Z"/>
</mask>
<path d="M1088 747V746H1087V747H1088ZM1088 748H1152V746H1088V748ZM1089 811V747H1087V811H1089Z" fill="white" mask="url(#path-611-inside-306_1_433)"/>
<mask id="path-613-inside-307_1_433" fill="white">
<path d="M1152 747H1216V811H1152V747Z"/>
</mask>
<path d="M1152 747V746H1151V747H1152ZM1152 748H1216V746H1152V748ZM1153 811V747H1151V811H1153Z" fill="white" mask="url(#path-613-inside-307_1_433)"/>
<mask id="path-615-inside-308_1_433" fill="white">
<path d="M1216 747H1280V811H1216V747Z"/>
</mask>
<path d="M1216 747V746H1215V747H1216ZM1216 748H1280V746H1216V748ZM1217 811V747H1215V811H1217Z" fill="white" mask="url(#path-615-inside-308_1_433)"/>
<mask id="path-617-inside-309_1_433" fill="white">
<path d="M1280 747H1344V811H1280V747Z"/>
</mask>
<path d="M1280 747V746H1279V747H1280ZM1280 748H1344V746H1280V748ZM1281 811V747H1279V811H1281Z" fill="white" mask="url(#path-617-inside-309_1_433)"/>
<mask id="path-619-inside-310_1_433" fill="white">
<path d="M1344 747H1408V811H1344V747Z"/>
</mask>
<path d="M1344 747V746H1343V747H1344ZM1344 748H1408V746H1344V748ZM1345 811V747H1343V811H1345Z" fill="white" mask="url(#path-619-inside-310_1_433)"/>
<mask id="path-621-inside-311_1_433" fill="white">
<path d="M1408 747H1472V811H1408V747Z"/>
</mask>
<path d="M1408 747V746H1407V747H1408ZM1408 748H1472V746H1408V748ZM1409 811V747H1407V811H1409Z" fill="white" mask="url(#path-621-inside-311_1_433)"/>
<mask id="path-623-inside-312_1_433" fill="white">
<path d="M1472 747H1536V811H1472V747Z"/>
</mask>
<path d="M1472 747V746H1471V747H1472ZM1472 748H1536V746H1472V748ZM1473 811V747H1471V811H1473Z" fill="white" mask="url(#path-623-inside-312_1_433)"/>
<mask id="path-625-inside-313_1_433" fill="white">
<path d="M0 811H64V875H0V811Z"/>
</mask>
<path d="M0 811V810H-1V811H0ZM0 812H64V810H0V812ZM1 875V811H-1V875H1Z" fill="white" mask="url(#path-625-inside-313_1_433)"/>
<mask id="path-627-inside-314_1_433" fill="white">
<path d="M64 811H128V875H64V811Z"/>
</mask>
<path d="M64 811V810H63V811H64ZM64 812H128V810H64V812ZM65 875V811H63V875H65Z" fill="white" mask="url(#path-627-inside-314_1_433)"/>
<mask id="path-629-inside-315_1_433" fill="white">
<path d="M128 811H192V875H128V811Z"/>
</mask>
<path d="M128 811V810H127V811H128ZM128 812H192V810H128V812ZM129 875V811H127V875H129Z" fill="white" mask="url(#path-629-inside-315_1_433)"/>
<mask id="path-631-inside-316_1_433" fill="white">
<path d="M192 811H256V875H192V811Z"/>
</mask>
<path d="M192 811V810H191V811H192ZM192 812H256V810H192V812ZM193 875V811H191V875H193Z" fill="white" mask="url(#path-631-inside-316_1_433)"/>
<mask id="path-633-inside-317_1_433" fill="white">
<path d="M256 811H320V875H256V811Z"/>
</mask>
<path d="M256 811V810H255V811H256ZM256 812H320V810H256V812ZM257 875V811H255V875H257Z" fill="white" mask="url(#path-633-inside-317_1_433)"/>
<mask id="path-635-inside-318_1_433" fill="white">
<path d="M320 811H384V875H320V811Z"/>
</mask>
<path d="M320 811V810H319V811H320ZM320 812H384V810H320V812ZM321 875V811H319V875H321Z" fill="white" mask="url(#path-635-inside-318_1_433)"/>
<mask id="path-637-inside-319_1_433" fill="white">
<path d="M384 811H448V875H384V811Z"/>
</mask>
<path d="M384 811V810H383V811H384ZM384 812H448V810H384V812ZM385 875V811H383V875H385Z" fill="white" mask="url(#path-637-inside-319_1_433)"/>
<mask id="path-639-inside-320_1_433" fill="white">
<path d="M448 811H512V875H448V811Z"/>
</mask>
<path d="M448 811V810H447V811H448ZM448 812H512V810H448V812ZM449 875V811H447V875H449Z" fill="white" mask="url(#path-639-inside-320_1_433)"/>
<mask id="path-641-inside-321_1_433" fill="white">
<path d="M512 811H576V875H512V811Z"/>
</mask>
<path d="M512 811V810H511V811H512ZM512 812H576V810H512V812ZM513 875V811H511V875H513Z" fill="white" mask="url(#path-641-inside-321_1_433)"/>
<mask id="path-643-inside-322_1_433" fill="white">
<path d="M576 811H640V875H576V811Z"/>
</mask>
<path d="M576 811V810H575V811H576ZM576 812H640V810H576V812ZM577 875V811H575V875H577Z" fill="white" mask="url(#path-643-inside-322_1_433)"/>
<mask id="path-645-inside-323_1_433" fill="white">
<path d="M640 811H704V875H640V811Z"/>
</mask>
<path d="M640 811V810H639V811H640ZM640 812H704V810H640V812ZM641 875V811H639V875H641Z" fill="white" mask="url(#path-645-inside-323_1_433)"/>
<mask id="path-647-inside-324_1_433" fill="white">
<path d="M704 811H768V875H704V811Z"/>
</mask>
<path d="M704 811V810H703V811H704ZM704 812H768V810H704V812ZM705 875V811H703V875H705Z" fill="white" mask="url(#path-647-inside-324_1_433)"/>
<mask id="path-649-inside-325_1_433" fill="white">
<path d="M768 811H832V875H768V811Z"/>
</mask>
<path d="M768 811V810H767V811H768ZM768 812H832V810H768V812ZM769 875V811H767V875H769Z" fill="white" mask="url(#path-649-inside-325_1_433)"/>
<mask id="path-651-inside-326_1_433" fill="white">
<path d="M832 811H896V875H832V811Z"/>
</mask>
<path d="M832 811V810H831V811H832ZM832 812H896V810H832V812ZM833 875V811H831V875H833Z" fill="white" mask="url(#path-651-inside-326_1_433)"/>
<mask id="path-653-inside-327_1_433" fill="white">
<path d="M896 811H960V875H896V811Z"/>
</mask>
<path d="M896 811V810H895V811H896ZM896 812H960V810H896V812ZM897 875V811H895V875H897Z" fill="white" mask="url(#path-653-inside-327_1_433)"/>
<mask id="path-655-inside-328_1_433" fill="white">
<path d="M960 811H1024V875H960V811Z"/>
</mask>
<path d="M960 811V810H959V811H960ZM960 812H1024V810H960V812ZM961 875V811H959V875H961Z" fill="white" mask="url(#path-655-inside-328_1_433)"/>
<mask id="path-657-inside-329_1_433" fill="white">
<path d="M1024 811H1088V875H1024V811Z"/>
</mask>
<path d="M1024 811V810H1023V811H1024ZM1024 812H1088V810H1024V812ZM1025 875V811H1023V875H1025Z" fill="white" mask="url(#path-657-inside-329_1_433)"/>
<mask id="path-659-inside-330_1_433" fill="white">
<path d="M1088 811H1152V875H1088V811Z"/>
</mask>
<path d="M1088 811V810H1087V811H1088ZM1088 812H1152V810H1088V812ZM1089 875V811H1087V875H1089Z" fill="white" mask="url(#path-659-inside-330_1_433)"/>
<mask id="path-661-inside-331_1_433" fill="white">
<path d="M1152 811H1216V875H1152V811Z"/>
</mask>
<path d="M1152 811V810H1151V811H1152ZM1152 812H1216V810H1152V812ZM1153 875V811H1151V875H1153Z" fill="white" mask="url(#path-661-inside-331_1_433)"/>
<mask id="path-663-inside-332_1_433" fill="white">
<path d="M1216 811H1280V875H1216V811Z"/>
</mask>
<path d="M1216 811V810H1215V811H1216ZM1216 812H1280V810H1216V812ZM1217 875V811H1215V875H1217Z" fill="white" mask="url(#path-663-inside-332_1_433)"/>
<mask id="path-665-inside-333_1_433" fill="white">
<path d="M1280 811H1344V875H1280V811Z"/>
</mask>
<path d="M1280 811V810H1279V811H1280ZM1280 812H1344V810H1280V812ZM1281 875V811H1279V875H1281Z" fill="white" mask="url(#path-665-inside-333_1_433)"/>
<mask id="path-667-inside-334_1_433" fill="white">
<path d="M1344 811H1408V875H1344V811Z"/>
</mask>
<path d="M1344 811V810H1343V811H1344ZM1344 812H1408V810H1344V812ZM1345 875V811H1343V875H1345Z" fill="white" mask="url(#path-667-inside-334_1_433)"/>
<mask id="path-669-inside-335_1_433" fill="white">
<path d="M1408 811H1472V875H1408V811Z"/>
</mask>
<path d="M1408 811V810H1407V811H1408ZM1408 812H1472V810H1408V812ZM1409 875V811H1407V875H1409Z" fill="white" mask="url(#path-669-inside-335_1_433)"/>
<mask id="path-671-inside-336_1_433" fill="white">
<path d="M1472 811H1536V875H1472V811Z"/>
</mask>
<path d="M1472 811V810H1471V811H1472ZM1472 812H1536V810H1472V812ZM1473 875V811H1471V875H1473Z" fill="white" mask="url(#path-671-inside-336_1_433)"/>
<mask id="path-673-inside-337_1_433" fill="white">
<path d="M0 875H64V939H0V875Z"/>
</mask>
<path d="M0 875V874H-1V875H0ZM0 876H64V874H0V876ZM1 939V875H-1V939H1Z" fill="white" mask="url(#path-673-inside-337_1_433)"/>
<mask id="path-675-inside-338_1_433" fill="white">
<path d="M64 875H128V939H64V875Z"/>
</mask>
<path d="M64 875V874H63V875H64ZM64 876H128V874H64V876ZM65 939V875H63V939H65Z" fill="white" mask="url(#path-675-inside-338_1_433)"/>
<mask id="path-677-inside-339_1_433" fill="white">
<path d="M128 875H192V939H128V875Z"/>
</mask>
<path d="M128 875V874H127V875H128ZM128 876H192V874H128V876ZM129 939V875H127V939H129Z" fill="white" mask="url(#path-677-inside-339_1_433)"/>
<mask id="path-679-inside-340_1_433" fill="white">
<path d="M192 875H256V939H192V875Z"/>
</mask>
<path d="M192 875V874H191V875H192ZM192 876H256V874H192V876ZM193 939V875H191V939H193Z" fill="white" mask="url(#path-679-inside-340_1_433)"/>
<mask id="path-681-inside-341_1_433" fill="white">
<path d="M256 875H320V939H256V875Z"/>
</mask>
<path d="M256 875V874H255V875H256ZM256 876H320V874H256V876ZM257 939V875H255V939H257Z" fill="white" mask="url(#path-681-inside-341_1_433)"/>
<mask id="path-683-inside-342_1_433" fill="white">
<path d="M320 875H384V939H320V875Z"/>
</mask>
<path d="M320 875V874H319V875H320ZM320 876H384V874H320V876ZM321 939V875H319V939H321Z" fill="white" mask="url(#path-683-inside-342_1_433)"/>
<mask id="path-685-inside-343_1_433" fill="white">
<path d="M384 875H448V939H384V875Z"/>
</mask>
<path d="M384 875V874H383V875H384ZM384 876H448V874H384V876ZM385 939V875H383V939H385Z" fill="white" mask="url(#path-685-inside-343_1_433)"/>
<mask id="path-687-inside-344_1_433" fill="white">
<path d="M448 875H512V939H448V875Z"/>
</mask>
<path d="M448 875V874H447V875H448ZM448 876H512V874H448V876ZM449 939V875H447V939H449Z" fill="white" mask="url(#path-687-inside-344_1_433)"/>
<mask id="path-689-inside-345_1_433" fill="white">
<path d="M512 875H576V939H512V875Z"/>
</mask>
<path d="M512 875V874H511V875H512ZM512 876H576V874H512V876ZM513 939V875H511V939H513Z" fill="white" mask="url(#path-689-inside-345_1_433)"/>
<mask id="path-691-inside-346_1_433" fill="white">
<path d="M576 875H640V939H576V875Z"/>
</mask>
<path d="M576 875V874H575V875H576ZM576 876H640V874H576V876ZM577 939V875H575V939H577Z" fill="white" mask="url(#path-691-inside-346_1_433)"/>
<mask id="path-693-inside-347_1_433" fill="white">
<path d="M640 875H704V939H640V875Z"/>
</mask>
<path d="M640 875V874H639V875H640ZM640 876H704V874H640V876ZM641 939V875H639V939H641Z" fill="white" mask="url(#path-693-inside-347_1_433)"/>
<mask id="path-695-inside-348_1_433" fill="white">
<path d="M704 875H768V939H704V875Z"/>
</mask>
<path d="M704 875V874H703V875H704ZM704 876H768V874H704V876ZM705 939V875H703V939H705Z" fill="white" mask="url(#path-695-inside-348_1_433)"/>
<mask id="path-697-inside-349_1_433" fill="white">
<path d="M768 875H832V939H768V875Z"/>
</mask>
<path d="M768 875V874H767V875H768ZM768 876H832V874H768V876ZM769 939V875H767V939H769Z" fill="white" mask="url(#path-697-inside-349_1_433)"/>
<mask id="path-699-inside-350_1_433" fill="white">
<path d="M832 875H896V939H832V875Z"/>
</mask>
<path d="M832 875V874H831V875H832ZM832 876H896V874H832V876ZM833 939V875H831V939H833Z" fill="white" mask="url(#path-699-inside-350_1_433)"/>
<mask id="path-701-inside-351_1_433" fill="white">
<path d="M896 875H960V939H896V875Z"/>
</mask>
<path d="M896 875V874H895V875H896ZM896 876H960V874H896V876ZM897 939V875H895V939H897Z" fill="white" mask="url(#path-701-inside-351_1_433)"/>
<mask id="path-703-inside-352_1_433" fill="white">
<path d="M960 875H1024V939H960V875Z"/>
</mask>
<path d="M960 875V874H959V875H960ZM960 876H1024V874H960V876ZM961 939V875H959V939H961Z" fill="white" mask="url(#path-703-inside-352_1_433)"/>
<mask id="path-705-inside-353_1_433" fill="white">
<path d="M1024 875H1088V939H1024V875Z"/>
</mask>
<path d="M1024 875V874H1023V875H1024ZM1024 876H1088V874H1024V876ZM1025 939V875H1023V939H1025Z" fill="white" mask="url(#path-705-inside-353_1_433)"/>
<mask id="path-707-inside-354_1_433" fill="white">
<path d="M1088 875H1152V939H1088V875Z"/>
</mask>
<path d="M1088 875V874H1087V875H1088ZM1088 876H1152V874H1088V876ZM1089 939V875H1087V939H1089Z" fill="white" mask="url(#path-707-inside-354_1_433)"/>
<mask id="path-709-inside-355_1_433" fill="white">
<path d="M1152 875H1216V939H1152V875Z"/>
</mask>
<path d="M1152 875V874H1151V875H1152ZM1152 876H1216V874H1152V876ZM1153 939V875H1151V939H1153Z" fill="white" mask="url(#path-709-inside-355_1_433)"/>
<mask id="path-711-inside-356_1_433" fill="white">
<path d="M1216 875H1280V939H1216V875Z"/>
</mask>
<path d="M1216 875V874H1215V875H1216ZM1216 876H1280V874H1216V876ZM1217 939V875H1215V939H1217Z" fill="white" mask="url(#path-711-inside-356_1_433)"/>
<mask id="path-713-inside-357_1_433" fill="white">
<path d="M1280 875H1344V939H1280V875Z"/>
</mask>
<path d="M1280 875V874H1279V875H1280ZM1280 876H1344V874H1280V876ZM1281 939V875H1279V939H1281Z" fill="white" mask="url(#path-713-inside-357_1_433)"/>
<mask id="path-715-inside-358_1_433" fill="white">
<path d="M1344 875H1408V939H1344V875Z"/>
</mask>
<path d="M1344 875V874H1343V875H1344ZM1344 876H1408V874H1344V876ZM1345 939V875H1343V939H1345Z" fill="white" mask="url(#path-715-inside-358_1_433)"/>
<mask id="path-717-inside-359_1_433" fill="white">
<path d="M1408 875H1472V939H1408V875Z"/>
</mask>
<path d="M1408 875V874H1407V875H1408ZM1408 876H1472V874H1408V876ZM1409 939V875H1407V939H1409Z" fill="white" mask="url(#path-717-inside-359_1_433)"/>
<mask id="path-719-inside-360_1_433" fill="white">
<path d="M1472 875H1536V939H1472V875Z"/>
</mask>
<path d="M1472 875V874H1471V875H1472ZM1472 876H1536V874H1472V876ZM1473 939V875H1471V939H1473Z" fill="white" mask="url(#path-719-inside-360_1_433)"/>
<mask id="path-721-inside-361_1_433" fill="white">
<path d="M0 939H64V1003H0V939Z"/>
</mask>
<path d="M0 939V938H-1V939H0ZM0 940H64V938H0V940ZM1 1003V939H-1V1003H1Z" fill="white" mask="url(#path-721-inside-361_1_433)"/>
<mask id="path-723-inside-362_1_433" fill="white">
<path d="M64 939H128V1003H64V939Z"/>
</mask>
<path d="M64 939V938H63V939H64ZM64 940H128V938H64V940ZM65 1003V939H63V1003H65Z" fill="white" mask="url(#path-723-inside-362_1_433)"/>
<mask id="path-725-inside-363_1_433" fill="white">
<path d="M128 939H192V1003H128V939Z"/>
</mask>
<path d="M128 939V938H127V939H128ZM128 940H192V938H128V940ZM129 1003V939H127V1003H129Z" fill="white" mask="url(#path-725-inside-363_1_433)"/>
<mask id="path-727-inside-364_1_433" fill="white">
<path d="M192 939H256V1003H192V939Z"/>
</mask>
<path d="M192 939V938H191V939H192ZM192 940H256V938H192V940ZM193 1003V939H191V1003H193Z" fill="white" mask="url(#path-727-inside-364_1_433)"/>
<mask id="path-729-inside-365_1_433" fill="white">
<path d="M256 939H320V1003H256V939Z"/>
</mask>
<path d="M256 939V938H255V939H256ZM256 940H320V938H256V940ZM257 1003V939H255V1003H257Z" fill="white" mask="url(#path-729-inside-365_1_433)"/>
<mask id="path-731-inside-366_1_433" fill="white">
<path d="M320 939H384V1003H320V939Z"/>
</mask>
<path d="M320 939V938H319V939H320ZM320 940H384V938H320V940ZM321 1003V939H319V1003H321Z" fill="white" mask="url(#path-731-inside-366_1_433)"/>
<mask id="path-733-inside-367_1_433" fill="white">
<path d="M384 939H448V1003H384V939Z"/>
</mask>
<path d="M384 939V938H383V939H384ZM384 940H448V938H384V940ZM385 1003V939H383V1003H385Z" fill="white" mask="url(#path-733-inside-367_1_433)"/>
<mask id="path-735-inside-368_1_433" fill="white">
<path d="M448 939H512V1003H448V939Z"/>
</mask>
<path d="M448 939V938H447V939H448ZM448 940H512V938H448V940ZM449 1003V939H447V1003H449Z" fill="white" mask="url(#path-735-inside-368_1_433)"/>
<mask id="path-737-inside-369_1_433" fill="white">
<path d="M512 939H576V1003H512V939Z"/>
</mask>
<path d="M512 939V938H511V939H512ZM512 940H576V938H512V940ZM513 1003V939H511V1003H513Z" fill="white" mask="url(#path-737-inside-369_1_433)"/>
<mask id="path-739-inside-370_1_433" fill="white">
<path d="M576 939H640V1003H576V939Z"/>
</mask>
<path d="M576 939V938H575V939H576ZM576 940H640V938H576V940ZM577 1003V939H575V1003H577Z" fill="white" mask="url(#path-739-inside-370_1_433)"/>
<mask id="path-741-inside-371_1_433" fill="white">
<path d="M640 939H704V1003H640V939Z"/>
</mask>
<path d="M640 939V938H639V939H640ZM640 940H704V938H640V940ZM641 1003V939H639V1003H641Z" fill="white" mask="url(#path-741-inside-371_1_433)"/>
<mask id="path-743-inside-372_1_433" fill="white">
<path d="M704 939H768V1003H704V939Z"/>
</mask>
<path d="M704 939V938H703V939H704ZM704 940H768V938H704V940ZM705 1003V939H703V1003H705Z" fill="white" mask="url(#path-743-inside-372_1_433)"/>
<mask id="path-745-inside-373_1_433" fill="white">
<path d="M768 939H832V1003H768V939Z"/>
</mask>
<path d="M768 939V938H767V939H768ZM768 940H832V938H768V940ZM769 1003V939H767V1003H769Z" fill="white" mask="url(#path-745-inside-373_1_433)"/>
<mask id="path-747-inside-374_1_433" fill="white">
<path d="M832 939H896V1003H832V939Z"/>
</mask>
<path d="M832 939V938H831V939H832ZM832 940H896V938H832V940ZM833 1003V939H831V1003H833Z" fill="white" mask="url(#path-747-inside-374_1_433)"/>
<mask id="path-749-inside-375_1_433" fill="white">
<path d="M896 939H960V1003H896V939Z"/>
</mask>
<path d="M896 939V938H895V939H896ZM896 940H960V938H896V940ZM897 1003V939H895V1003H897Z" fill="white" mask="url(#path-749-inside-375_1_433)"/>
<mask id="path-751-inside-376_1_433" fill="white">
<path d="M960 939H1024V1003H960V939Z"/>
</mask>
<path d="M960 939V938H959V939H960ZM960 940H1024V938H960V940ZM961 1003V939H959V1003H961Z" fill="white" mask="url(#path-751-inside-376_1_433)"/>
<mask id="path-753-inside-377_1_433" fill="white">
<path d="M1024 939H1088V1003H1024V939Z"/>
</mask>
<path d="M1024 939V938H1023V939H1024ZM1024 940H1088V938H1024V940ZM1025 1003V939H1023V1003H1025Z" fill="white" mask="url(#path-753-inside-377_1_433)"/>
<mask id="path-755-inside-378_1_433" fill="white">
<path d="M1088 939H1152V1003H1088V939Z"/>
</mask>
<path d="M1088 939V938H1087V939H1088ZM1088 940H1152V938H1088V940ZM1089 1003V939H1087V1003H1089Z" fill="white" mask="url(#path-755-inside-378_1_433)"/>
<mask id="path-757-inside-379_1_433" fill="white">
<path d="M1152 939H1216V1003H1152V939Z"/>
</mask>
<path d="M1152 939V938H1151V939H1152ZM1152 940H1216V938H1152V940ZM1153 1003V939H1151V1003H1153Z" fill="white" mask="url(#path-757-inside-379_1_433)"/>
<mask id="path-759-inside-380_1_433" fill="white">
<path d="M1216 939H1280V1003H1216V939Z"/>
</mask>
<path d="M1216 939V938H1215V939H1216ZM1216 940H1280V938H1216V940ZM1217 1003V939H1215V1003H1217Z" fill="white" mask="url(#path-759-inside-380_1_433)"/>
<mask id="path-761-inside-381_1_433" fill="white">
<path d="M1280 939H1344V1003H1280V939Z"/>
</mask>
<path d="M1280 939V938H1279V939H1280ZM1280 940H1344V938H1280V940ZM1281 1003V939H1279V1003H1281Z" fill="white" mask="url(#path-761-inside-381_1_433)"/>
<mask id="path-763-inside-382_1_433" fill="white">
<path d="M1344 939H1408V1003H1344V939Z"/>
</mask>
<path d="M1344 939V938H1343V939H1344ZM1344 940H1408V938H1344V940ZM1345 1003V939H1343V1003H1345Z" fill="white" mask="url(#path-763-inside-382_1_433)"/>
<mask id="path-765-inside-383_1_433" fill="white">
<path d="M1408 939H1472V1003H1408V939Z"/>
</mask>
<path d="M1408 939V938H1407V939H1408ZM1408 940H1472V938H1408V940ZM1409 1003V939H1407V1003H1409Z" fill="white" mask="url(#path-765-inside-383_1_433)"/>
<mask id="path-767-inside-384_1_433" fill="white">
<path d="M1472 939H1536V1003H1472V939Z"/>
</mask>
<path d="M1472 939V938H1471V939H1472ZM1472 940H1536V938H1472V940ZM1473 1003V939H1471V1003H1473Z" fill="white" mask="url(#path-767-inside-384_1_433)"/>
</g>
</svg>
